<svg xmlns="http://www.w3.org/2000/svg" xmlns:xlink="http://www.w3.org/1999/xlink" width="2000" zoomAndPan="magnify" viewBox="0 0 1500 1499.999933" height="2000" preserveAspectRatio="xMidYMid meet" version="1.0"><path fill="#000000" d="M 1187.5 812.5 C 1153.125 812.5 1125 840.625 1125 875 L 1125 1250 C 1125 1318.75 1068.75 1375 1000 1375 L 250 1375 C 181.25 1375 125 1318.75 125 1250 L 125 500 C 125 431.25 181.25 375 250 375 L 625 375 C 659.375 375 687.5 346.875 687.5 312.5 C 687.5 278.125 659.375 250 625 250 L 250 250 C 111.875 250 0 361.875 0 500 L 0 1250 C 0 1388.125 111.875 1500 250 1500 L 1000 1500 C 1138.125 1500 1250 1388.125 1250 1250 L 1250 875 C 1250 840.625 1221.875 812.5 1187.5 812.5 Z M 1187.5 812.5 " fill-opacity="1" fill-rule="nonzero"/><path fill="#000000" d="M 1437.5 0 L 812.5 0 C 778.125 0 750 28.125 750 62.5 C 750 96.875 778.125 125 812.5 125 L 1286.875 125 L 456.25 955.625 C 431.875 980 431.875 1019.375 456.25 1043.75 C 468.75 1056.25 484.375 1061.875 500.625 1061.875 C 516.875 1061.875 532.5 1055.625 545 1043.75 L 1375.625 213.125 L 1375.625 687.5 C 1375.625 721.875 1403.75 750 1438.125 750 C 1472.5 750 1500.625 721.875 1500.625 687.5 L 1500.625 62.5 C 1500.625 28.125 1472.5 0 1438.125 0 Z M 1437.5 0 " fill-opacity="1" fill-rule="nonzero"/></svg>