<svg xmlns="http://www.w3.org/2000/svg" xmlns:xlink="http://www.w3.org/1999/xlink" width="1920" zoomAndPan="magnify" viewBox="0 0 1440 809.999993" height="1080" preserveAspectRatio="xMidYMid meet" version="1.0"><metadata><ContainsAiGeneratedContent>Yes</ContainsAiGeneratedContent></metadata><defs><clipPath id="99660ae7c9"><path d="M 0 84.886719 L 1440 84.886719 L 1440 660 L 0 660 Z M 0 84.886719 " clip-rule="nonzero"/></clipPath></defs><path fill="#3a2a79" d="M 1448.492188 611.554688 C 1447.972656 611.492188 1394.738281 603.875 1282.019531 553.457031 C 1178.035156 506.941406 1000.671875 413.425781 746.113281 232.078125 C 645.246094 160.207031 568.636719 133.949219 511.890625 151.785156 C 444.253906 173.050781 416.078125 252.054688 388.828125 328.476562 L 386.847656 334.015625 C 369.925781 381.410156 343.605469 408.1875 308.660156 413.554688 C 280.125 417.929688 245.527344 408.105469 205.828125 384.324219 C 174.15625 365.339844 139.164062 337.476562 101.828125 301.496094 C 38.269531 240.265625 -10.703125 175.867188 -11.1875 175.222656 L -9.929688 174.277344 C -9.441406 174.925781 39.464844 239.242188 102.929688 300.378906 C 161.40625 356.714844 244.519531 421.832031 308.425781 411.980469 C 342.773438 406.691406 368.648438 380.277344 385.382812 333.464844 L 387.363281 327.921875 C 413.464844 254.730469 443.054688 171.761719 511.433594 150.257812 C 568.683594 132.265625 645.75 158.601562 747.039062 230.773438 C 1001.410156 411.996094 1178.648438 505.449219 1282.539062 551.945312 C 1395.101562 602.316406 1448.210938 609.917969 1448.730469 609.996094 L 1448.523438 611.554688 Z M 1448.492188 611.554688 " fill-opacity="1" fill-rule="nonzero"/><path fill="#3a2a79" d="M 1448.539062 591.328125 C 1447.644531 591.265625 1356.140625 583.789062 1148.414062 478.484375 C 1034.796875 421.359375 901.125 341.128906 751.117188 239.980469 C 717.902344 217.519531 685.730469 199.242188 655.492188 185.660156 C 595.675781 158.804688 547.480469 153.578125 508.144531 169.667969 C 446.410156 194.914062 418.011719 267.589844 390.5625 337.855469 L 388.703125 342.59375 C 374.082031 380.007812 353.382812 404.078125 327.21875 414.167969 C 299.453125 424.855469 264.855469 420.039062 224.371094 399.859375 C 110.34375 343.003906 -9.976562 195.371094 -11.171875 193.890625 L -9.945312 192.898438 C -8.75 194.378906 111.367188 341.742188 225.09375 398.457031 C 265.15625 418.449219 299.34375 423.234375 326.667969 412.703125 C 352.40625 402.785156 372.804688 379.003906 387.253906 342.027344 L 389.113281 337.289062 C 416.691406 266.707031 445.195312 193.71875 507.5625 168.21875 C 547.320312 151.957031 595.914062 157.199219 656.136719 184.226562 C 686.453125 197.84375 718.707031 216.164062 752 238.675781 C 901.960938 339.777344 1035.566406 419.976562 1149.121094 477.066406 C 1356.503906 582.199219 1447.753906 589.691406 1448.648438 589.753906 Z M 1448.539062 591.328125 " fill-opacity="1" fill-rule="nonzero"/><path fill="#3a2a79" d="M 1448.585938 571.117188 C 1447.738281 571.117188 1361.257812 569.480469 1154.820312 473.304688 C 1046.445312 422.808594 908.570312 344.875 756.121094 247.914062 C 724.089844 227.386719 691.867188 210.324219 660.339844 197.164062 C 583.039062 164.914062 523.492188 167.699219 478.300781 205.664062 C 438.507812 239.097656 414.972656 294.175781 392.214844 347.425781 L 390.59375 351.21875 C 375.355469 386.839844 354.484375 409.808594 328.527344 419.503906 C 300.570312 429.9375 265.769531 425.234375 225.109375 405.507812 C 108.425781 348.875 -9.976562 213.914062 -11.15625 212.558594 L -9.976562 211.519531 C -8.796875 212.875 109.398438 347.601562 225.800781 404.09375 C 266.050781 423.628906 300.429688 428.316406 327.976562 418.039062 C 353.507812 408.5 374.097656 385.816406 389.144531 350.621094 L 390.765625 346.828125 C 435.609375 241.886719 486.4375 122.949219 660.9375 195.734375 C 692.546875 208.925781 724.847656 226.035156 756.957031 246.605469 C 909.359375 343.523438 1047.152344 421.4375 1155.480469 471.886719 C 1361.527344 567.875 1447.753906 569.542969 1448.601562 569.558594 L 1448.601562 571.132812 Z M 1448.585938 571.117188 " fill-opacity="1" fill-rule="nonzero"/><path fill="#3a2a79" d="M 1445.972656 550.953125 C 1430.40625 550.953125 1345.832031 546.84375 1161.226562 468.125 C 1055.480469 423.027344 917.117188 349.628906 761.113281 255.847656 C 729.300781 236.722656 697.914062 221.296875 665.171875 208.671875 C 588.65625 179.191406 529.078125 182.890625 483.054688 219.957031 C 442.519531 252.621094 417.714844 305.730469 393.722656 357.089844 L 392.449219 359.847656 C 376.628906 393.6875 355.554688 415.566406 329.800781 424.871094 C 301.214844 435.179688 267.214844 430.695312 225.851562 411.160156 C 106.488281 354.777344 -9.976562 232.457031 -11.140625 231.230469 L -9.992188 230.140625 C -8.828125 231.371094 107.433594 353.472656 226.511719 409.710938 C 267.484375 429.058594 301.089844 433.527344 329.265625 423.375 C 354.609375 414.230469 375.402344 392.632812 391.03125 359.167969 L 392.324219 356.414062 C 439.5625 255.28125 493.09375 140.65625 665.753906 207.191406 C 698.589844 219.847656 730.054688 235.304688 761.945312 254.476562 C 917.890625 348.214844 1056.171875 421.597656 1161.871094 466.648438 C 1366.375 553.851562 1447.769531 549.363281 1448.554688 549.300781 L 1448.664062 550.875 C 1448.585938 550.875 1447.707031 550.9375 1445.988281 550.9375 Z M 1445.972656 550.953125 " fill-opacity="1" fill-rule="nonzero"/><path fill="#3a2a79" d="M 1436.8125 531.230469 C 1408.355469 531.230469 1326.675781 524.398438 1167.664062 462.933594 C 1067.113281 424.066406 928.277344 355.203125 766.148438 263.765625 C 735.34375 246.386719 703.910156 232.125 670.050781 220.164062 C 594.324219 193.402344 534.730469 198.015625 487.839844 234.234375 C 446.550781 266.140625 420.421875 317.347656 395.171875 366.851562 L 394.355469 368.441406 C 359.472656 436.800781 304.601562 452.605469 226.605469 416.765625 C 104.550781 360.679688 -9.960938 251 -11.109375 249.898438 L -10.023438 248.765625 C -8.890625 249.867188 105.449219 359.359375 227.234375 415.347656 C 304.316406 450.78125 358.511719 435.195312 392.921875 367.746094 L 393.738281 366.15625 C 443.433594 268.753906 499.753906 158.363281 670.554688 218.699219 C 704.492188 230.695312 736.023438 244.984375 766.90625 262.410156 C 928.972656 353.800781 1067.742188 422.652344 1168.214844 461.484375 C 1371.144531 539.917969 1447.722656 529.246094 1448.476562 529.136719 L 1448.714844 530.695312 C 1448.554688 530.726562 1444.746094 531.261719 1436.796875 531.261719 Z M 1436.8125 531.230469 " fill-opacity="1" fill-rule="nonzero"/><path fill="#3a2a79" d="M 1422.695312 512.375 C 1386.394531 512.375 1309.375 504.566406 1174.070312 457.738281 C 1077.878906 424.445312 942.320312 361.84375 771.140625 271.683594 C 740.886719 255.753906 710.300781 243.035156 674.886719 231.652344 C 599.960938 207.601562 540.300781 213.109375 492.527344 248.511719 C 450.4375 279.695312 422.972656 329.011719 396.402344 376.703125 L 396.195312 377.066406 C 359.929688 442.183594 304.679688 457.011719 227.3125 422.398438 C 102.585938 366.628906 -9.960938 269.558594 -11.078125 268.582031 L -10.039062 267.386719 C -8.921875 268.359375 103.449219 365.292969 227.960938 420.96875 C 304.441406 455.171875 359.03125 440.5625 394.828125 376.3125 L 395.03125 375.949219 C 421.679688 328.113281 449.226562 278.640625 491.601562 247.253906 C 539.8125 211.535156 599.925781 205.949219 675.371094 230.160156 C 710.882812 241.554688 741.546875 254.304688 771.878906 270.28125 C 942.980469 360.414062 1078.476562 422.964844 1174.589844 456.242188 C 1376.054688 525.972656 1447.707031 509.066406 1448.414062 508.894531 L 1448.808594 510.421875 C 1448.570312 510.484375 1440.574219 512.375 1422.710938 512.375 Z M 1422.695312 512.375 " fill-opacity="1" fill-rule="nonzero"/><path fill="#3a2a79" d="M 1404.90625 494.726562 C 1364.6875 494.726562 1293.886719 487.171875 1180.476562 452.558594 C 1089.257812 424.714844 957.003906 368.140625 776.144531 279.617188 C 738.097656 260.996094 704.632812 250.355469 679.734375 243.160156 C 513.875 195.292969 452.34375 296.441406 398.070312 385.691406 C 360.417969 447.585938 304.804688 461.453125 228.054688 428.035156 C 100.617188 372.597656 -9.945312 288.101562 -11.046875 287.25 L -10.085938 286.007812 C -8.984375 286.855469 101.417969 371.226562 228.667969 426.601562 C 304.585938 459.640625 359.550781 445.996094 396.714844 384.875 C 451.289062 295.152344 513.132812 193.449219 680.15625 241.648438 C 705.121094 248.859375 738.667969 259.515625 776.835938 278.199219 C 957.621094 366.691406 1089.808594 423.234375 1180.949219 451.046875 C 1380.601562 511.980469 1447.675781 488.949219 1448.335938 488.699219 L 1448.886719 490.179688 C 1448.601562 490.289062 1435.742188 494.726562 1404.921875 494.726562 Z M 1404.90625 494.726562 " fill-opacity="1" fill-rule="nonzero"/><path fill="#3a2a79" d="M 1384.820312 478.65625 C 1346.777344 478.65625 1283.277344 472.785156 1186.898438 447.363281 C 1100.058594 424.460938 974.917969 375.160156 781.148438 287.53125 C 744.316406 270.878906 710.191406 261.214844 684.582031 254.652344 C 520.609375 212.6875 456.5 309.175781 399.941406 394.300781 C 379.132812 425.625 353.066406 444.183594 322.449219 449.441406 C 295.488281 454.085938 264.839844 448.921875 228.792969 433.652344 C 98.632812 378.578125 -9.914062 306.65625 -11 305.933594 L -10.132812 304.628906 C -9.046875 305.351562 99.375 377.191406 229.375 432.238281 C 304.710938 464.144531 360.070312 451.457031 398.605469 393.453125 C 455.460938 307.886719 519.886719 210.90625 684.957031 253.140625 C 710.632812 259.703125 744.851562 269.398438 781.796875 286.101562 C 975.484375 373.683594 1100.542969 422.949219 1187.292969 445.835938 C 1385.261719 498.066406 1447.628906 468.820312 1448.242188 468.503906 L 1448.949219 469.90625 C 1448.320312 470.21875 1433.144531 477.585938 1393.148438 478.546875 C 1390.519531 478.609375 1387.75 478.640625 1384.820312 478.640625 Z M 1384.820312 478.65625 " fill-opacity="1" fill-rule="nonzero"/><path fill="#3a2a79" d="M 1362.582031 463.988281 C 1324.800781 463.988281 1269.820312 459.152344 1193.320312 442.183594 C 1097.789062 420.984375 961.460938 368.203125 786.15625 295.464844 C 750.675781 280.75 717.351562 272.390625 689.414062 266.15625 C 527.378906 230.015625 460.652344 321.878906 401.785156 402.929688 C 379.96875 432.960938 354.246094 449.960938 323.144531 454.871094 C 296.007812 459.167969 265.375 454.070312 229.5 439.304688 C 96.632812 384.589844 -9.882812 325.199219 -10.953125 324.601562 L -10.183594 323.234375 C -9.128906 323.832031 97.328125 383.171875 230.101562 437.855469 C 305.921875 469.070312 360.070312 457.691406 400.507812 402.015625 C 429.171875 362.554688 461.660156 317.816406 507.515625 288.636719 C 558.136719 256.414062 617.746094 248.558594 689.757812 264.628906 C 717.761719 270.878906 751.179688 279.253906 786.753906 294.019531 C 961.980469 366.707031 1098.230469 419.472656 1193.652344 440.644531 C 1389.90625 484.199219 1447.59375 448.703125 1448.164062 448.339844 L 1449.027344 449.664062 C 1448.445312 450.039062 1434.40625 458.949219 1395.761719 462.554688 C 1386.632812 463.402344 1375.628906 463.984375 1362.578125 463.984375 Z M 1362.582031 463.988281 " fill-opacity="1" fill-rule="nonzero"/><path fill="#3a2a79" d="M 305.417969 461.609375 C 282.878906 461.609375 258.101562 456.101562 230.242188 444.941406 C 94.621094 390.632812 -9.851562 343.757812 -10.890625 343.285156 L -10.246094 341.855469 C -9.207031 342.328125 95.234375 389.1875 230.824219 443.492188 C 306.082031 473.636719 360.605469 463.167969 402.414062 410.578125 C 430.699219 375.003906 465.894531 330.742188 512.992188 302.296875 C 564.402344 271.242188 623.789062 262.679688 694.5625 276.121094 C 722.609375 281.457031 755.570312 288.273438 791.726562 301.921875 C 964.058594 366.976562 1103.535156 418.117188 1200.011719 435.449219 C 1301.664062 453.691406 1363.714844 450.75 1397.855469 445.050781 C 1434.84375 438.894531 1447.957031 428.285156 1448.082031 428.175781 L 1449.089844 429.386719 C 1448.554688 429.828125 1435.664062 440.3125 1398.375 446.5625 C 1364.089844 452.308594 1301.789062 455.3125 1199.742188 436.992188 C 1103.125 419.644531 963.570312 368.472656 791.175781 303.382812 C 755.148438 289.785156 722.265625 282.96875 694.277344 277.648438 C 534.273438 247.269531 461.851562 338.359375 403.65625 411.539062 C 381.148438 439.839844 355.066406 455.785156 323.882812 460.289062 C 317.886719 461.152344 311.730469 461.59375 305.402344 461.59375 Z M 305.417969 461.609375 " fill-opacity="1" fill-rule="nonzero"/><path fill="#3a2a79" d="M 306.882812 466.882812 C 284.027344 466.882812 259.015625 461.5 230.964844 450.574219 C 92.621094 396.710938 -9.789062 362.300781 -10.8125 361.957031 L -10.308594 360.460938 C -9.285156 360.804688 93.15625 395.214844 231.546875 449.113281 C 305.214844 477.808594 361.738281 468 404.332031 419.140625 C 465.078125 349.472656 540.664062 262.757812 699.378906 287.597656 C 729.347656 292.285156 761.570312 297.859375 796.703125 309.820312 L 821.886719 318.402344 C 971.472656 369.335938 1112.773438 417.457031 1206.386719 430.238281 C 1307.125 443.996094 1367.476562 437.210938 1400.359375 429.105469 C 1435.964844 420.320312 1447.910156 408.136719 1448.035156 408.011719 L 1449.183594 409.097656 C 1448.699219 409.601562 1436.9375 421.660156 1401.003906 430.570312 C 1367.980469 438.753906 1307.363281 445.617188 1206.179688 431.796875 C 1112.429688 419 971.0625 370.847656 821.398438 319.878906 L 796.214844 311.300781 C 761.191406 299.386719 729.0625 293.828125 699.15625 289.140625 C 541.292969 264.425781 466.019531 350.777344 405.546875 420.164062 C 382.375 446.734375 355.914062 461.65625 324.671875 465.75 C 318.894531 466.503906 312.976562 466.882812 306.914062 466.882812 Z M 306.882812 466.882812 " fill-opacity="1" fill-rule="nonzero"/><path fill="#3a2a79" d="M 308.457031 472.046875 C 285.082031 472.046875 259.550781 466.757812 231.707031 456.226562 C 90.605469 402.800781 -9.742188 380.84375 -10.734375 380.625 L -10.402344 379.082031 C -9.410156 379.300781 91.03125 401.277344 232.257812 454.730469 C 305.386719 482.402344 362.289062 473.574219 406.222656 427.703125 C 442.207031 390.132812 478.316406 354.335938 524.105469 329.449219 C 577.089844 300.644531 635.988281 290.710938 704.164062 299.085938 C 735.992188 302.992188 767.410156 307.367188 801.644531 317.722656 C 822.4375 324.019531 843.042969 330.316406 863.347656 336.519531 C 998.90625 377.933594 1126.941406 417.046875 1212.730469 425.042969 C 1403.945312 442.847656 1447.546875 388.414062 1447.972656 387.863281 L 1449.234375 388.808594 C 1448.792969 389.390625 1438.167969 403.023438 1403.585938 414.59375 C 1371.804688 425.21875 1312.871094 435.9375 1212.585938 426.601562 C 1126.644531 418.605469 998.53125 379.457031 862.890625 338.011719 C 842.585938 331.8125 821.980469 325.515625 801.1875 319.21875 C 767.078125 308.894531 735.738281 304.53125 703.972656 300.628906 C 548.390625 281.550781 470.191406 363.167969 407.371094 428.773438 C 379.714844 457.644531 347.007812 472.015625 308.457031 472.015625 Z M 308.457031 472.046875 " fill-opacity="1" fill-rule="nonzero"/><path fill="#3a2a79" d="M 310.265625 477.398438 C 286.46875 477.398438 260.589844 472.203125 232.445312 461.84375 C 88.574219 408.925781 -9.664062 399.386719 -10.636719 399.292969 L -10.496094 397.71875 C -9.519531 397.8125 88.90625 407.367188 232.980469 460.367188 C 305.5625 487.0625 362.855469 479.175781 408.144531 436.265625 C 445.464844 400.882812 482.863281 367.132812 529.753906 342.957031 C 583.527344 315.238281 642.144531 304.644531 708.980469 310.5625 C 742.570312 313.535156 773.105469 316.730469 806.617188 325.625 C 836.574219 333.574219 866.324219 341.664062 895.097656 349.503906 C 1026.042969 385.140625 1139.140625 415.914062 1219.105469 419.832031 C 1318.019531 424.683594 1374.984375 410.230469 1405.347656 397.261719 C 1438.214844 383.222656 1447.847656 367.859375 1447.925781 367.699219 L 1449.28125 368.519531 C 1448.886719 369.164062 1439.410156 384.386719 1406.183594 398.617188 C 1375.660156 411.695312 1318.394531 426.289062 1219.023438 421.40625 C 1138.90625 417.472656 1025.730469 386.683594 894.6875 351.015625 C 865.914062 343.191406 836.164062 335.085938 806.226562 327.152344 C 772.824219 318.289062 742.363281 315.109375 708.835938 312.136719 C 555.726562 298.566406 474.488281 375.554688 409.230469 437.398438 C 381.070312 464.082031 348.34375 477.382812 310.265625 477.382812 Z M 310.265625 477.398438 " fill-opacity="1" fill-rule="nonzero"/><path fill="#3a2a79" d="M 312.25 482.78125 C 287.976562 482.78125 261.691406 477.679688 233.167969 467.480469 C 86.558594 415.097656 -9.582031 417.914062 -10.542969 417.945312 L -10.605469 416.371094 C -9.648438 416.339844 86.75 413.488281 233.6875 466 C 305.734375 491.753906 363.421875 484.828125 410.046875 444.84375 C 451.871094 408.988281 491.757812 383.441406 535.609375 364.457031 C 586.59375 342.375 644.835938 328.523438 713.652344 322.066406 C 744.742188 319.15625 779.074219 326.144531 811.578125 333.542969 C 842.097656 340.5 872.476562 347.617188 901.867188 354.476562 C 1027.507812 383.882812 1146.175781 411.664062 1225.480469 414.640625 C 1323.402344 418.308594 1378.683594 399.859375 1407.804688 383.742188 C 1439.300781 366.300781 1447.816406 347.757812 1447.894531 347.582031 L 1449.328125 348.214844 C 1448.980469 348.984375 1440.605469 367.324219 1408.730469 385.03125 C 1379.4375 401.292969 1323.84375 419.898438 1225.414062 416.230469 C 1145.972656 413.253906 1027.222656 385.457031 901.503906 356.019531 C 872.132812 349.140625 841.75 342.027344 811.230469 335.085938 C 778.867188 327.71875 744.664062 320.746094 713.796875 323.640625 C 555.949219 338.421875 475.023438 391.203125 411.070312 446.042969 C 382.46875 470.566406 349.777344 482.78125 312.234375 482.78125 Z M 312.25 482.78125 " fill-opacity="1" fill-rule="nonzero"/><path fill="#3a2a79" d="M 314.4375 488.195312 C 289.632812 488.195312 262.855469 483.160156 233.910156 473.117188 C 84.515625 421.28125 -9.503906 436.425781 -10.433594 436.582031 L -10.703125 435.023438 C -9.773438 434.867188 84.609375 419.644531 234.414062 471.621094 C 305.921875 496.429688 363.992188 490.476562 411.96875 453.410156 C 499.078125 386.085938 590.734375 350.242188 718.453125 333.574219 C 749.449219 329.527344 783.90625 335.257812 816.535156 341.460938 C 859.097656 349.550781 901.078125 358.320312 941.675781 366.804688 C 1058.785156 391.265625 1159.917969 412.402344 1231.804688 409.460938 C 1328.878906 405.507812 1382.476562 383.378906 1410.335938 365.527344 C 1440.480469 346.214844 1447.800781 327.59375 1447.878906 327.40625 L 1449.359375 327.957031 C 1449.058594 328.726562 1441.851562 347.144531 1411.359375 366.742188 C 1383.34375 384.746094 1329.445312 407.050781 1231.886719 411.035156 C 1159.792969 413.945312 1058.578125 392.839844 941.375 368.347656 C 900.78125 359.863281 858.816406 351.09375 816.269531 343.003906 C 783.746094 336.816406 749.433594 331.117188 718.675781 335.132812 C 591.253906 351.769531 499.816406 387.519531 412.945312 454.652344 C 383.980469 477.035156 351.382812 488.195312 314.453125 488.195312 Z M 314.4375 488.195312 " fill-opacity="1" fill-rule="nonzero"/><path fill="#3a2a79" d="M 316.863281 493.640625 C 291.425781 493.640625 264.101562 488.667969 234.632812 478.75 C 82.484375 427.5 -9.425781 454.917969 -10.324219 455.203125 L -10.796875 453.691406 C -9.882812 453.410156 82.453125 425.832031 235.136719 477.253906 C 306.097656 501.148438 364.558594 496.160156 413.886719 461.972656 C 500.980469 401.605469 593.503906 366.644531 723.257812 345.066406 C 754.203125 339.917969 788.753906 344.371094 821.507812 349.378906 C 868.574219 356.570312 914.914062 364.835938 959.742188 372.847656 C 1072.132812 392.917969 1169.191406 410.246094 1238.164062 404.28125 C 1334.324219 395.953125 1386.222656 370 1412.839844 349.691406 C 1441.628906 327.71875 1447.800781 307.460938 1447.863281 307.257812 L 1449.375 307.695312 C 1449.121094 308.53125 1443.0625 328.554688 1413.941406 350.84375 C 1387.167969 371.320312 1334.972656 397.496094 1238.308594 405.855469 C 1169.125 411.851562 1071.976562 394.492188 959.476562 374.40625 C 914.664062 366.410156 868.320312 358.128906 821.273438 350.953125 C 788.660156 345.960938 754.25 341.539062 723.523438 346.640625 C 594.023438 368.1875 501.691406 403.070312 414.785156 463.292969 C 385.539062 483.550781 353.128906 493.65625 316.863281 493.65625 Z M 316.863281 493.640625 " fill-opacity="1" fill-rule="nonzero"/><path fill="#3a2a79" d="M 319.570312 499.121094 C 293.410156 499.121094 265.4375 494.191406 235.375 484.371094 C 80.359375 433.734375 -9.347656 473.398438 -10.246094 473.808594 L -10.90625 472.375 C -10.683594 472.28125 11.964844 462.082031 53.535156 458.335938 C 91.847656 454.871094 154.574219 456.335938 235.84375 482.890625 C 306.253906 505.902344 365.109375 501.859375 415.792969 470.550781 C 500.855469 418.007812 597.15625 382.859375 728.042969 356.554688 C 759.035156 350.339844 793.648438 353.503906 826.453125 357.28125 C 877.214844 363.121094 927.191406 370.566406 975.515625 377.773438 C 1084.144531 393.957031 1177.957031 407.933594 1244.507812 399.085938 C 1339.757812 386.433594 1389.96875 356.636719 1415.328125 333.859375 C 1442.761719 309.222656 1447.785156 287.296875 1447.832031 287.09375 L 1449.375 287.421875 C 1449.328125 287.644531 1444.242188 309.964844 1416.507812 334.929688 C 1390.992188 357.878906 1340.480469 387.925781 1244.730469 400.644531 C 1177.957031 409.523438 1084.046875 395.53125 975.296875 379.332031 C 926.988281 372.140625 877.027344 364.695312 826.277344 358.855469 C 793.601562 355.09375 759.128906 351.929688 728.371094 358.113281 C 597.675781 384.371094 501.53125 419.457031 416.628906 471.902344 C 387.207031 490.070312 355.066406 499.136719 319.570312 499.136719 Z M 319.570312 499.121094 " fill-opacity="1" fill-rule="nonzero"/><path fill="#3a2a79" d="M 322.199219 504.394531 C 295.109375 504.394531 266.367188 499.609375 236.097656 490.019531 C 153.617188 463.890625 91.015625 465.953125 53.03125 472.28125 C 11.933594 479.128906 -9.929688 492.289062 -10.148438 492.429688 L -10.96875 491.09375 C -10.75 490.964844 11.367188 477.632812 52.78125 470.738281 C 90.9375 464.378906 153.804688 462.300781 236.585938 488.527344 C 305.449219 510.34375 366.382812 507.179688 417.730469 479.128906 C 502.808594 432.628906 599.234375 379.945312 732.984375 368.046875 C 762.496094 365.417969 795.945312 362.441406 831.441406 365.199219 C 885.304688 369.367188 938.335938 375.726562 989.636719 381.882812 C 1095.207031 394.554688 1186.378906 405.492188 1250.882812 393.878906 C 1345.234375 376.894531 1393.761719 343.253906 1417.863281 318.023438 C 1443.945312 290.710938 1447.800781 267.117188 1447.847656 266.882812 L 1449.40625 267.117188 C 1449.375 267.355469 1445.46875 291.34375 1419.105469 319 C 1394.847656 344.4375 1346.019531 378.339844 1251.167969 395.417969 C 1186.425781 407.066406 1095.144531 396.113281 989.445312 383.441406 C 938.179688 377.285156 885.148438 370.925781 831.332031 366.757812 C 795.976562 364.015625 762.59375 366.992188 733.140625 369.605469 C 599.722656 381.472656 503.453125 434.078125 418.5 480.5 C 389.363281 496.414062 357.175781 504.394531 322.230469 504.394531 Z M 322.199219 504.394531 " fill-opacity="1" fill-rule="nonzero"/><path fill="#3a2a79" d="M -10.085938 511.003906 L -11.046875 509.761719 C -10.828125 509.601562 10.753906 493.167969 51.992188 483.109375 C 89.992188 473.839844 153.003906 468.234375 237.292969 494.128906 C 305.578125 515.097656 366.917969 512.925781 419.632812 487.675781 L 428.085938 483.628906 C 518.578125 440.25 612.171875 395.386719 737.769531 379.523438 C 771.894531 375.207031 802.855469 371.761719 836.382812 373.097656 C 892.863281 375.351562 948.535156 380.449219 1002.371094 385.378906 C 1105.457031 394.820312 1194.484375 402.976562 1257.226562 388.683594 C 1350.679688 367.417969 1397.523438 329.921875 1420.378906 302.234375 C 1445.109375 272.25 1447.816406 246.96875 1447.832031 246.71875 L 1449.40625 246.875 C 1449.375 247.125 1446.667969 272.800781 1421.6875 303.148438 C 1398.6875 331.070312 1351.5625 368.847656 1257.589844 390.242188 C 1194.59375 404.582031 1105.457031 396.410156 1002.242188 386.96875 C 948.425781 382.039062 892.785156 376.941406 836.335938 374.6875 C 802.949219 373.351562 772.035156 376.8125 737.988281 381.113281 C 612.644531 396.945312 519.179688 441.746094 428.792969 485.078125 L 420.34375 489.125 C 367.265625 514.546875 305.53125 516.75 236.851562 495.65625 C 152.890625 469.875 90.195312 475.445312 52.386719 484.667969 C 11.476562 494.632812 -9.851562 510.863281 -10.054688 511.035156 Z M -10.085938 511.003906 " fill-opacity="1" fill-rule="nonzero"/><path fill="#3a2a79" d="M -10.023438 529.609375 L -11.109375 528.460938 C -10.90625 528.269531 10.140625 508.738281 51.207031 495.53125 C 89.0625 483.363281 152.183594 474.234375 238 499.765625 C 305.65625 519.898438 367.421875 518.714844 421.554688 496.269531 C 430.558594 492.539062 439.609375 488.746094 448.738281 484.921875 C 536.917969 448.007812 628.101562 409.839844 742.554688 391.027344 C 771.359375 386.289062 805.628906 381.394531 841.3125 381.015625 C 903.847656 380.339844 965.316406 384.324219 1024.769531 388.164062 C 1121.242188 394.398438 1204.558594 399.796875 1263.554688 383.503906 C 1356.125 357.957031 1401.300781 316.636719 1422.882812 286.460938 C 1446.257812 253.800781 1447.785156 226.804688 1447.800781 226.539062 L 1449.375 226.617188 C 1449.375 226.882812 1447.832031 254.257812 1424.238281 287.28125 C 1402.515625 317.691406 1357.070312 359.34375 1263.980469 385.03125 C 1204.734375 401.371094 1121.289062 395.988281 1024.675781 389.738281 C 965.253906 385.898438 903.800781 381.914062 841.328125 382.589844 C 805.738281 382.96875 771.546875 387.847656 742.804688 392.585938 C 628.542969 411.363281 537.4375 449.503906 449.335938 486.371094 C 440.207031 490.195312 431.15625 493.988281 422.152344 497.71875 C 367.671875 520.304688 305.578125 521.503906 237.5625 501.277344 C 152.183594 475.886719 89.410156 484.9375 51.789062 497.011719 C 11.035156 510.089844 -9.820312 529.421875 -10.023438 529.609375 Z M -10.023438 529.609375 " fill-opacity="1" fill-rule="nonzero"/><path fill="#3a2a79" d="M -9.976562 548.199219 L -11.15625 547.144531 C -10.953125 546.925781 9.542969 524.289062 50.417969 507.964844 C 88.117188 492.902344 151.378906 480.246094 238.710938 505.382812 C 305.71875 524.683594 367.878906 524.492188 423.457031 504.832031 C 442.867188 497.96875 462.085938 490.917969 482.453125 483.457031 C 564.039062 453.550781 648.394531 422.636719 747.339844 402.519531 C 776.378906 396.617188 810.363281 390.210938 846.269531 388.917969 C 906.949219 386.761719 966.921875 388.917969 1024.941406 391.042969 C 1124.265625 394.648438 1210.050781 397.765625 1269.914062 378.308594 C 1361.636719 348.511719 1405.113281 303.335938 1425.433594 270.675781 C 1447.4375 235.320312 1447.800781 206.625 1447.800781 206.328125 L 1449.375 206.328125 C 1449.375 206.625 1449.042969 235.683594 1426.832031 271.398438 C 1406.371094 304.3125 1362.628906 349.820312 1270.402344 379.789062 C 1210.273438 399.324219 1124.359375 396.207031 1024.894531 392.585938 C 966.921875 390.476562 906.964844 388.304688 846.347656 390.476562 C 810.554688 391.753906 776.648438 398.144531 747.667969 404.046875 C 648.835938 424.148438 564.542969 455.046875 483.003906 484.921875 C 462.636719 492.382812 443.402344 499.433594 423.992188 506.296875 C 368.097656 526.066406 305.609375 526.273438 238.285156 506.878906 C 151.429688 481.867188 88.542969 494.429688 51.097656 509.367188 C 10.515625 525.546875 -9.789062 547.945312 -9.976562 548.167969 Z M -9.976562 548.199219 " fill-opacity="1" fill-rule="nonzero"/><path fill="#3a2a79" d="M -9.945312 566.804688 L -11.1875 565.84375 C -10.984375 565.59375 8.957031 539.886719 49.648438 520.417969 C 87.175781 502.472656 150.578125 486.257812 239.433594 511.019531 C 305.734375 529.484375 368.289062 530.285156 425.378906 513.414062 C 461.628906 502.691406 498.007812 490.777344 536.507812 478.152344 C 604.554688 455.847656 674.933594 432.789062 752.140625 414.007812 C 780.960938 406.988281 815.277344 399.480469 851.226562 396.835938 C 913.59375 392.257812 975.390625 392.839844 1035.140625 393.390625 C 1133.050781 394.300781 1217.625 395.089844 1276.257812 373.132812 C 1367.191406 339.066406 1408.984375 290.003906 1428.046875 254.839844 C 1448.648438 216.792969 1447.800781 186.460938 1447.785156 186.164062 L 1449.359375 186.101562 C 1449.359375 186.414062 1450.238281 217.171875 1429.429688 255.59375 C 1410.257812 290.996094 1368.199219 340.390625 1276.808594 374.609375 C 1217.890625 396.679688 1133.207031 395.890625 1035.125 394.980469 C 975.40625 394.429688 913.640625 393.847656 851.339844 398.425781 C 815.496094 401.054688 781.261719 408.5625 752.503906 415.566406 C 675.355469 434.332031 605.027344 457.375 536.996094 479.679688 C 498.480469 492.304688 462.101562 504.234375 425.820312 514.953125 C 368.445312 531.90625 305.59375 531.105469 238.992188 512.5625 C 150.640625 487.960938 87.664062 504.015625 50.386719 521.832031 C 9.996094 541.132812 -9.773438 566.570312 -9.960938 566.835938 Z M -9.945312 566.804688 " fill-opacity="1" fill-rule="nonzero"/><path fill="#3a2a79" d="M -9.914062 585.410156 L -11.21875 584.542969 C -11.03125 584.261719 8.359375 555.488281 48.878906 532.898438 C 86.246094 512.058594 149.773438 492.335938 240.160156 516.65625 C 305.671875 534.285156 368.648438 536.09375 427.316406 522.007812 C 490.386719 506.863281 554.5 487.015625 622.375 466 C 665.785156 452.558594 710.664062 438.675781 756.941406 425.53125 C 795.820312 414.496094 826.421875 408.089844 856.203125 404.769531 C 920.046875 397.65625 983.480469 396.570312 1044.824219 395.515625 C 1141.566406 393.847656 1225.101562 392.414062 1282.648438 367.953125 C 1372.703125 329.6875 1412.824219 276.796875 1430.613281 239.175781 C 1449.878906 198.425781 1447.847656 166.28125 1447.832031 165.96875 L 1449.40625 165.859375 C 1449.4375 166.1875 1451.5 198.660156 1432.089844 239.777344 C 1414.195312 277.679688 1373.851562 330.929688 1283.277344 369.417969 C 1225.464844 393.988281 1141.769531 395.417969 1044.871094 397.105469 C 983.574219 398.160156 920.1875 399.261719 856.40625 406.359375 C 826.71875 409.664062 796.199219 416.054688 757.414062 427.074219 C 711.152344 440.21875 666.273438 454.101562 622.878906 467.542969 C 554.972656 488.558594 490.828125 508.421875 427.707031 523.582031 C 368.777344 537.730469 305.5625 535.921875 239.78125 518.214844 C 149.933594 494.035156 86.84375 513.601562 49.742188 534.269531 C 9.511719 556.636719 -9.726562 585.125 -9.914062 585.410156 Z M -9.914062 585.410156 " fill-opacity="1" fill-rule="nonzero"/><path fill="#3a2a79" d="M -9.882812 604.015625 L -11.238281 603.230469 C -11.046875 602.914062 7.777344 571.085938 48.121094 545.382812 C 85.332031 521.660156 148.972656 498.394531 240.898438 522.289062 C 305.53125 539.085938 368.902344 541.886719 429.25 530.601562 C 535.863281 510.65625 645.007812 475.082031 760.578125 437.417969 L 761.757812 437.023438 C 797.960938 425.21875 830.480469 417.269531 861.175781 412.6875 C 926.34375 402.960938 991.257812 400.140625 1054.03125 397.417969 C 1149.78125 393.261719 1232.484375 389.675781 1289.023438 362.773438 C 1378.289062 320.289062 1416.710938 263.542969 1433.222656 223.4375 C 1451.121094 179.976562 1447.863281 146.101562 1447.832031 145.773438 L 1449.40625 145.613281 C 1449.4375 145.960938 1452.726562 180.148438 1434.71875 223.957031 C 1418.113281 264.363281 1379.46875 321.484375 1289.699219 364.207031 C 1232.875 391.25 1150.035156 394.835938 1054.109375 399.007812 C 991.367188 401.730469 926.5 404.550781 861.425781 414.261719 C 830.828125 418.828125 798.386719 426.773438 762.261719 438.535156 L 761.082031 438.925781 C 645.464844 476.609375 536.273438 512.183594 429.566406 532.160156 C 368.980469 543.492188 305.386719 540.691406 240.519531 523.832031 C 149.191406 500.078125 85.992188 523.15625 49.050781 546.6875 C 8.976562 572.15625 -9.695312 603.699219 -9.882812 604.015625 Z M -9.882812 604.015625 " fill-opacity="1" fill-rule="nonzero"/><path fill="#3a2a79" d="M -9.867188 622.621094 L -11.269531 621.898438 C -11.09375 621.550781 7.195312 586.683594 47.335938 557.863281 C 84.371094 531.261719 148.152344 504.472656 241.605469 527.910156 C 305.230469 543.871094 368.996094 547.648438 431.171875 539.179688 C 528.230469 525.941406 634.792969 497.136719 766.558594 448.527344 C 800.9375 435.84375 833.519531 426.710938 866.132812 420.605469 C 932.449219 408.203125 998.734375 403.605469 1062.828125 399.183594 C 1157.777344 392.617188 1239.769531 386.9375 1295.367188 357.59375 C 1383.863281 310.890625 1420.601562 250.304688 1435.835938 207.695312 C 1452.347656 161.527344 1447.878906 125.9375 1447.832031 125.578125 L 1449.390625 125.371094 C 1449.4375 125.734375 1453.953125 161.640625 1437.347656 208.152344 C 1422.03125 251.046875 1385.089844 312.042969 1296.105469 358.996094 C 1240.210938 388.492188 1158.0625 394.175781 1062.941406 400.757812 C 998.890625 405.195312 932.65625 409.777344 866.417969 422.164062 C 833.882812 428.253906 801.394531 437.367188 767.09375 450.007812 C 635.21875 498.648438 528.542969 527.484375 431.375 540.738281 C 369.011719 549.253906 305.042969 545.445312 241.230469 529.4375 C 148.40625 506.15625 85.082031 532.710938 48.328125 559.109375 C 8.457031 587.707031 -9.695312 622.273438 -9.867188 622.621094 Z M -9.867188 622.621094 " fill-opacity="1" fill-rule="nonzero"/><path fill="#3a2a79" d="M -9.851562 641.242188 L -11.285156 640.582031 C -11.109375 640.203125 6.613281 602.316406 46.5625 570.378906 C 83.445312 540.894531 147.335938 510.578125 242.316406 533.542969 C 304.710938 548.625 368.886719 553.410156 433.078125 547.773438 C 539.167969 538.441406 652.972656 508.925781 771.34375 460.035156 C 803.535156 446.734375 837.078125 436.140625 871.078125 428.539062 C 938.605469 413.253906 1006.335938 406.863281 1071.847656 400.675781 C 1165.882812 391.800781 1247.089844 384.117188 1301.726562 352.433594 C 1389.496094 301.496094 1424.550781 237.019531 1438.496094 191.894531 C 1453.59375 143.035156 1447.894531 105.757812 1447.832031 105.398438 L 1449.390625 105.144531 C 1449.453125 105.523438 1455.214844 143.144531 1440.007812 192.347656 C 1425.984375 237.746094 1390.738281 302.597656 1302.527344 353.785156 C 1247.609375 385.660156 1166.230469 393.34375 1072.007812 402.234375 C 1006.558594 408.421875 938.871094 414.8125 871.4375 430.066406 C 837.519531 437.652344 804.054688 448.230469 771.957031 461.484375 C 653.445312 510.4375 539.484375 539.984375 433.234375 549.332031 C 368.886719 555 304.523438 550.199219 241.96875 535.070312 C 147.632812 512.261719 84.214844 542.328125 47.617188 571.574219 C 7.921875 603.277344 -9.679688 640.863281 -9.851562 641.242188 Z M -9.851562 641.242188 " fill-opacity="1" fill-rule="nonzero"/><g clip-path="url(#99660ae7c9)"><path fill="#3a2a79" d="M -9.835938 659.863281 L -11.285156 659.265625 C -11.109375 658.855469 6.046875 617.945312 45.808594 582.90625 C 69.167969 562.320312 95.644531 547.742188 124.496094 539.589844 C 160.558594 529.390625 200.445312 529.261719 243.039062 539.179688 C 407.921875 577.554688 597.25 553.535156 776.144531 471.542969 C 873.34375 426.996094 982.882812 413.882812 1079.515625 402.3125 C 1173.234375 391.089844 1254.15625 381.410156 1308.085938 347.238281 C 1395.101562 292.113281 1428.453125 223.800781 1441.109375 176.199219 C 1454.835938 124.617188 1447.894531 85.5625 1447.816406 85.171875 L 1449.359375 84.886719 C 1449.4375 85.28125 1456.441406 124.617188 1442.636719 176.53125 C 1429.917969 224.414062 1396.375 293.136719 1308.902344 348.558594 C 1254.675781 382.90625 1173.582031 392.617188 1079.671875 403.855469 C 983.152344 415.410156 873.753906 428.507812 776.773438 472.957031 C 597.566406 555.09375 407.875 579.144531 242.660156 540.691406 C 146.832031 518.386719 83.285156 551.945312 46.863281 584.023438 C 7.386719 618.84375 -9.664062 659.453125 -9.835938 659.863281 Z M -9.835938 659.863281 " fill-opacity="1" fill-rule="nonzero"/></g><path fill="#3a2a79" d="M 891.289062 669.039062 C 839.074219 669.039062 773.6875 640.644531 692.890625 583.066406 C 438.507812 401.84375 261.28125 308.390625 157.378906 261.90625 C 44.816406 211.535156 -8.277344 203.933594 -8.8125 203.855469 L -8.609375 202.296875 C -8.089844 202.359375 45.148438 209.980469 157.867188 260.394531 C 261.847656 306.910156 439.214844 400.425781 693.773438 581.773438 C 794.640625 653.644531 871.25 679.902344 927.996094 662.066406 C 995.632812 640.800781 1023.808594 561.800781 1051.054688 485.378906 L 1053.039062 479.835938 C 1069.960938 432.441406 1096.277344 405.667969 1131.222656 400.300781 C 1159.761719 395.90625 1194.359375 405.746094 1234.058594 429.53125 C 1265.726562 448.511719 1300.71875 476.375 1338.054688 512.359375 C 1401.601562 573.589844 1450.570312 637.984375 1451.058594 638.628906 L 1449.800781 639.574219 C 1449.3125 638.929688 1400.40625 574.613281 1336.9375 513.476562 C 1278.460938 457.140625 1195.351562 392.019531 1131.445312 401.875 C 1097.097656 407.164062 1071.21875 433.574219 1054.488281 480.386719 L 1052.503906 485.929688 C 1026.40625 559.125 996.8125 642.09375 928.4375 663.578125 C 916.851562 667.214844 904.460938 669.039062 891.226562 669.039062 Z M 891.289062 669.039062 " fill-opacity="1" fill-rule="nonzero"/><path fill="#3a2a79" d="M 883.433594 654.828125 C 854.265625 654.828125 821.273438 646.453125 783.761719 629.609375 C 753.429688 615.996094 721.195312 597.671875 687.902344 575.164062 C 537.941406 474.058594 404.332031 393.847656 290.78125 336.769531 C 83.398438 231.636719 -7.851562 224.144531 -8.75 224.082031 L -8.640625 222.507812 C -7.742188 222.570312 83.757812 230.046875 291.503906 335.351562 C 405.121094 392.460938 538.789062 472.707031 688.800781 573.839844 C 722.011719 596.300781 754.1875 614.578125 784.425781 628.160156 C 844.238281 655 892.421875 660.242188 931.773438 644.15625 C 993.507812 618.90625 1021.902344 546.230469 1049.355469 475.964844 L 1051.199219 471.226562 C 1065.820312 433.8125 1086.519531 409.726562 1112.679688 399.652344 C 1140.449219 388.964844 1175.046875 393.765625 1215.53125 413.960938 C 1329.570312 470.832031 1449.878906 618.464844 1451.089844 619.945312 L 1449.863281 620.9375 C 1448.664062 619.457031 1328.546875 472.09375 1214.820312 415.378906 C 1174.746094 395.386719 1140.574219 390.601562 1113.246094 401.132812 C 1087.511719 411.050781 1067.113281 434.835938 1052.660156 471.808594 L 1050.804688 476.546875 C 1023.226562 547.128906 994.71875 620.117188 932.355469 645.617188 C 917.355469 651.757812 901.09375 654.828125 883.433594 654.828125 Z M 883.433594 654.828125 " fill-opacity="1" fill-rule="nonzero"/><path fill="#3a2a79" d="M 875.34375 640.535156 C 848.125 640.535156 816.394531 633.75 778.960938 618.121094 C 747.355469 604.929688 715.054688 587.820312 682.945312 567.246094 C 530.558594 470.328125 392.75 392.429688 284.421875 341.964844 C 78.359375 245.992188 -7.851562 244.308594 -8.703125 244.308594 L -8.703125 242.734375 C -7.835938 242.734375 78.628906 244.371094 285.082031 340.546875 C 393.472656 391.042969 531.34375 468.976562 683.777344 565.9375 C 715.8125 586.464844 748.03125 603.527344 779.558594 616.6875 C 856.863281 648.941406 916.410156 646.152344 961.601562 608.1875 C 1001.394531 574.753906 1024.925781 519.675781 1047.6875 466.425781 L 1049.308594 462.632812 C 1064.546875 427.011719 1085.417969 404.046875 1111.375 394.347656 C 1139.328125 383.914062 1174.132812 388.621094 1214.789062 408.34375 C 1331.476562 464.976562 1449.878906 599.9375 1451.058594 601.292969 L 1449.878906 602.332031 C 1448.699219 600.976562 1330.5 466.253906 1214.097656 409.757812 C 1173.847656 390.226562 1139.472656 385.535156 1111.925781 395.8125 C 1086.394531 405.351562 1065.804688 428.035156 1050.757812 463.230469 L 1049.136719 467.023438 C 1013.90625 549.457031 974.980469 640.519531 875.34375 640.535156 Z M 875.34375 640.535156 " fill-opacity="1" fill-rule="nonzero"/><path fill="#3a2a79" d="M 866.890625 626.398438 C 840.398438 626.398438 809.8125 620.386719 774.160156 606.644531 C 741.328125 593.988281 709.859375 578.53125 677.984375 559.359375 C 522.042969 465.625 383.761719 392.257812 278.0625 347.191406 C 73.542969 259.972656 -7.851562 264.457031 -8.640625 264.519531 L -8.75 262.945312 C -7.945312 262.882812 73.714844 258.335938 278.675781 345.726562 C 384.4375 390.824219 522.796875 464.222656 678.789062 558.003906 C 710.601562 577.128906 741.988281 592.554688 774.726562 605.179688 C 851.242188 634.664062 910.820312 630.964844 956.847656 593.894531 C 997.378906 561.230469 1022.1875 508.125 1046.175781 456.761719 L 1047.453125 454.023438 C 1063.269531 420.179688 1084.347656 398.300781 1110.097656 388.996094 C 1138.683594 378.6875 1172.683594 383.171875 1214.050781 402.707031 C 1333.398438 459.074219 1449.878906 581.394531 1451.027344 582.625 L 1449.878906 583.710938 C 1448.714844 582.480469 1332.453125 460.382812 1213.375 404.140625 C 1172.402344 384.796875 1138.792969 380.324219 1110.617188 390.476562 C 1085.277344 399.621094 1064.484375 421.21875 1048.851562 454.683594 L 1047.578125 457.421875 C 1010.097656 537.667969 968.652344 626.414062 866.875 626.414062 Z M 866.890625 626.398438 " fill-opacity="1" fill-rule="nonzero"/><path fill="#3a2a79" d="M 858.074219 612.34375 C 832.417969 612.34375 803.125 607.085938 769.34375 595.152344 C 735.40625 583.160156 703.894531 568.867188 672.996094 551.441406 C 510.929688 460.050781 372.160156 391.203125 271.6875 352.367188 C 68.757812 273.964844 -7.820312 284.621094 -8.578125 284.730469 L -8.8125 283.171875 C -8.058594 283.046875 68.804688 272.28125 272.253906 350.90625 C 372.804688 389.769531 511.636719 458.632812 673.765625 550.070312 C 704.570312 567.449219 736.007812 581.710938 769.863281 593.675781 C 845.59375 620.433594 905.203125 615.820312 952.078125 579.601562 C 993.367188 547.695312 1019.496094 496.492188 1044.742188 446.988281 L 1045.5625 445.398438 C 1080.445312 377.035156 1135.316406 361.230469 1213.3125 397.074219 C 1335.332031 453.15625 1449.863281 562.839844 1450.996094 563.941406 L 1449.910156 565.074219 C 1448.777344 563.972656 1334.4375 454.480469 1212.648438 398.488281 C 1135.566406 363.058594 1081.371094 378.640625 1046.964844 446.089844 L 1046.144531 447.679688 C 1006.289062 525.816406 962.152344 612.328125 858.058594 612.328125 Z M 858.074219 612.34375 " fill-opacity="1" fill-rule="nonzero"/><path fill="#3a2a79" d="M 848.960938 598.410156 C 823.195312 598.410156 795.128906 593.5 764.542969 583.679688 C 729.03125 572.28125 698.371094 559.53125 668.039062 543.554688 C 496.9375 453.425781 361.441406 390.855469 265.328125 357.59375 C 64.003906 287.925781 -7.804688 304.769531 -8.496094 304.941406 L -8.890625 303.414062 C -8.183594 303.242188 63.941406 286.226562 265.832031 356.101562 C 362.023438 389.390625 497.582031 451.992188 668.761719 542.15625 C 699.015625 558.085938 729.597656 570.800781 765.015625 582.167969 C 839.941406 606.21875 899.597656 600.710938 947.371094 565.308594 C 989.460938 534.125 1016.929688 484.8125 1043.5 437.117188 L 1043.703125 436.753906 C 1079.972656 371.652344 1135.222656 356.808594 1212.585938 391.421875 C 1337.316406 447.207031 1449.863281 544.28125 1450.980469 545.253906 L 1449.941406 546.453125 C 1448.824219 545.476562 1336.449219 448.558594 1211.941406 392.871094 C 1135.457031 358.664062 1080.867188 373.273438 1045.074219 437.527344 L 1044.871094 437.886719 C 1018.222656 485.722656 990.675781 535.199219 948.300781 566.585938 C 919.636719 587.820312 886.753906 598.410156 848.945312 598.410156 Z M 848.960938 598.410156 " fill-opacity="1" fill-rule="nonzero"/><path fill="#3a2a79" d="M 839.421875 584.589844 C 815.828125 584.589844 789.445312 580.765625 759.742188 572.1875 C 734.777344 564.980469 701.21875 554.320312 663.0625 535.636719 C 482.28125 447.144531 350.089844 390.601562 258.953125 362.789062 C 59.296875 301.855469 -7.773438 324.902344 -8.433594 325.136719 L -8.984375 323.65625 C -8.324219 323.40625 59.0625 300.140625 259.410156 361.277344 C 350.625 389.125 482.878906 445.695312 663.742188 534.222656 C 701.785156 552.84375 735.25 563.484375 760.152344 570.675781 C 926.011719 618.542969 987.542969 517.394531 1041.816406 428.144531 C 1079.46875 366.253906 1135.078125 352.386719 1211.832031 385.800781 C 1339.269531 441.257812 1449.816406 525.753906 1450.917969 526.585938 L 1449.957031 527.832031 C 1448.855469 526.980469 1338.449219 442.609375 1211.203125 387.234375 C 1135.300781 354.210938 1080.316406 367.84375 1043.152344 428.964844 C 998.292969 502.722656 948.503906 584.589844 839.390625 584.589844 Z M 839.421875 584.589844 " fill-opacity="1" fill-rule="nonzero"/><path fill="#3a2a79" d="M 829.554688 570.929688 C 807.183594 570.929688 782.472656 567.765625 754.941406 560.714844 C 729.269531 554.148438 695.0625 544.453125 658.105469 527.75 C 464.433594 440.171875 339.355469 390.902344 252.609375 368.015625 C 54.621094 315.773438 -7.742188 345.035156 -8.339844 345.332031 L -9.046875 343.933594 C -8.417969 343.617188 6.753906 336.25 46.753906 335.289062 C 83.554688 334.410156 149.207031 339.101562 253.003906 366.488281 C 339.84375 389.40625 464.984375 438.691406 658.75 526.320312 C 695.582031 542.972656 729.710938 552.636719 755.335938 559.203125 C 919.304688 601.167969 983.417969 504.675781 1039.972656 419.550781 C 1060.785156 388.226562 1086.851562 369.667969 1117.464844 364.410156 C 1144.445312 359.765625 1175.078125 364.929688 1211.125 380.199219 C 1341.265625 435.308594 1449.816406 507.226562 1450.902344 507.949219 L 1450.035156 509.257812 C 1448.949219 508.53125 1340.527344 436.691406 1210.523438 381.648438 C 1135.175781 349.742188 1079.828125 362.441406 1041.296875 420.433594 C 993.933594 491.722656 941.28125 570.945312 829.554688 570.960938 Z M 829.554688 570.929688 " fill-opacity="1" fill-rule="nonzero"/><path fill="#3a2a79" d="M 818.410156 557.296875 C 796.953125 557.296875 774.238281 554.605469 750.125 549.222656 C 722.121094 542.972656 688.707031 534.597656 653.132812 519.835938 C 477.90625 447.144531 341.652344 394.382812 246.234375 373.210938 C 49.980469 329.640625 -7.710938 365.132812 -8.261719 365.496094 L -9.128906 364.175781 C -8.542969 363.796875 5.496094 354.886719 44.140625 351.28125 C 79.683594 347.960938 143.652344 348.8125 246.582031 371.667969 C 342.109375 392.871094 478.441406 445.648438 653.746094 518.386719 C 689.222656 533.105469 722.546875 541.460938 750.488281 547.695312 C 912.523438 583.835938 979.246094 491.972656 1038.117188 410.925781 C 1059.933594 380.890625 1085.652344 363.890625 1116.757812 358.980469 C 1143.894531 354.699219 1174.527344 359.78125 1210.398438 374.546875 C 1343.28125 429.261719 1449.800781 488.652344 1450.855469 489.25 L 1450.082031 490.621094 C 1449.027344 490.019531 1342.574219 430.679688 1209.800781 375.996094 C 1133.976562 344.78125 1079.828125 356.164062 1039.390625 411.835938 C 1010.726562 451.300781 978.238281 496.035156 932.386719 525.21875 C 898.71875 546.65625 861.050781 557.296875 818.425781 557.296875 Z M 818.410156 557.296875 " fill-opacity="1" fill-rule="nonzero"/><path fill="#3a2a79" d="M 806.886719 543.871094 C 787.351562 543.871094 766.875 541.824219 745.339844 537.730469 C 717.289062 532.410156 684.34375 525.578125 648.171875 511.933594 C 475.84375 446.875 336.367188 395.734375 239.890625 378.402344 C 138.238281 360.160156 76.1875 363.105469 42.046875 368.800781 C 5.054688 374.957031 -8.058594 385.566406 -8.183594 385.675781 L -9.191406 384.464844 C -8.65625 384.023438 4.238281 373.539062 41.527344 367.292969 C 75.808594 361.546875 138.109375 358.539062 240.15625 376.863281 C 336.773438 394.207031 476.332031 445.378906 648.722656 510.46875 C 684.769531 524.085938 717.636719 530.882812 745.625 536.203125 C 905.628906 566.585938 978.050781 475.492188 1036.242188 402.3125 C 1058.753906 374.011719 1084.835938 358.066406 1116.019531 353.566406 C 1143.34375 349.613281 1173.976562 354.636719 1209.660156 368.929688 C 1345.28125 423.234375 1449.753906 470.125 1450.789062 470.582031 L 1450.144531 472.015625 C 1449.105469 471.542969 1344.667969 424.683594 1209.078125 370.375 C 1133.820312 340.25 1079.292969 350.699219 1037.488281 403.289062 C 1009.203125 438.863281 974.003906 483.128906 926.910156 511.570312 C 891.144531 533.167969 851.527344 543.886719 806.886719 543.886719 Z M 806.886719 543.871094 " fill-opacity="1" fill-rule="nonzero"/><path fill="#3a2a79" d="M 794.011719 530.585938 C 777.292969 530.585938 759.507812 529.214844 740.523438 526.242188 C 710.554688 521.550781 678.332031 515.976562 643.199219 504.015625 L 618.011719 495.4375 C 468.414062 444.5 327.125 396.378906 233.515625 383.597656 C 132.773438 369.839844 72.425781 376.625 39.542969 384.730469 C 3.9375 393.515625 -8.007812 405.699219 -8.136719 405.824219 L -9.285156 404.738281 C -8.796875 404.234375 2.960938 392.175781 38.898438 383.269531 C 71.9375 375.082031 132.539062 368.21875 233.71875 382.039062 C 327.472656 394.835938 468.839844 442.988281 618.515625 493.957031 L 643.703125 502.535156 C 678.726562 514.449219 710.851562 520.007812 740.757812 524.699219 C 898.625 549.394531 973.894531 463.058594 1034.371094 393.671875 C 1057.542969 367.101562 1084 352.179688 1115.246094 348.085938 C 1142.792969 344.484375 1173.425781 349.441406 1208.917969 363.261719 C 1347.28125 417.140625 1449.6875 451.535156 1450.710938 451.882812 L 1450.207031 453.378906 C 1449.183594 453.03125 1346.746094 418.621094 1208.351562 364.742188 C 1134.6875 336.0625 1078.160156 345.851562 1035.566406 394.710938 C 982.097656 456.054688 917.101562 530.601562 794.011719 530.601562 Z M 794.011719 530.585938 " fill-opacity="1" fill-rule="nonzero"/><path fill="#3a2a79" d="M 780.914062 517.613281 C 766.308594 517.613281 751.257812 516.65625 735.722656 514.75 C 703.894531 510.847656 672.492188 506.484375 638.242188 496.113281 C 617.445312 489.816406 596.84375 483.519531 576.535156 477.320312 C 440.976562 435.90625 312.941406 396.789062 227.15625 388.792969 C 127.328125 379.507812 68.664062 390.117188 37.039062 400.660156 C 2.804688 412.074219 -7.976562 425.847656 -8.089844 425.972656 L -9.347656 425.027344 C -8.90625 424.445312 1.71875 410.8125 36.300781 399.246094 C 68.082031 388.621094 127.015625 377.902344 227.296875 387.234375 C 313.242188 395.230469 441.355469 434.378906 576.992188 475.824219 C 597.300781 482.023438 617.886719 488.320312 638.695312 494.617188 C 672.839844 504.960938 704.164062 509.304688 735.910156 513.207031 C 891.492188 532.300781 969.691406 450.652344 1032.511719 385.0625 C 1076.933594 338.691406 1134.402344 329.71875 1208.179688 357.640625 C 1349.277344 411.050781 1449.609375 433.007812 1450.617188 433.230469 L 1450.289062 434.773438 C 1449.296875 434.550781 1348.855469 412.578125 1207.628906 359.121094 C 1134.496094 331.433594 1077.59375 340.28125 1033.664062 386.148438 C 997.679688 423.722656 961.570312 459.515625 915.78125 484.402344 C 874.871094 506.644531 830.417969 517.628906 780.914062 517.628906 Z M 780.914062 517.613281 " fill-opacity="1" fill-rule="nonzero"/><path fill="#3a2a79" d="M 765.992188 504.863281 C 754.546875 504.863281 742.867188 504.328125 730.9375 503.273438 C 697.347656 500.300781 666.808594 497.105469 633.296875 488.210938 C 603.34375 480.261719 573.59375 472.171875 544.804688 464.332031 C 413.855469 428.695312 300.777344 397.921875 220.8125 394.003906 C 121.898438 389.15625 64.933594 403.605469 34.570312 416.574219 C 1.703125 430.617188 -7.929688 445.980469 -8.007812 446.136719 L -9.363281 445.316406 C -8.96875 444.671875 0.507812 429.453125 33.734375 415.222656 C 64.257812 402.140625 121.519531 387.550781 220.890625 392.429688 C 301.011719 396.363281 414.171875 427.152344 545.214844 462.804688 C 573.988281 470.644531 603.738281 478.734375 633.691406 486.683594 C 667.09375 495.546875 697.550781 498.726562 731.078125 501.699219 C 884.1875 515.269531 965.425781 438.28125 1030.6875 376.4375 C 1076.445312 333.070312 1134.277344 325.089844 1207.472656 352.007812 C 1351.339844 404.925781 1449.5625 414.464844 1450.539062 414.558594 L 1450.398438 416.132812 C 1449.421875 416.039062 1350.996094 406.484375 1206.921875 353.488281 C 1134.339844 326.789062 1077.042969 334.660156 1031.757812 377.585938 C 994.421875 412.96875 957.035156 446.71875 910.144531 470.894531 C 865.976562 493.65625 818.550781 504.878906 765.976562 504.878906 Z M 765.992188 504.863281 " fill-opacity="1" fill-rule="nonzero"/><path fill="#3a2a79" d="M 749.292969 492.414062 C 741.671875 492.414062 733.945312 492.210938 726.136719 491.785156 C 696.96875 490.210938 663.929688 488.414062 628.324219 480.308594 C 591.332031 471.886719 554.75 463.105469 519.382812 454.621094 C 396.257812 425.074219 289.929688 399.542969 214.453125 399.214844 C 116.453125 398.773438 61.1875 417.0625 32.066406 432.472656 C 0.570312 449.144531 -7.914062 466.128906 -7.992188 466.300781 L -9.410156 465.625 C -9.0625 464.914062 -0.722656 448.105469 31.136719 431.183594 C 60.070312 415.820312 114.703125 397.625 211.054688 397.625 C 212.1875 397.625 213.320312 397.625 214.46875 397.625 C 290.121094 397.953125 396.527344 423.5 519.746094 453.078125 C 555.113281 461.5625 591.695312 470.34375 628.671875 478.765625 C 664.132812 486.84375 697.109375 488.636719 726.214844 490.210938 C 865.300781 497.75 945.546875 439.242188 1028.832031 367.8125 C 1075.925781 327.4375 1134.121094 320.414062 1206.730469 346.371094 C 1353.355469 398.757812 1449.484375 395.953125 1450.429688 395.90625 L 1450.492188 397.480469 C 1449.53125 397.511719 1353.136719 400.347656 1206.195312 347.851562 C 1134.152344 322.101562 1076.460938 329.027344 1029.835938 369.007812 C 991.085938 402.234375 952.332031 434 904.464844 457.40625 C 856.421875 480.890625 805.453125 492.414062 749.273438 492.414062 Z M 749.292969 492.414062 " fill-opacity="1" fill-rule="nonzero"/><path fill="#3a2a79" d="M -7.960938 486.449219 L -9.441406 485.898438 C -9.144531 485.125 -1.933594 466.710938 28.554688 447.113281 C 56.574219 429.105469 110.46875 406.800781 208.03125 402.816406 C 280.125 399.890625 381.335938 421.03125 498.542969 445.507812 C 539.136719 453.992188 581.101562 462.757812 623.648438 470.847656 C 658.671875 477.507812 691.980469 478.152344 721.351562 478.71875 C 857.570312 481.363281 940.351562 426.128906 1026.957031 359.199219 C 1075.375 321.785156 1133.945312 315.742188 1205.992188 340.738281 C 1355.371094 392.570312 1449.390625 377.429688 1450.320312 377.269531 L 1450.585938 378.828125 C 1449.640625 378.988281 1355.277344 394.207031 1205.472656 342.230469 C 1133.960938 317.425781 1075.894531 323.390625 1027.917969 360.445312 C 987.621094 391.578125 947.433594 421.390625 898.75 443.964844 C 843.375 469.636719 785.351562 481.503906 721.304688 480.292969 C 691.867188 479.726562 658.5 479.082031 623.332031 472.390625 C 580.769531 464.300781 538.804688 455.535156 498.195312 447.050781 C 381.085938 422.589844 279.964844 401.449219 208.0625 404.390625 C 110.988281 408.34375 57.394531 430.472656 29.53125 448.324219 C -0.613281 467.636719 -7.929688 486.257812 -8.007812 486.449219 Z M -7.960938 486.449219 " fill-opacity="1" fill-rule="nonzero"/><path fill="#3a2a79" d="M -7.945312 506.613281 L -9.457031 506.171875 C -9.207031 505.335938 -3.144531 485.316406 25.972656 463.027344 C 52.75 442.546875 104.945312 416.371094 201.609375 408.011719 C 270.789062 402.015625 367.957031 419.378906 480.457031 439.460938 C 525.269531 447.457031 571.609375 455.738281 618.644531 462.914062 C 653.492188 468.238281 686.972656 467.683594 716.503906 467.214844 C 849.371094 465.058594 934.875 413.113281 1025.117188 350.574219 C 1074.871094 316.085938 1133.804688 311.035156 1205.25 335.101562 C 1357.402344 386.351562 1449.3125 358.933594 1450.207031 358.648438 L 1450.679688 360.160156 C 1449.769531 360.445312 1357.433594 388.023438 1204.75 336.597656 C 1133.789062 312.703125 1075.328125 317.691406 1025.996094 351.882812 C 935.535156 414.578125 849.8125 466.628906 716.503906 468.804688 C 686.910156 469.273438 653.351562 469.828125 618.375 464.488281 C 571.328125 457.296875 524.96875 449.03125 480.15625 441.019531 C 367.769531 420.953125 270.710938 403.636719 201.71875 409.585938 C 105.558594 417.914062 53.664062 443.871094 27.046875 464.175781 C -1.746094 486.148438 -7.914062 506.40625 -7.976562 506.613281 Z M -7.945312 506.613281 " fill-opacity="1" fill-rule="nonzero"/><path fill="#3a2a79" d="M -7.929688 526.777344 L -9.472656 526.445312 C -9.425781 526.226562 -4.34375 503.90625 23.394531 478.941406 C 48.910156 455.988281 99.421875 425.941406 195.171875 413.222656 C 261.941406 404.34375 355.851562 418.339844 464.589844 434.535156 C 512.914062 441.730469 562.875 449.175781 613.605469 455.015625 C 648.566406 459.042969 682.0625 457.28125 711.640625 455.738281 C 850.867188 448.464844 946.457031 389.40625 1023.257812 341.964844 C 1074.351562 310.40625 1133.648438 306.3125 1204.511719 329.464844 C 1359.511719 380.121094 1449.21875 340.4375 1450.113281 340.027344 L 1450.773438 341.460938 C 1450.554688 341.570312 1427.902344 351.753906 1386.332031 355.515625 C 1348.019531 358.964844 1285.292969 357.515625 1204.023438 330.960938 C 1133.617188 307.949219 1074.761719 311.996094 1024.078125 343.300781 C 947.121094 390.839844 851.339844 450.007812 711.703125 457.296875 C 682.078125 458.839844 648.488281 460.601562 613.417969 456.558594 C 562.652344 450.71875 512.675781 443.273438 464.335938 436.0625 C 355.726562 419.882812 261.910156 405.902344 195.359375 414.75 C 100.113281 427.40625 49.902344 457.203125 24.542969 479.980469 C -2.894531 504.613281 -7.914062 526.539062 -7.960938 526.746094 Z M -7.929688 526.777344 " fill-opacity="1" fill-rule="nonzero"/><path fill="#3a2a79" d="M -7.914062 546.957031 L -9.472656 546.71875 C -9.441406 546.484375 -5.539062 522.496094 20.828125 494.839844 C 45.082031 469.402344 93.910156 435.496094 188.765625 418.417969 C 253.507812 406.769531 344.785156 417.722656 450.484375 430.394531 C 501.753906 436.550781 554.785156 442.910156 608.617188 447.082031 C 643.96875 449.820312 677.355469 446.84375 706.808594 444.230469 C 840.210938 432.363281 936.496094 379.757812 1021.449219 333.339844 C 1073.171875 305.066406 1134.527344 301.871094 1203.820312 323.832031 C 1286.253906 349.945312 1348.824219 347.914062 1386.789062 341.585938 C 1427.917969 334.738281 1449.847656 321.566406 1450.066406 321.421875 L 1450.886719 322.761719 C 1450.664062 322.886719 1428.550781 336.21875 1387.136719 343.113281 C 1348.980469 349.472656 1286.113281 351.550781 1203.332031 325.328125 C 1134.464844 303.511719 1073.535156 306.65625 1022.1875 334.722656 C 937.109375 381.222656 840.679688 433.90625 706.933594 445.804688 C 677.417969 448.433594 643.96875 451.394531 608.476562 448.65625 C 554.609375 444.484375 501.578125 438.125 450.28125 431.96875 C 344.707031 419.296875 253.539062 408.359375 189.03125 419.976562 C 94.683594 436.960938 46.152344 470.597656 22.054688 495.828125 C -4.027344 523.140625 -7.882812 546.734375 -7.929688 546.972656 Z M -7.914062 546.957031 " fill-opacity="1" fill-rule="nonzero"/><path fill="#3a2a79" d="M -7.914062 567.136719 L -9.488281 566.976562 C -9.457031 566.726562 -6.75 541.054688 18.230469 510.703125 C 41.226562 482.78125 88.355469 445.003906 182.328125 423.613281 C 245.320312 409.273438 334.460938 417.441406 437.671875 426.886719 C 491.488281 431.8125 547.132812 436.914062 603.578125 439.164062 C 636.996094 440.5 667.894531 437.039062 701.925781 432.742188 C 827.285156 416.90625 920.753906 372.109375 1011.136719 328.757812 L 1019.574219 324.710938 C 1072.667969 299.292969 1134.386719 297.085938 1203.0625 318.179688 C 1286.960938 343.949219 1349.640625 338.390625 1387.433594 329.199219 C 1428.375 319.234375 1449.769531 302.976562 1449.972656 302.816406 L 1450.933594 304.0625 C 1450.710938 304.21875 1429.132812 320.652344 1387.890625 330.710938 C 1349.894531 339.964844 1286.882812 345.585938 1202.589844 319.691406 C 1134.324219 298.726562 1072.96875 300.898438 1020.25 326.144531 L 1011.832031 330.191406 C 921.320312 373.570312 827.742188 418.449219 702.132812 434.316406 C 668.023438 438.628906 637.058594 442.074219 603.515625 440.738281 C 547.023438 438.488281 491.363281 433.386719 437.53125 428.460938 C 334.445312 419.015625 245.429688 410.863281 182.6875 425.152344 C 89.238281 446.417969 42.390625 483.914062 19.535156 511.601562 C -5.191406 541.589844 -7.898438 566.867188 -7.914062 567.121094 Z M -7.914062 567.136719 " fill-opacity="1" fill-rule="nonzero"/><path fill="#3a2a79" d="M -7.914062 587.316406 L -9.488281 587.234375 C -9.488281 586.96875 -7.945312 559.59375 15.648438 526.570312 C 37.371094 496.160156 82.8125 454.511719 175.90625 428.820312 C 237.371094 411.867188 324.75 417.425781 425.914062 423.878906 C 481.933594 427.453125 539.875 431.136719 598.558594 431.261719 C 632.9375 431.261719 666.070312 426.367188 697.078125 421.265625 C 811.339844 402.488281 902.433594 364.347656 990.53125 327.484375 C 999.664062 323.65625 1008.730469 319.863281 1017.734375 316.132812 C 1072.210938 293.546875 1134.308594 292.351562 1202.324219 312.578125 C 1287.703125 337.964844 1350.476562 328.914062 1388.097656 316.84375 C 1428.847656 303.761719 1449.703125 284.433594 1449.910156 284.242188 L 1450.996094 285.390625 C 1450.792969 285.582031 1429.746094 305.117188 1388.679688 318.320312 C 1350.835938 330.488281 1287.703125 339.617188 1201.882812 314.085938 C 1134.214844 293.957031 1072.464844 295.136719 1018.332031 317.582031 C 1009.328125 321.3125 1000.261719 325.105469 991.132812 328.929688 C 902.953125 365.84375 811.765625 404 697.332031 422.824219 C 666.273438 427.925781 633.078125 432.882812 598.558594 432.835938 C 539.828125 432.710938 481.855469 429.027344 425.804688 425.453125 C 324.78125 419.015625 237.53125 413.457031 176.3125 430.347656 C 83.742188 455.894531 38.566406 497.214844 16.988281 527.390625 C -6.386719 560.050781 -7.914062 587.046875 -7.929688 587.316406 Z M -7.914062 587.316406 " fill-opacity="1" fill-rule="nonzero"/><path fill="#3a2a79" d="M -7.914062 607.496094 L -9.488281 607.496094 C -9.488281 607.195312 -9.160156 578.136719 13.050781 542.421875 C 33.515625 509.507812 77.257812 464.003906 169.484375 434.03125 C 229.597656 414.496094 315.507812 417.613281 414.988281 421.234375 C 472.964844 423.34375 532.917969 425.515625 593.535156 423.34375 C 629.316406 422.070312 663.238281 415.679688 692.214844 409.777344 C 791.050781 389.675781 875.34375 358.777344 956.863281 328.898438 C 977.230469 321.4375 996.46875 314.386719 1015.875 307.523438 C 1071.769531 287.753906 1134.261719 287.550781 1201.585938 306.941406 C 1288.441406 331.953125 1351.324219 319.390625 1388.773438 304.453125 C 1429.351562 288.273438 1449.65625 265.875 1449.847656 265.652344 L 1451.027344 266.707031 C 1450.824219 266.929688 1430.328125 289.5625 1389.449219 305.886719 C 1351.75 320.949219 1288.488281 333.605469 1201.160156 308.46875 C 1134.152344 289.171875 1071.992188 289.359375 1016.410156 309.019531 C 997.003906 315.882812 977.78125 322.933594 957.414062 330.394531 C 875.832031 360.300781 791.476562 391.21875 692.53125 411.332031 C 663.488281 417.238281 629.503906 423.644531 593.601562 424.933594 C 532.917969 427.089844 472.949219 424.933594 414.925781 422.808594 C 315.601562 419.203125 229.816406 416.085938 169.953125 435.542969 C 78.171875 465.355469 34.695312 510.578125 14.375 543.273438 C -7.601562 578.625 -7.929688 607.226562 -7.929688 607.511719 Z M -7.914062 607.496094 " fill-opacity="1" fill-rule="nonzero"/><path fill="#3a2a79" d="M -9.488281 627.738281 C -9.488281 627.421875 -10.371094 596.664062 10.4375 558.242188 C 29.609375 522.839844 71.667969 473.445312 163.058594 439.226562 C 221.976562 417.15625 306.679688 417.945312 404.742188 418.859375 C 464.464844 419.410156 526.230469 419.992188 588.53125 415.410156 C 624.355469 412.78125 658.609375 405.273438 687.367188 398.269531 C 764.511719 379.507812 834.84375 356.460938 902.875 334.15625 C 941.390625 321.53125 977.78125 309.601562 1014.050781 298.882812 C 1071.425781 281.929688 1134.277344 282.730469 1200.875 301.273438 C 1289.226562 325.878906 1352.207031 309.820312 1389.480469 292.003906 C 1429.871094 272.707031 1449.640625 247.269531 1449.832031 247 L 1451.074219 247.960938 C 1450.871094 248.214844 1430.925781 273.917969 1390.238281 293.390625 C 1352.710938 311.332031 1289.308594 327.546875 1200.449219 302.785156 C 1134.152344 284.320312 1071.582031 283.519531 1014.507812 300.394531 C 978.253906 311.113281 941.878906 323.027344 903.375 335.652344 C 835.328125 357.957031 764.953125 381.015625 687.761719 399.796875 C 658.921875 406.800781 624.609375 414.324219 588.671875 416.96875 C 526.308594 421.550781 464.511719 420.96875 404.757812 420.417969 C 306.851562 419.503906 222.277344 418.714844 163.644531 440.675781 C 72.773438 474.707031 30.964844 523.738281 11.902344 558.871094 C -8.734375 596.933594 -7.898438 627.34375 -7.898438 627.640625 L -9.472656 627.707031 Z M -9.488281 627.738281 " fill-opacity="1" fill-rule="nonzero"/><path fill="#3a2a79" d="M -9.488281 647.996094 C -9.519531 647.664062 -11.582031 615.191406 7.824219 574.078125 C 25.722656 536.171875 66.066406 482.921875 156.636719 444.4375 C 214.453125 419.863281 298.148438 418.433594 395.046875 416.75 C 456.339844 415.695312 519.730469 414.59375 583.511719 407.492188 C 613.179688 404.1875 643.71875 397.796875 682.503906 386.777344 C 728.765625 373.632812 773.640625 359.75 817.039062 346.308594 C 884.945312 325.296875 949.085938 305.429688 1012.191406 290.289062 C 1071.125 276.136719 1134.355469 277.945312 1200.121094 295.65625 C 1289.96875 319.832031 1353.058594 300.28125 1390.15625 279.601562 C 1430.375 257.199219 1449.59375 228.710938 1449.785156 228.410156 L 1451.089844 229.277344 C 1450.902344 229.558594 1431.507812 258.335938 1390.992188 280.921875 C 1353.625 301.761719 1290.09375 321.5 1199.710938 297.167969 C 1134.199219 279.535156 1071.21875 277.726562 1012.554688 291.816406 C 949.480469 306.957031 885.371094 326.804688 817.496094 347.820312 C 774.082031 361.261719 729.207031 375.160156 682.929688 388.304688 C 644.046875 399.339844 613.433594 405.746094 583.667969 409.066406 C 519.824219 416.167969 456.386719 417.269531 395.0625 418.324219 C 298.320312 419.992188 214.785156 421.421875 157.234375 445.882812 C 67.167969 484.148438 27.0625 537.039062 9.273438 574.660156 C -9.992188 615.410156 -7.960938 647.554688 -7.945312 647.871094 L -9.519531 647.980469 Z M -9.488281 647.996094 " fill-opacity="1" fill-rule="nonzero"/><path fill="#3a2a79" d="M -9.488281 668.238281 C -9.519531 667.890625 -12.808594 633.703125 5.195312 589.894531 C 21.804688 549.488281 60.445312 492.367188 150.214844 449.648438 C 207.039062 422.605469 289.882812 419.015625 385.808594 414.84375 C 448.550781 412.121094 513.417969 409.304688 578.488281 399.589844 C 609.105469 395.027344 641.53125 387.078125 677.65625 375.320312 L 678.804688 374.941406 C 794.433594 337.257812 903.644531 301.667969 1010.367188 281.710938 C 1070.953125 270.375 1134.542969 273.175781 1199.410156 290.035156 C 1290.738281 313.789062 1353.9375 290.710938 1390.882812 267.179688 C 1430.910156 241.679688 1449.59375 210.136719 1449.785156 209.820312 L 1451.136719 210.609375 C 1450.949219 210.921875 1432.121094 242.75 1391.777344 268.457031 C 1354.566406 292.175781 1290.929688 315.441406 1199.003906 291.546875 C 1134.371094 274.75 1071 271.949219 1010.648438 283.234375 C 904.039062 303.179688 794.859375 338.753906 679.292969 376.421875 L 678.144531 376.796875 C 641.9375 388.589844 609.417969 396.554688 578.726562 401.132812 C 513.558594 410.863281 448.644531 413.679688 385.871094 416.402344 C 290.117188 420.558594 207.417969 424.148438 150.890625 451.046875 C 61.628906 493.53125 23.203125 550.277344 6.691406 590.382812 C -11.203125 633.875 -7.945312 667.734375 -7.914062 668.082031 Z M -9.488281 668.238281 " fill-opacity="1" fill-rule="nonzero"/><path fill="#3a2a79" d="M -9.472656 688.480469 C -9.519531 688.117188 -14.039062 652.214844 2.566406 605.699219 C 17.882812 562.804688 54.828125 501.8125 143.808594 454.855469 C 199.703125 425.359375 281.855469 419.675781 376.976562 413.097656 C 441.023438 408.65625 507.261719 404.078125 573.5 391.6875 C 606.035156 385.597656 638.523438 376.5 672.824219 363.84375 C 804.699219 315.207031 911.371094 286.367188 1008.539062 273.113281 C 1070.90625 264.597656 1134.875 268.40625 1198.6875 284.417969 C 1291.511719 307.695312 1354.835938 281.140625 1391.589844 254.746094 C 1431.445312 226.144531 1449.59375 191.5625 1449.769531 191.214844 L 1451.167969 191.941406 C 1450.996094 192.285156 1432.703125 227.152344 1392.566406 255.972656 C 1355.527344 282.574219 1291.746094 309.367188 1198.292969 285.925781 C 1134.6875 269.964844 1070.90625 266.1875 1008.746094 274.65625 C 911.6875 287.894531 805.125 316.699219 673.359375 365.308594 C 638.964844 377.996094 606.398438 387.125 573.78125 393.230469 C 507.46875 405.636719 441.183594 410.230469 377.085938 414.65625 C 282.140625 421.21875 200.144531 426.902344 144.550781 456.242188 C 56.054688 502.945312 19.316406 563.53125 4.078125 606.140625 C -12.433594 652.308594 -7.960938 687.898438 -7.914062 688.261719 L -9.472656 688.464844 Z M -9.472656 688.480469 " fill-opacity="1" fill-rule="nonzero"/><path fill="#3a2a79" d="M -9.472656 708.722656 C -9.535156 708.34375 -15.296875 670.726562 -0.09375 621.519531 C 13.933594 576.125 49.175781 511.269531 137.386719 460.082031 C 192.304688 428.207031 273.6875 420.527344 367.910156 411.632812 C 433.359375 405.445312 501.042969 399.054688 568.476562 383.804688 C 602.382812 376.214844 635.863281 365.636719 667.957031 352.386719 C 786.46875 303.429688 900.433594 273.886719 1006.683594 264.535156 C 1071.046875 258.871094 1135.394531 263.6875 1197.949219 278.796875 C 1292.3125 301.605469 1355.75 271.523438 1392.347656 242.261719 C 1432.011719 210.5625 1449.578125 173.003906 1449.753906 172.625 L 1451.183594 173.289062 C 1451.011719 173.664062 1433.289062 211.554688 1393.335938 243.492188 C 1356.457031 272.972656 1292.566406 303.289062 1197.585938 280.324219 C 1135.191406 265.246094 1071.015625 260.460938 1006.824219 266.09375 C 900.730469 275.429688 786.925781 304.941406 668.558594 353.832031 C 636.367188 367.117188 602.808594 377.726562 568.824219 385.332031 C 501.296875 400.613281 433.5625 407.003906 368.050781 413.191406 C 274.015625 422.070312 192.808594 429.75 138.175781 461.4375 C 50.433594 512.34375 15.382812 576.800781 1.433594 621.898438 C -13.691406 670.773438 -7.976562 708.109375 -7.929688 708.472656 L -9.488281 708.722656 Z M -9.472656 708.722656 " fill-opacity="1" fill-rule="nonzero"/><path fill="#3a2a79" d="M -9.472656 728.964844 C -9.550781 728.570312 -16.558594 689.234375 -2.753906 637.324219 C 9.964844 589.441406 43.507812 520.714844 130.980469 465.292969 C 185.207031 430.929688 266.304688 421.234375 360.210938 409.996094 C 456.734375 398.441406 566.132812 385.347656 663.109375 340.894531 C 842.320312 258.757812 1032.007812 234.707031 1197.222656 273.160156 C 1293.054688 295.464844 1356.597656 261.90625 1393.023438 229.828125 C 1432.53125 195.023438 1449.578125 154.414062 1449.753906 154.003906 L 1451.199219 154.601562 C 1451.027344 155.011719 1433.871094 195.921875 1394.109375 230.960938 C 1370.75 251.550781 1344.273438 266.125 1315.421875 274.28125 C 1279.359375 284.464844 1239.472656 284.605469 1196.878906 274.6875 C 1031.992188 236.3125 842.664062 260.332031 663.773438 342.328125 C 566.574219 386.871094 457.035156 399.984375 360.402344 411.554688 C 266.679688 422.777344 185.742188 432.457031 131.832031 466.628906 C 44.816406 521.753906 11.460938 590.070312 -1.195312 637.652344 C -14.917969 689.234375 -7.976562 728.304688 -7.898438 728.683594 L -9.441406 728.964844 Z M -9.472656 728.964844 " fill-opacity="1" fill-rule="nonzero"/></svg>