<svg xmlns="http://www.w3.org/2000/svg" xmlns:xlink="http://www.w3.org/1999/xlink" width="2000" zoomAndPan="magnify" viewBox="0 0 1500 1499.999933" height="2000" preserveAspectRatio="xMidYMid meet" version="1.0"><defs><filter x="0%" y="0%" width="100%" height="100%" id="7bbbc05146"><feColorMatrix values="0 0 0 0 1 0 0 0 0 1 0 0 0 0 1 0 0 0 1 0" color-interpolation-filters="sRGB"/></filter><mask id="86809955ad"><g filter="url(#7bbbc05146)"><rect x="-150" width="1800" fill="#000000" y="-149.999993" height="1799.99992" fill-opacity="0.69"/></g></mask><clipPath id="08995ea4fe"><rect x="0" width="1500" y="0" height="381"/></clipPath></defs><g mask="url(#86809955ad)"><g transform="matrix(1, 0, 0, 1, 0, 557)"><g clip-path="url(#08995ea4fe)"><path fill="#7b6da5" d="M 1499.886719 313.625 C 1499.886719 315.605469 1499.792969 317.578125 1499.597656 319.546875 C 1499.402344 321.515625 1499.113281 323.472656 1498.726562 325.414062 C 1498.339844 327.355469 1497.859375 329.273438 1497.285156 331.164062 C 1496.710938 333.058594 1496.046875 334.921875 1495.289062 336.75 C 1494.53125 338.578125 1493.6875 340.363281 1492.753906 342.109375 C 1491.820312 343.855469 1490.804688 345.550781 1489.703125 347.195312 C 1488.605469 348.839844 1487.429688 350.429688 1486.171875 351.957031 C 1484.917969 353.488281 1483.589844 354.953125 1482.191406 356.351562 C 1480.789062 357.75 1479.324219 359.078125 1477.796875 360.335938 C 1476.265625 361.589844 1474.679688 362.765625 1473.035156 363.867188 C 1471.386719 364.964844 1469.691406 365.980469 1467.949219 366.914062 C 1466.203125 367.847656 1464.414062 368.691406 1462.585938 369.449219 C 1460.757812 370.207031 1458.898438 370.875 1457.003906 371.449219 C 1455.109375 372.023438 1453.191406 372.503906 1451.25 372.890625 C 1449.3125 373.273438 1447.355469 373.566406 1445.386719 373.757812 C 1443.417969 373.953125 1441.441406 374.050781 1439.464844 374.050781 L 529.1875 374.050781 C 527.214844 374.039062 525.25 373.929688 523.289062 373.726562 C 521.328125 373.523438 519.378906 373.226562 517.449219 372.832031 C 515.515625 372.4375 513.605469 371.949219 511.722656 371.367188 C 509.839844 370.789062 507.988281 370.117188 506.167969 369.355469 C 504.347656 368.59375 502.570312 367.742188 500.835938 366.808594 C 499.101562 365.871094 497.414062 364.851562 495.777344 363.75 C 494.144531 362.648438 492.566406 361.46875 491.042969 360.214844 C 489.523438 358.960938 488.070312 357.632812 486.679688 356.234375 C 485.289062 354.835938 483.96875 353.371094 482.722656 351.84375 C 481.472656 350.316406 480.304688 348.734375 479.210938 347.089844 C 478.121094 345.449219 477.109375 343.757812 476.183594 342.015625 C 475.257812 340.277344 474.417969 338.496094 473.667969 336.671875 C 472.914062 334.847656 472.253906 332.992188 471.683594 331.105469 C 471.113281 329.21875 470.636719 327.308594 470.25 325.371094 C 469.867188 323.4375 469.582031 321.488281 469.386719 319.527344 C 469.195312 317.566406 469.097656 315.597656 469.097656 313.625 C 469.097656 311.644531 469.195312 309.671875 469.390625 307.703125 C 469.585938 305.734375 469.875 303.777344 470.261719 301.835938 C 470.644531 299.894531 471.125 297.980469 471.699219 296.085938 C 472.277344 294.191406 472.941406 292.332031 473.699219 290.5 C 474.457031 288.671875 475.300781 286.886719 476.234375 285.140625 C 477.167969 283.394531 478.183594 281.699219 479.28125 280.054688 C 480.382812 278.410156 481.558594 276.824219 482.816406 275.292969 C 484.070312 273.761719 485.398438 272.296875 486.796875 270.898438 C 488.195312 269.5 489.660156 268.171875 491.191406 266.917969 C 492.71875 265.660156 494.308594 264.484375 495.953125 263.382812 C 497.597656 262.285156 499.292969 261.269531 501.039062 260.335938 C 502.785156 259.402344 504.570312 258.558594 506.398438 257.800781 C 508.226562 257.042969 510.089844 256.378906 511.984375 255.804688 C 513.875 255.226562 515.792969 254.75 517.734375 254.363281 C 519.675781 253.976562 521.632812 253.6875 523.601562 253.492188 C 525.570312 253.296875 527.542969 253.199219 529.523438 253.199219 L 596.539062 253.199219 C 598.515625 253.199219 600.492188 253.105469 602.460938 252.910156 C 604.429688 252.714844 606.386719 252.425781 608.324219 252.039062 C 610.265625 251.652344 612.183594 251.171875 614.078125 250.597656 C 615.972656 250.023438 617.832031 249.359375 619.660156 248.601562 C 621.488281 247.84375 623.277344 247 625.019531 246.066406 C 626.765625 245.132812 628.460938 244.117188 630.109375 243.015625 C 631.753906 241.917969 633.339844 240.742188 634.871094 239.484375 C 636.398438 238.230469 637.863281 236.902344 639.265625 235.503906 C 640.664062 234.105469 641.992188 232.640625 643.246094 231.109375 C 644.5 229.578125 645.679688 227.992188 646.777344 226.347656 C 647.878906 224.699219 648.894531 223.003906 649.828125 221.261719 C 650.761719 219.515625 651.605469 217.726562 652.363281 215.898438 C 653.121094 214.070312 653.785156 212.210938 654.359375 210.316406 C 654.933594 208.421875 655.414062 206.503906 655.800781 204.566406 C 656.1875 202.625 656.476562 200.667969 656.671875 198.699219 C 656.863281 196.730469 656.960938 194.753906 656.960938 192.777344 C 656.960938 190.796875 656.863281 188.824219 656.671875 186.855469 C 656.476562 184.882812 656.1875 182.929688 655.800781 180.988281 C 655.414062 179.046875 654.933594 177.128906 654.359375 175.234375 C 653.785156 173.34375 653.121094 171.480469 652.363281 169.652344 C 651.605469 167.824219 650.761719 166.039062 649.828125 164.292969 C 648.894531 162.546875 647.878906 160.851562 646.777344 159.207031 C 645.679688 157.5625 644.5 155.972656 643.246094 154.445312 C 641.992188 152.914062 640.664062 151.449219 639.265625 150.050781 C 637.863281 148.652344 636.398438 147.324219 634.871094 146.066406 C 633.339844 144.8125 631.753906 143.636719 630.109375 142.535156 C 628.460938 141.4375 626.765625 140.417969 625.019531 139.488281 C 623.277344 138.554688 621.488281 137.707031 619.660156 136.953125 C 617.832031 136.195312 615.972656 135.527344 614.078125 134.953125 C 612.183594 134.378906 610.265625 133.898438 608.324219 133.511719 C 606.386719 133.128906 604.429688 132.835938 602.460938 132.644531 C 600.492188 132.449219 598.515625 132.351562 596.539062 132.351562 L 435.59375 132.351562 C 433.613281 132.351562 431.640625 132.253906 429.667969 132.0625 C 427.699219 131.867188 425.746094 131.578125 423.804688 131.191406 C 421.863281 130.804688 419.945312 130.324219 418.050781 129.75 C 416.15625 129.175781 414.296875 128.511719 412.46875 127.753906 C 410.640625 126.996094 408.851562 126.148438 407.109375 125.21875 C 405.363281 124.285156 403.667969 123.269531 402.023438 122.167969 C 400.375 121.070312 398.789062 119.890625 397.257812 118.636719 C 395.730469 117.382812 394.265625 116.054688 392.867188 114.652344 C 391.464844 113.253906 390.136719 111.789062 388.882812 110.261719 C 387.628906 108.730469 386.449219 107.144531 385.351562 105.496094 C 384.25 103.851562 383.234375 102.15625 382.300781 100.410156 C 381.371094 98.667969 380.523438 96.878906 379.765625 95.050781 C 379.007812 93.222656 378.34375 91.363281 377.769531 89.46875 C 377.195312 87.574219 376.714844 85.65625 376.328125 83.714844 C 375.941406 81.773438 375.652344 79.820312 375.457031 77.851562 C 375.265625 75.882812 375.167969 73.90625 375.167969 71.925781 C 375.167969 69.949219 375.265625 67.972656 375.457031 66.003906 C 375.652344 64.035156 375.941406 62.082031 376.328125 60.140625 C 376.714844 58.199219 377.195312 56.28125 377.769531 54.386719 C 378.34375 52.492188 379.007812 50.632812 379.765625 48.804688 C 380.523438 46.976562 381.371094 45.1875 382.300781 43.445312 C 383.234375 41.699219 384.25 40.003906 385.351562 38.359375 C 386.449219 36.710938 387.628906 35.125 388.882812 33.59375 C 390.136719 32.066406 391.464844 30.601562 392.867188 29.203125 C 394.265625 27.800781 395.730469 26.472656 397.257812 25.21875 C 398.789062 23.964844 400.375 22.785156 402.023438 21.6875 C 403.667969 20.585938 405.363281 19.570312 407.109375 18.636719 C 408.851562 17.707031 410.640625 16.859375 412.46875 16.101562 C 414.296875 15.34375 416.15625 14.679688 418.050781 14.105469 C 419.945312 13.53125 421.863281 13.050781 423.804688 12.664062 C 425.746094 12.277344 427.699219 11.988281 429.667969 11.792969 C 431.640625 11.601562 433.613281 11.503906 435.59375 11.503906 L 1345.867188 11.503906 C 1347.847656 11.503906 1349.820312 11.601562 1351.789062 11.792969 C 1353.757812 11.988281 1355.714844 12.277344 1357.65625 12.664062 C 1359.597656 13.050781 1361.515625 13.53125 1363.40625 14.105469 C 1365.300781 14.679688 1367.164062 15.34375 1368.992188 16.101562 C 1370.820312 16.859375 1372.605469 17.707031 1374.351562 18.636719 C 1376.097656 19.570312 1377.792969 20.585938 1379.4375 21.6875 C 1381.082031 22.785156 1382.671875 23.964844 1384.199219 25.21875 C 1385.730469 26.472656 1387.195312 27.800781 1388.59375 29.199219 C 1389.992188 30.601562 1391.320312 32.066406 1392.574219 33.59375 C 1393.832031 35.125 1395.007812 36.710938 1396.109375 38.359375 C 1397.207031 40.003906 1398.222656 41.699219 1399.15625 43.445312 C 1400.089844 45.1875 1400.933594 46.976562 1401.691406 48.804688 C 1402.449219 50.632812 1403.117188 52.492188 1403.691406 54.386719 C 1404.265625 56.28125 1404.746094 58.199219 1405.128906 60.140625 C 1405.515625 62.082031 1405.808594 64.035156 1406 66.003906 C 1406.195312 67.972656 1406.292969 69.949219 1406.292969 71.925781 C 1406.292969 73.90625 1406.195312 75.882812 1406 77.851562 C 1405.808594 79.820312 1405.515625 81.773438 1405.128906 83.714844 C 1404.746094 85.65625 1404.265625 87.574219 1403.691406 89.46875 C 1403.117188 91.363281 1402.449219 93.222656 1401.691406 95.050781 C 1400.933594 96.878906 1400.089844 98.667969 1399.15625 100.410156 C 1398.222656 102.15625 1397.207031 103.851562 1396.109375 105.496094 C 1395.007812 107.144531 1393.832031 108.730469 1392.574219 110.261719 C 1391.320312 111.789062 1389.992188 113.253906 1388.59375 114.652344 C 1387.195312 116.054688 1385.730469 117.382812 1384.199219 118.636719 C 1382.671875 119.890625 1381.082031 121.070312 1379.4375 122.167969 C 1377.792969 123.269531 1376.097656 124.285156 1374.351562 125.21875 C 1372.605469 126.148438 1370.820312 126.996094 1368.992188 127.753906 C 1367.164062 128.511719 1365.300781 129.175781 1363.40625 129.75 C 1361.515625 130.324219 1359.597656 130.804688 1357.65625 131.191406 C 1355.714844 131.578125 1353.757812 131.867188 1351.789062 132.0625 C 1349.820312 132.253906 1347.847656 132.351562 1345.867188 132.351562 L 961.988281 132.351562 C 960.007812 132.351562 958.035156 132.449219 956.066406 132.644531 C 954.097656 132.835938 952.140625 133.128906 950.199219 133.511719 C 948.257812 133.898438 946.339844 134.378906 944.449219 134.953125 C 942.554688 135.527344 940.691406 136.195312 938.863281 136.953125 C 937.035156 137.707031 935.25 138.554688 933.503906 139.488281 C 931.757812 140.417969 930.0625 141.4375 928.417969 142.535156 C 926.773438 143.636719 925.183594 144.8125 923.65625 146.066406 C 922.125 147.324219 920.660156 148.652344 919.261719 150.050781 C 917.863281 151.449219 916.535156 152.914062 915.277344 154.445312 C 914.023438 155.972656 912.847656 157.5625 911.746094 159.207031 C 910.648438 160.851562 909.632812 162.546875 908.699219 164.292969 C 907.765625 166.039062 906.921875 167.824219 906.164062 169.652344 C 905.40625 171.480469 904.738281 173.34375 904.164062 175.234375 C 903.589844 177.128906 903.109375 179.046875 902.726562 180.988281 C 902.339844 182.929688 902.046875 184.882812 901.855469 186.855469 C 901.660156 188.824219 901.5625 190.796875 901.5625 192.777344 C 901.5625 194.753906 901.660156 196.730469 901.855469 198.699219 C 902.046875 200.667969 902.339844 202.625 902.722656 204.566406 C 903.109375 206.503906 903.589844 208.421875 904.164062 210.316406 C 904.738281 212.210938 905.40625 214.070312 906.164062 215.898438 C 906.921875 217.726562 907.765625 219.515625 908.699219 221.261719 C 909.632812 223.003906 910.648438 224.699219 911.746094 226.347656 C 912.847656 227.992188 914.023438 229.578125 915.277344 231.109375 C 916.535156 232.640625 917.863281 234.105469 919.261719 235.503906 C 920.660156 236.902344 922.125 238.230469 923.65625 239.484375 C 925.183594 240.742188 926.773438 241.917969 928.417969 243.015625 C 930.0625 244.117188 931.757812 245.132812 933.503906 246.066406 C 935.25 247 937.035156 247.84375 938.863281 248.601562 C 940.691406 249.359375 942.554688 250.023438 944.449219 250.597656 C 946.339844 251.171875 948.257812 251.652344 950.199219 252.039062 C 952.140625 252.425781 954.097656 252.714844 956.066406 252.910156 C 958.035156 253.105469 960.007812 253.199219 961.988281 253.199219 L 1439.464844 253.199219 C 1441.441406 253.199219 1443.417969 253.296875 1445.386719 253.492188 C 1447.355469 253.6875 1449.3125 253.976562 1451.253906 254.363281 C 1453.191406 254.75 1455.109375 255.226562 1457.003906 255.804688 C 1458.898438 256.378906 1460.757812 257.042969 1462.585938 257.800781 C 1464.414062 258.558594 1466.203125 259.402344 1467.949219 260.335938 C 1469.691406 261.269531 1471.386719 262.285156 1473.035156 263.382812 C 1474.679688 264.484375 1476.265625 265.660156 1477.796875 266.917969 C 1479.324219 268.171875 1480.789062 269.5 1482.191406 270.898438 C 1483.589844 272.296875 1484.917969 273.761719 1486.171875 275.292969 C 1487.429688 276.820312 1488.605469 278.410156 1489.703125 280.054688 C 1490.804688 281.699219 1491.820312 283.394531 1492.753906 285.140625 C 1493.6875 286.886719 1494.53125 288.671875 1495.289062 290.5 C 1496.046875 292.332031 1496.710938 294.191406 1497.285156 296.085938 C 1497.859375 297.980469 1498.339844 299.894531 1498.726562 301.835938 C 1499.113281 303.777344 1499.402344 305.734375 1499.597656 307.703125 C 1499.792969 309.671875 1499.886719 311.644531 1499.886719 313.625 Z M 314.519531 253.199219 L 60.425781 253.199219 C 58.445312 253.199219 56.472656 253.296875 54.5 253.492188 C 52.53125 253.6875 50.578125 253.976562 48.636719 254.363281 C 46.695312 254.746094 44.777344 255.226562 42.882812 255.804688 C 40.992188 256.378906 39.128906 257.042969 37.300781 257.800781 C 35.472656 258.558594 33.6875 259.402344 31.941406 260.335938 C 30.195312 261.269531 28.5 262.285156 26.855469 263.382812 C 25.210938 264.484375 23.621094 265.660156 22.089844 266.917969 C 20.5625 268.171875 19.097656 269.5 17.699219 270.898438 C 16.296875 272.296875 14.972656 273.761719 13.714844 275.292969 C 12.460938 276.824219 11.28125 278.410156 10.183594 280.054688 C 9.082031 281.699219 8.066406 283.394531 7.136719 285.140625 C 6.203125 286.886719 5.355469 288.671875 4.597656 290.5 C 3.84375 292.332031 3.175781 294.191406 2.601562 296.085938 C 2.027344 297.980469 1.546875 299.894531 1.160156 301.835938 C 0.773438 303.777344 0.484375 305.734375 0.289062 307.703125 C 0.0976562 309.671875 0 311.644531 0 313.625 C 0 315.605469 0.0976562 317.578125 0.289062 319.546875 C 0.484375 321.515625 0.773438 323.472656 1.160156 325.414062 C 1.546875 327.355469 2.027344 329.273438 2.601562 331.164062 C 3.175781 333.058594 3.84375 334.921875 4.597656 336.75 C 5.355469 338.578125 6.203125 340.363281 7.136719 342.109375 C 8.066406 343.855469 9.082031 345.550781 10.183594 347.195312 C 11.28125 348.839844 12.460938 350.429688 13.714844 351.957031 C 14.972656 353.488281 16.296875 354.953125 17.699219 356.351562 C 19.097656 357.75 20.5625 359.078125 22.089844 360.335938 C 23.621094 361.589844 25.210938 362.765625 26.855469 363.867188 C 28.5 364.964844 30.195312 365.980469 31.941406 366.914062 C 33.6875 367.847656 35.472656 368.691406 37.300781 369.449219 C 39.128906 370.207031 40.992188 370.875 42.882812 371.449219 C 44.777344 372.023438 46.695312 372.503906 48.636719 372.890625 C 50.578125 373.273438 52.53125 373.566406 54.5 373.757812 C 56.472656 373.953125 58.445312 374.050781 60.425781 374.050781 L 314.519531 374.050781 C 316.5 374.050781 318.472656 373.953125 320.441406 373.757812 C 322.410156 373.566406 324.367188 373.273438 326.308594 372.890625 C 328.25 372.503906 330.167969 372.023438 332.058594 371.449219 C 333.953125 370.875 335.816406 370.207031 337.644531 369.449219 C 339.472656 368.691406 341.257812 367.847656 343.003906 366.914062 C 344.75 365.980469 346.445312 364.964844 348.089844 363.867188 C 349.734375 362.765625 351.324219 361.589844 352.851562 360.335938 C 354.382812 359.078125 355.847656 357.75 357.246094 356.351562 C 358.644531 354.953125 359.972656 353.488281 361.226562 351.957031 C 362.484375 350.429688 363.660156 348.839844 364.761719 347.195312 C 365.859375 345.550781 366.875 343.855469 367.808594 342.109375 C 368.742188 340.363281 369.585938 338.578125 370.34375 336.75 C 371.101562 334.921875 371.769531 333.058594 372.34375 331.164062 C 372.917969 329.273438 373.398438 327.355469 373.78125 325.414062 C 374.167969 323.472656 374.460938 321.515625 374.652344 319.546875 C 374.847656 317.578125 374.945312 315.605469 374.945312 313.625 C 374.945312 311.644531 374.847656 309.671875 374.652344 307.703125 C 374.460938 305.734375 374.167969 303.777344 373.78125 301.835938 C 373.398438 299.894531 372.917969 297.980469 372.34375 296.085938 C 371.769531 294.191406 371.101562 292.332031 370.34375 290.5 C 369.585938 288.671875 368.742188 286.886719 367.808594 285.140625 C 366.875 283.394531 365.859375 281.699219 364.761719 280.054688 C 363.660156 278.410156 362.484375 276.820312 361.226562 275.292969 C 359.972656 273.761719 358.644531 272.296875 357.246094 270.898438 C 355.847656 269.5 354.382812 268.171875 352.851562 266.917969 C 351.324219 265.660156 349.734375 264.484375 348.089844 263.382812 C 346.445312 262.285156 344.75 261.269531 343.003906 260.335938 C 341.257812 259.402344 339.472656 258.558594 337.644531 257.800781 C 335.816406 257.042969 333.953125 256.378906 332.058594 255.804688 C 330.167969 255.226562 328.25 254.75 326.308594 254.363281 C 324.367188 253.976562 322.410156 253.6875 320.441406 253.492188 C 318.472656 253.296875 316.5 253.199219 314.519531 253.199219 Z M 215.898438 11.503906 C 213.917969 11.503906 211.945312 11.601562 209.976562 11.792969 C 208.003906 11.988281 206.050781 12.277344 204.109375 12.664062 C 202.167969 13.050781 200.25 13.53125 198.355469 14.105469 C 196.464844 14.679688 194.601562 15.34375 192.773438 16.101562 C 190.945312 16.859375 189.160156 17.707031 187.414062 18.636719 C 185.667969 19.570312 183.972656 20.585938 182.328125 21.6875 C 180.683594 22.785156 179.09375 23.964844 177.5625 25.21875 C 176.035156 26.472656 174.570312 27.800781 173.171875 29.199219 C 171.769531 30.601562 170.445312 32.066406 169.1875 33.59375 C 167.933594 35.125 166.753906 36.710938 165.65625 38.359375 C 164.558594 40.003906 163.539062 41.699219 162.609375 43.445312 C 161.675781 45.1875 160.828125 46.976562 160.074219 48.804688 C 159.316406 50.632812 158.648438 52.492188 158.074219 54.386719 C 157.5 56.28125 157.019531 58.199219 156.632812 60.140625 C 156.246094 62.082031 155.957031 64.035156 155.765625 66.003906 C 155.570312 67.972656 155.472656 69.949219 155.472656 71.925781 C 155.472656 73.90625 155.570312 75.882812 155.765625 77.851562 C 155.957031 79.820312 156.246094 81.773438 156.632812 83.714844 C 157.019531 85.65625 157.5 87.574219 158.074219 89.46875 C 158.648438 91.363281 159.316406 93.222656 160.074219 95.050781 C 160.828125 96.878906 161.675781 98.667969 162.609375 100.410156 C 163.539062 102.15625 164.558594 103.851562 165.65625 105.496094 C 166.753906 107.144531 167.933594 108.730469 169.1875 110.261719 C 170.445312 111.789062 171.769531 113.253906 173.171875 114.652344 C 174.570312 116.054688 176.035156 117.382812 177.5625 118.636719 C 179.09375 119.890625 180.683594 121.070312 182.328125 122.167969 C 183.972656 123.269531 185.667969 124.285156 187.414062 125.21875 C 189.160156 126.148438 190.945312 126.996094 192.773438 127.753906 C 194.601562 128.511719 196.464844 129.175781 198.355469 129.75 C 200.25 130.324219 202.167969 130.804688 204.109375 131.191406 C 206.050781 131.578125 208.003906 131.867188 209.976562 132.0625 C 211.945312 132.253906 213.917969 132.351562 215.898438 132.351562 C 217.875 132.351562 219.851562 132.253906 221.820312 132.0625 C 223.789062 131.867188 225.746094 131.578125 227.683594 131.191406 C 229.625 130.804688 231.542969 130.324219 233.4375 129.75 C 235.332031 129.175781 237.191406 128.511719 239.019531 127.753906 C 240.847656 126.996094 242.636719 126.148438 244.382812 125.21875 C 246.125 124.285156 247.820312 123.269531 249.46875 122.167969 C 251.113281 121.070312 252.699219 119.890625 254.230469 118.636719 C 255.761719 117.382812 257.222656 116.054688 258.625 114.652344 C 260.023438 113.253906 261.351562 111.789062 262.605469 110.261719 C 263.863281 108.730469 265.039062 107.144531 266.136719 105.496094 C 267.238281 103.851562 268.253906 102.15625 269.1875 100.410156 C 270.121094 98.667969 270.964844 96.878906 271.722656 95.050781 C 272.480469 93.222656 273.144531 91.363281 273.71875 89.46875 C 274.292969 87.574219 274.773438 85.65625 275.160156 83.714844 C 275.546875 81.773438 275.835938 79.820312 276.03125 77.851562 C 276.226562 75.882812 276.320312 73.90625 276.320312 71.925781 C 276.320312 69.949219 276.226562 67.972656 276.03125 66.003906 C 275.835938 64.035156 275.546875 62.082031 275.160156 60.140625 C 274.773438 58.199219 274.292969 56.28125 273.71875 54.386719 C 273.144531 52.492188 272.480469 50.632812 271.722656 48.804688 C 270.964844 46.976562 270.121094 45.1875 269.1875 43.445312 C 268.253906 41.699219 267.238281 40.003906 266.136719 38.359375 C 265.039062 36.710938 263.863281 35.125 262.605469 33.59375 C 261.351562 32.066406 260.023438 30.601562 258.625 29.199219 C 257.222656 27.800781 255.761719 26.472656 254.230469 25.21875 C 252.699219 23.964844 251.113281 22.785156 249.46875 21.6875 C 247.820312 20.585938 246.125 19.570312 244.382812 18.636719 C 242.636719 17.707031 240.847656 16.859375 239.019531 16.101562 C 237.191406 15.34375 235.332031 14.679688 233.4375 14.105469 C 231.542969 13.53125 229.625 13.050781 227.683594 12.664062 C 225.746094 12.277344 223.789062 11.988281 221.820312 11.792969 C 219.851562 11.601562 217.875 11.503906 215.898438 11.503906 Z M 215.898438 11.503906 " fill-opacity="1" fill-rule="nonzero"/></g></g></g></svg>