<svg xmlns="http://www.w3.org/2000/svg" xmlns:xlink="http://www.w3.org/1999/xlink" width="2000" zoomAndPan="magnify" viewBox="0 0 1500 1499.999933" height="2000" preserveAspectRatio="xMidYMid meet" version="1.0"><defs><filter x="0%" y="0%" width="100%" height="100%" id="481dc9b343"><feColorMatrix values="0 0 0 0 1 0 0 0 0 1 0 0 0 0 1 0 0 0 1 0" color-interpolation-filters="sRGB"/></filter><mask id="0b2a997233"><g filter="url(#481dc9b343)"><rect x="-150" width="1800" fill="#000000" y="-149.999993" height="1799.99992" fill-opacity="0.91"/></g></mask><clipPath id="bc3bb569b3"><rect x="0" width="1500" y="0" height="464"/></clipPath></defs><g mask="url(#0b2a997233)"><g transform="matrix(1, 0, 0, 1, 0, 514)"><g clip-path="url(#bc3bb569b3)"><path fill="#3a2a79" d="M 1189.765625 88.242188 C 1189.769531 89.449219 1189.742188 90.65625 1189.683594 91.859375 C 1189.628906 93.066406 1189.539062 94.269531 1189.425781 95.472656 C 1189.308594 96.675781 1189.160156 97.871094 1188.988281 99.066406 C 1188.8125 100.261719 1188.605469 101.453125 1188.371094 102.636719 C 1188.140625 103.820312 1187.875 105 1187.585938 106.171875 C 1187.292969 107.34375 1186.972656 108.503906 1186.621094 109.660156 C 1186.273438 110.816406 1185.894531 111.964844 1185.492188 113.101562 C 1185.085938 114.238281 1184.652344 115.363281 1184.191406 116.480469 C 1183.730469 117.597656 1183.242188 118.699219 1182.726562 119.792969 C 1182.210938 120.886719 1181.667969 121.964844 1181.101562 123.027344 C 1180.53125 124.09375 1179.9375 125.144531 1179.316406 126.179688 C 1178.699219 127.214844 1178.050781 128.238281 1177.382812 129.242188 C 1176.710938 130.246094 1176.015625 131.230469 1175.296875 132.203125 C 1174.578125 133.171875 1173.835938 134.125 1173.070312 135.058594 C 1172.304688 135.992188 1171.515625 136.90625 1170.707031 137.800781 C 1169.894531 138.695312 1169.0625 139.570312 1168.210938 140.421875 C 1167.355469 141.277344 1166.480469 142.109375 1165.585938 142.917969 C 1164.691406 143.730469 1163.777344 144.519531 1162.84375 145.285156 C 1161.910156 146.050781 1160.960938 146.792969 1159.988281 147.511719 C 1159.019531 148.230469 1158.03125 148.925781 1157.027344 149.59375 C 1156.023438 150.265625 1155.003906 150.910156 1153.96875 151.53125 C 1152.929688 152.152344 1151.878906 152.746094 1150.816406 153.3125 C 1149.75 153.882812 1148.671875 154.425781 1147.578125 154.9375 C 1146.488281 155.453125 1145.382812 155.941406 1144.269531 156.402344 C 1143.152344 156.863281 1142.027344 157.296875 1140.886719 157.703125 C 1139.75 158.109375 1138.605469 158.488281 1137.449219 158.835938 C 1136.292969 159.183594 1135.128906 159.503906 1133.957031 159.796875 C 1132.785156 160.089844 1131.609375 160.351562 1130.421875 160.585938 C 1129.238281 160.820312 1128.050781 161.023438 1126.855469 161.199219 C 1125.660156 161.375 1124.460938 161.519531 1123.261719 161.636719 C 1122.058594 161.753906 1120.855469 161.839844 1119.648438 161.898438 C 1118.441406 161.953125 1117.234375 161.980469 1116.027344 161.980469 L 866.777344 161.980469 C 865.570312 161.980469 864.363281 162.007812 863.15625 162.066406 C 861.953125 162.128906 860.75 162.214844 859.546875 162.335938 C 858.347656 162.453125 857.148438 162.601562 855.957031 162.777344 C 854.761719 162.953125 853.574219 163.160156 852.390625 163.394531 C 851.207031 163.632812 850.03125 163.894531 848.859375 164.1875 C 847.6875 164.480469 846.527344 164.804688 845.371094 165.152344 C 844.214844 165.503906 843.070312 165.882812 841.933594 166.289062 C 840.796875 166.695312 839.671875 167.128906 838.558594 167.59375 C 837.441406 168.054688 836.339844 168.542969 835.25 169.058594 C 834.15625 169.574219 833.078125 170.117188 832.015625 170.6875 C 830.953125 171.253906 829.902344 171.847656 828.867188 172.46875 C 827.832031 173.089844 826.8125 173.734375 825.808594 174.40625 C 824.804688 175.078125 823.820312 175.769531 822.851562 176.492188 C 821.878906 177.210938 820.929688 177.953125 819.996094 178.71875 C 819.0625 179.484375 818.148438 180.269531 817.257812 181.082031 C 816.363281 181.890625 815.488281 182.722656 814.636719 183.578125 C 813.78125 184.429688 812.949219 185.304688 812.140625 186.199219 C 811.328125 187.09375 810.539062 188.003906 809.773438 188.9375 C 809.007812 189.871094 808.265625 190.824219 807.546875 191.792969 C 806.828125 192.761719 806.136719 193.746094 805.464844 194.75 C 804.792969 195.753906 804.148438 196.773438 803.527344 197.808594 C 802.90625 198.84375 802.3125 199.894531 801.746094 200.957031 C 801.175781 202.023438 800.632812 203.097656 800.117188 204.191406 C 799.601562 205.28125 799.113281 206.382812 798.648438 207.5 C 798.1875 208.613281 797.753906 209.738281 797.347656 210.875 C 796.941406 212.011719 796.5625 213.15625 796.210938 214.3125 C 795.863281 215.46875 795.539062 216.628906 795.246094 217.800781 C 794.953125 218.972656 794.691406 220.148438 794.453125 221.332031 C 794.21875 222.515625 794.011719 223.703125 793.835938 224.898438 C 793.660156 226.089844 793.511719 227.289062 793.390625 228.488281 C 793.273438 229.691406 793.183594 230.894531 793.125 232.097656 C 793.066406 233.304688 793.039062 234.511719 793.039062 235.71875 C 793.046875 236.917969 793.085938 238.117188 793.152344 239.316406 C 793.21875 240.515625 793.316406 241.714844 793.445312 242.90625 C 793.570312 244.101562 793.726562 245.292969 793.910156 246.480469 C 794.09375 247.664062 794.308594 248.847656 794.550781 250.023438 C 794.792969 251.199219 795.0625 252.371094 795.363281 253.53125 C 795.660156 254.695312 795.988281 255.851562 796.34375 256.996094 C 796.699219 258.144531 797.082031 259.28125 797.496094 260.410156 C 797.90625 261.539062 798.34375 262.65625 798.808594 263.765625 C 799.277344 264.871094 799.769531 265.964844 800.289062 267.046875 C 800.808594 268.132812 801.351562 269.199219 801.925781 270.257812 C 802.496094 271.3125 803.09375 272.355469 803.714844 273.382812 C 804.339844 274.410156 804.988281 275.417969 805.660156 276.414062 C 806.332031 277.410156 807.027344 278.390625 807.746094 279.351562 C 808.464844 280.3125 809.207031 281.253906 809.972656 282.179688 C 810.738281 283.105469 811.527344 284.011719 812.339844 284.898438 C 813.148438 285.785156 813.980469 286.648438 814.832031 287.496094 C 815.683594 288.34375 816.558594 289.167969 817.449219 289.96875 C 818.34375 290.773438 819.253906 291.554688 820.183594 292.3125 C 821.117188 293.070312 822.066406 293.808594 823.03125 294.519531 C 824 295.230469 824.984375 295.921875 825.984375 296.585938 C 826.984375 297.25 828 297.890625 829.03125 298.503906 C 830.0625 299.117188 831.109375 299.707031 832.167969 300.269531 C 833.230469 300.835938 834.304688 301.371094 835.390625 301.882812 C 836.476562 302.394531 837.574219 302.878906 838.6875 303.335938 C 839.796875 303.792969 840.917969 304.222656 842.050781 304.625 C 843.179688 305.027344 844.320312 305.402344 845.472656 305.75 C 846.621094 306.097656 847.777344 306.417969 848.945312 306.707031 C 850.109375 306.996094 851.28125 307.257812 852.457031 307.492188 C 853.636719 307.726562 854.820312 307.929688 856.007812 308.105469 C 857.195312 308.28125 858.386719 308.425781 859.582031 308.542969 C 860.777344 308.660156 861.976562 308.75 863.175781 308.808594 C 864.375 308.867188 865.574219 308.894531 866.777344 308.894531 L 1425.5625 308.894531 C 1426.78125 308.886719 1428 308.90625 1429.21875 308.957031 C 1430.433594 309.007812 1431.652344 309.089844 1432.867188 309.203125 C 1434.078125 309.3125 1435.289062 309.453125 1436.496094 309.625 C 1437.707031 309.796875 1438.90625 309.996094 1440.105469 310.226562 C 1441.300781 310.457031 1442.492188 310.71875 1443.675781 311.007812 C 1444.863281 311.296875 1446.039062 311.617188 1447.207031 311.964844 C 1448.375 312.3125 1449.535156 312.691406 1450.683594 313.09375 C 1451.835938 313.5 1452.972656 313.933594 1454.101562 314.394531 C 1455.230469 314.859375 1456.347656 315.347656 1457.453125 315.863281 C 1458.554688 316.382812 1459.648438 316.925781 1460.722656 317.496094 C 1461.800781 318.066406 1462.863281 318.664062 1463.910156 319.289062 C 1464.960938 319.914062 1465.992188 320.5625 1467.007812 321.238281 C 1468.023438 321.910156 1469.019531 322.609375 1470 323.335938 C 1470.984375 324.058594 1471.945312 324.808594 1472.890625 325.578125 C 1473.832031 326.351562 1474.757812 327.144531 1475.660156 327.964844 C 1476.566406 328.78125 1477.449219 329.621094 1478.3125 330.480469 C 1479.175781 331.34375 1480.015625 332.226562 1480.835938 333.128906 C 1481.65625 334.03125 1482.453125 334.953125 1483.226562 335.898438 C 1484 336.839844 1484.75 337.800781 1485.476562 338.78125 C 1486.203125 339.761719 1486.902344 340.757812 1487.578125 341.769531 C 1488.257812 342.785156 1488.90625 343.816406 1489.535156 344.863281 C 1490.160156 345.910156 1490.757812 346.96875 1491.332031 348.046875 C 1491.90625 349.121094 1492.449219 350.210938 1492.96875 351.316406 C 1493.488281 352.417969 1493.980469 353.535156 1494.445312 354.664062 C 1494.910156 355.789062 1495.34375 356.929688 1495.753906 358.078125 C 1496.160156 359.226562 1496.539062 360.386719 1496.890625 361.554688 C 1497.238281 362.722656 1497.558594 363.898438 1497.851562 365.082031 C 1498.144531 366.265625 1498.40625 367.457031 1498.640625 368.652344 C 1498.871094 369.847656 1499.074219 371.050781 1499.25 372.257812 C 1499.421875 373.464844 1499.566406 374.675781 1499.679688 375.890625 C 1499.792969 377.105469 1499.878906 378.320312 1499.929688 379.539062 C 1499.984375 380.757812 1500.007812 381.976562 1500 383.195312 C 1500 384.402344 1499.96875 385.605469 1499.910156 386.8125 C 1499.851562 388.015625 1499.761719 389.21875 1499.644531 390.421875 C 1499.527344 391.621094 1499.378906 392.820312 1499.203125 394.015625 C 1499.023438 395.207031 1498.816406 396.394531 1498.582031 397.578125 C 1498.347656 398.761719 1498.082031 399.941406 1497.789062 401.109375 C 1497.496094 402.28125 1497.175781 403.445312 1496.824219 404.597656 C 1496.472656 405.753906 1496.097656 406.898438 1495.6875 408.035156 C 1495.28125 409.171875 1494.847656 410.296875 1494.386719 411.414062 C 1493.925781 412.527344 1493.4375 413.628906 1492.921875 414.722656 C 1492.402344 415.8125 1491.863281 416.890625 1491.292969 417.953125 C 1490.722656 419.019531 1490.128906 420.066406 1489.507812 421.101562 C 1488.886719 422.136719 1488.242188 423.15625 1487.574219 424.160156 C 1486.902344 425.164062 1486.207031 426.152344 1485.488281 427.121094 C 1484.769531 428.089844 1484.027344 429.039062 1483.261719 429.972656 C 1482.496094 430.90625 1481.707031 431.820312 1480.898438 432.714844 C 1480.085938 433.609375 1479.253906 434.480469 1478.402344 435.335938 C 1477.550781 436.1875 1476.675781 437.019531 1475.78125 437.832031 C 1474.886719 438.640625 1473.972656 439.429688 1473.039062 440.195312 C 1472.109375 440.960938 1471.15625 441.703125 1470.1875 442.421875 C 1469.21875 443.140625 1468.230469 443.835938 1467.226562 444.503906 C 1466.226562 445.175781 1465.207031 445.820312 1464.171875 446.441406 C 1463.136719 447.0625 1462.085938 447.65625 1461.023438 448.226562 C 1459.957031 448.792969 1458.878906 449.335938 1457.789062 449.851562 C 1456.699219 450.367188 1455.59375 450.859375 1454.480469 451.320312 C 1453.363281 451.78125 1452.238281 452.214844 1451.101562 452.621094 C 1449.96875 453.027344 1448.820312 453.40625 1447.667969 453.757812 C 1446.511719 454.109375 1445.347656 454.429688 1444.179688 454.722656 C 1443.007812 455.015625 1441.832031 455.28125 1440.648438 455.515625 C 1439.464844 455.75 1438.273438 455.957031 1437.082031 456.132812 C 1435.886719 456.3125 1434.691406 456.460938 1433.488281 456.578125 C 1432.289062 456.695312 1431.085938 456.785156 1429.878906 456.84375 C 1428.675781 456.902344 1427.46875 456.933594 1426.261719 456.933594 L 73.738281 456.933594 C 72.53125 456.933594 71.324219 456.90625 70.117188 456.851562 C 68.910156 456.792969 67.707031 456.707031 66.507812 456.589844 C 65.304688 456.472656 64.105469 456.328125 62.910156 456.152344 C 61.71875 455.976562 60.527344 455.773438 59.34375 455.539062 C 58.160156 455.304688 56.980469 455.042969 55.808594 454.75 C 54.636719 454.457031 53.472656 454.136719 52.316406 453.789062 C 51.160156 453.441406 50.015625 453.0625 48.878906 452.65625 C 47.742188 452.25 46.613281 451.816406 45.5 451.355469 C 44.382812 450.894531 43.277344 450.40625 42.1875 449.890625 C 41.09375 449.378906 40.015625 448.835938 38.949219 448.265625 C 37.886719 447.699219 36.835938 447.105469 35.796875 446.484375 C 34.761719 445.863281 33.742188 445.21875 32.738281 444.546875 C 31.734375 443.878906 30.746094 443.183594 29.777344 442.464844 C 28.808594 441.746094 27.855469 441.003906 26.921875 440.238281 C 25.988281 439.472656 25.074219 438.683594 24.179688 437.871094 C 23.285156 437.0625 22.410156 436.230469 21.554688 435.375 C 20.703125 434.523438 19.871094 433.648438 19.058594 432.753906 C 18.25 431.859375 17.460938 430.945312 16.695312 430.011719 C 15.929688 429.078125 15.1875 428.125 14.46875 427.15625 C 13.75 426.183594 13.054688 425.199219 12.382812 424.195312 C 11.714844 423.191406 11.070312 422.167969 10.449219 421.132812 C 9.828125 420.097656 9.234375 419.046875 8.664062 417.980469 C 8.097656 416.917969 7.554688 415.839844 7.039062 414.746094 C 6.523438 413.652344 6.035156 412.550781 5.574219 411.433594 C 5.113281 410.320312 4.679688 409.191406 4.277344 408.054688 C 3.871094 406.917969 3.492188 405.769531 3.144531 404.613281 C 2.792969 403.460938 2.472656 402.296875 2.183594 401.125 C 1.890625 399.953125 1.628906 398.773438 1.394531 397.589844 C 1.160156 396.40625 0.957031 395.214844 0.78125 394.019531 C 0.605469 392.824219 0.457031 391.628906 0.34375 390.425781 C 0.226562 389.222656 0.140625 388.019531 0.0820312 386.8125 C 0.0234375 385.609375 -0.00390625 384.402344 0 383.195312 C -0.0078125 381.980469 0.0117188 380.769531 0.0625 379.558594 C 0.113281 378.347656 0.191406 377.136719 0.304688 375.929688 C 0.414062 374.722656 0.554688 373.515625 0.722656 372.316406 C 0.894531 371.117188 1.09375 369.917969 1.320312 368.730469 C 1.550781 367.539062 1.808594 366.351562 2.09375 365.175781 C 2.382812 363.996094 2.699219 362.828125 3.042969 361.664062 C 3.386719 360.5 3.761719 359.347656 4.164062 358.203125 C 4.5625 357.058594 4.992188 355.925781 5.453125 354.804688 C 5.910156 353.679688 6.394531 352.570312 6.90625 351.46875 C 7.417969 350.371094 7.957031 349.285156 8.523438 348.214844 C 9.089844 347.140625 9.683594 346.082031 10.300781 345.039062 C 10.917969 343.996094 11.5625 342.96875 12.230469 341.957031 C 12.902344 340.945312 13.59375 339.953125 14.3125 338.972656 C 15.03125 337.996094 15.769531 337.039062 16.535156 336.097656 C 17.300781 335.15625 18.089844 334.234375 18.902344 333.335938 C 19.710938 332.433594 20.542969 331.550781 21.398438 330.691406 C 22.253906 329.828125 23.128906 328.992188 24.023438 328.171875 C 24.917969 327.355469 25.832031 326.558594 26.769531 325.789062 C 27.703125 325.015625 28.65625 324.265625 29.628906 323.542969 C 30.601562 322.816406 31.589844 322.113281 32.597656 321.4375 C 33.601562 320.761719 34.625 320.109375 35.664062 319.484375 C 36.703125 318.859375 37.753906 318.257812 38.824219 317.683594 C 39.890625 317.109375 40.972656 316.5625 42.066406 316.042969 C 43.164062 315.519531 44.269531 315.027344 45.390625 314.5625 C 46.507812 314.09375 47.640625 313.65625 48.78125 313.246094 C 49.921875 312.835938 51.070312 312.453125 52.230469 312.101562 C 53.390625 311.746094 54.558594 311.421875 55.734375 311.125 C 56.910156 310.828125 58.09375 310.5625 59.285156 310.324219 C 60.472656 310.085938 61.667969 309.878906 62.867188 309.699219 C 64.066406 309.523438 65.269531 309.371094 66.476562 309.253906 C 67.683594 309.132812 68.890625 309.042969 70.101562 308.984375 C 71.3125 308.925781 72.527344 308.894531 73.738281 308.894531 L 378.503906 308.894531 C 379.710938 308.898438 380.917969 308.871094 382.125 308.8125 C 383.332031 308.753906 384.535156 308.667969 385.738281 308.550781 C 386.9375 308.4375 388.136719 308.289062 389.332031 308.113281 C 390.527344 307.941406 391.714844 307.734375 392.898438 307.5 C 394.085938 307.265625 395.261719 307.003906 396.433594 306.710938 C 397.605469 306.421875 398.769531 306.101562 399.925781 305.75 C 401.082031 305.402344 402.226562 305.023438 403.363281 304.621094 C 404.503906 304.214844 405.628906 303.78125 406.746094 303.320312 C 407.859375 302.859375 408.964844 302.371094 410.058594 301.855469 C 411.148438 301.339844 412.226562 300.796875 413.292969 300.230469 C 414.359375 299.660156 415.410156 299.066406 416.445312 298.445312 C 417.480469 297.828125 418.5 297.179688 419.503906 296.511719 C 420.507812 295.839844 421.496094 295.144531 422.464844 294.425781 C 423.4375 293.707031 424.386719 292.964844 425.320312 292.199219 C 426.253906 291.433594 427.167969 290.644531 428.0625 289.835938 C 428.957031 289.023438 429.832031 288.191406 430.6875 287.339844 C 431.539062 286.484375 432.371094 285.609375 433.183594 284.714844 C 433.996094 283.820312 434.78125 282.90625 435.546875 281.972656 C 436.3125 281.039062 437.054688 280.089844 437.773438 279.117188 C 438.496094 278.148438 439.1875 277.160156 439.859375 276.15625 C 440.53125 275.152344 441.175781 274.132812 441.792969 273.097656 C 442.414062 272.058594 443.007812 271.011719 443.578125 269.945312 C 444.144531 268.878906 444.6875 267.800781 445.203125 266.707031 C 445.71875 265.617188 446.207031 264.511719 446.667969 263.398438 C 447.128906 262.28125 447.5625 261.15625 447.96875 260.015625 C 448.371094 258.878906 448.75 257.734375 449.097656 256.578125 C 449.449219 255.421875 449.769531 254.257812 450.0625 253.085938 C 450.351562 251.914062 450.617188 250.738281 450.847656 249.550781 C 451.082031 248.367188 451.289062 247.179688 451.464844 245.984375 C 451.636719 244.789062 451.785156 243.589844 451.902344 242.386719 C 452.015625 241.1875 452.105469 239.984375 452.160156 238.777344 C 452.21875 237.570312 452.246094 236.363281 452.242188 235.15625 C 452.234375 233.957031 452.199219 232.753906 452.132812 231.554688 C 452.070312 230.355469 451.972656 229.15625 451.847656 227.960938 C 451.726562 226.765625 451.570312 225.574219 451.390625 224.386719 C 451.207031 223.199219 450.996094 222.019531 450.753906 220.839844 C 450.511719 219.664062 450.242188 218.492188 449.945312 217.328125 C 449.648438 216.164062 449.320312 215.007812 448.96875 213.859375 C 448.613281 212.710938 448.230469 211.574219 447.820312 210.445312 C 447.410156 209.316406 446.972656 208.195312 446.507812 207.089844 C 446.042969 205.980469 445.550781 204.886719 445.03125 203.800781 C 444.511719 202.71875 443.96875 201.648438 443.394531 200.589844 C 442.824219 199.53125 442.226562 198.488281 441.605469 197.460938 C 440.984375 196.433594 440.335938 195.421875 439.664062 194.425781 C 438.992188 193.429688 438.296875 192.449219 437.578125 191.488281 C 436.859375 190.527344 436.113281 189.582031 435.347656 188.65625 C 434.582031 187.730469 433.792969 186.824219 432.984375 185.9375 C 432.171875 185.050781 431.339844 184.183594 430.488281 183.335938 C 429.636719 182.492188 428.761719 181.664062 427.871094 180.863281 C 426.976562 180.058594 426.0625 179.277344 425.132812 178.519531 C 424.199219 177.757812 423.25 177.023438 422.285156 176.3125 C 421.316406 175.597656 420.332031 174.910156 419.332031 174.246094 C 418.328125 173.582031 417.3125 172.941406 416.28125 172.328125 C 415.246094 171.714844 414.199219 171.125 413.136719 170.5625 C 412.078125 170 411.003906 169.460938 409.914062 168.953125 C 408.828125 168.441406 407.726562 167.957031 406.617188 167.5 C 405.503906 167.042969 404.382812 166.613281 403.25 166.214844 C 402.117188 165.8125 400.976562 165.4375 399.824219 165.09375 C 398.675781 164.746094 397.515625 164.429688 396.347656 164.140625 C 395.183594 163.851562 394.011719 163.589844 392.832031 163.359375 C 391.652344 163.128906 390.46875 162.925781 389.28125 162.75 C 388.089844 162.578125 386.898438 162.433594 385.703125 162.316406 C 384.503906 162.203125 383.308594 162.117188 382.109375 162.058594 C 380.90625 162.003906 379.707031 161.976562 378.503906 161.980469 L 110.886719 161.980469 C 109.679688 161.980469 108.476562 161.949219 107.269531 161.890625 C 106.0625 161.832031 104.859375 161.742188 103.660156 161.625 C 102.460938 161.503906 101.261719 161.359375 100.066406 161.179688 C 98.875 161.003906 97.6875 160.796875 96.503906 160.5625 C 95.320312 160.328125 94.140625 160.0625 92.972656 159.769531 C 91.800781 159.476562 90.636719 159.152344 89.484375 158.804688 C 88.328125 158.453125 87.183594 158.074219 86.046875 157.667969 C 84.910156 157.261719 83.785156 156.828125 82.667969 156.367188 C 81.554688 155.902344 80.453125 155.414062 79.359375 154.898438 C 78.269531 154.382812 77.191406 153.839844 76.128906 153.273438 C 75.0625 152.703125 74.015625 152.109375 72.980469 151.488281 C 71.945312 150.867188 70.925781 150.222656 69.921875 149.550781 C 68.917969 148.882812 67.929688 148.1875 66.960938 147.46875 C 65.992188 146.75 65.042969 146.007812 64.109375 145.242188 C 63.175781 144.476562 62.261719 143.6875 61.367188 142.878906 C 60.472656 142.066406 59.601562 141.234375 58.746094 140.382812 C 57.894531 139.527344 57.0625 138.65625 56.25 137.761719 C 55.441406 136.867188 54.652344 135.953125 53.886719 135.019531 C 53.121094 134.085938 52.378906 133.136719 51.660156 132.167969 C 50.941406 131.199219 50.246094 130.210938 49.578125 129.207031 C 48.90625 128.203125 48.261719 127.183594 47.640625 126.148438 C 47.019531 125.113281 46.425781 124.066406 45.855469 123 C 45.289062 121.9375 44.746094 120.859375 44.230469 119.769531 C 43.714844 118.675781 43.222656 117.574219 42.761719 116.460938 C 42.300781 115.34375 41.867188 114.21875 41.460938 113.082031 C 41.054688 111.945312 40.675781 110.800781 40.324219 109.644531 C 39.972656 108.492188 39.652344 107.328125 39.359375 106.15625 C 39.066406 104.988281 38.800781 103.808594 38.566406 102.625 C 38.332031 101.441406 38.125 100.253906 37.949219 99.058594 C 37.769531 97.867188 37.621094 96.667969 37.503906 95.46875 C 37.386719 94.265625 37.296875 93.0625 37.238281 91.859375 C 37.179688 90.652344 37.148438 89.449219 37.148438 88.242188 C 37.148438 87.035156 37.179688 85.828125 37.238281 84.621094 C 37.296875 83.417969 37.386719 82.214844 37.503906 81.011719 C 37.621094 79.8125 37.769531 78.613281 37.949219 77.421875 C 38.125 76.226562 38.332031 75.039062 38.566406 73.855469 C 38.800781 72.671875 39.066406 71.496094 39.359375 70.324219 C 39.652344 69.152344 39.972656 67.992188 40.324219 66.835938 C 40.675781 65.679688 41.054688 64.535156 41.460938 63.398438 C 41.867188 62.261719 42.300781 61.136719 42.761719 60.023438 C 43.222656 58.90625 43.714844 57.804688 44.230469 56.714844 C 44.746094 55.621094 45.289062 54.546875 45.855469 53.480469 C 46.425781 52.417969 47.019531 51.367188 47.640625 50.332031 C 48.261719 49.296875 48.90625 48.277344 49.578125 47.273438 C 50.246094 46.269531 50.941406 45.285156 51.660156 44.316406 C 52.378906 43.34375 53.121094 42.394531 53.886719 41.460938 C 54.652344 40.527344 55.441406 39.617188 56.25 38.722656 C 57.0625 37.828125 57.894531 36.953125 58.746094 36.101562 C 59.601562 35.246094 60.472656 34.414062 61.367188 33.605469 C 62.261719 32.792969 63.175781 32.007812 64.109375 31.242188 C 65.042969 30.476562 65.992188 29.734375 66.960938 29.011719 C 67.929688 28.292969 68.917969 27.601562 69.921875 26.929688 C 70.925781 26.257812 71.945312 25.613281 72.980469 24.992188 C 74.015625 24.371094 75.0625 23.777344 76.128906 23.210938 C 77.191406 22.640625 78.269531 22.097656 79.359375 21.582031 C 80.453125 21.066406 81.554688 20.578125 82.667969 20.117188 C 83.785156 19.652344 84.910156 19.21875 86.046875 18.8125 C 87.183594 18.40625 88.328125 18.027344 89.484375 17.675781 C 90.636719 17.328125 91.800781 17.003906 92.972656 16.710938 C 94.140625 16.417969 95.320312 16.15625 96.503906 15.917969 C 97.6875 15.683594 98.875 15.476562 100.066406 15.300781 C 101.261719 15.125 102.460938 14.976562 103.660156 14.859375 C 104.859375 14.738281 106.0625 14.652344 107.269531 14.589844 C 108.476562 14.53125 109.679688 14.503906 110.886719 14.503906 L 1116.027344 14.503906 C 1117.234375 14.5 1118.441406 14.527344 1119.648438 14.585938 C 1120.855469 14.640625 1122.058594 14.726562 1123.261719 14.84375 C 1124.460938 14.960938 1125.660156 15.105469 1126.855469 15.28125 C 1128.050781 15.457031 1129.238281 15.664062 1130.421875 15.894531 C 1131.609375 16.128906 1132.785156 16.394531 1133.957031 16.683594 C 1135.128906 16.976562 1136.292969 17.296875 1137.449219 17.644531 C 1138.605469 17.996094 1139.75 18.371094 1140.886719 18.777344 C 1142.027344 19.183594 1143.152344 19.617188 1144.269531 20.078125 C 1145.382812 20.539062 1146.488281 21.027344 1147.578125 21.542969 C 1148.671875 22.058594 1149.75 22.597656 1150.816406 23.167969 C 1151.878906 23.738281 1152.929688 24.332031 1153.96875 24.949219 C 1155.003906 25.570312 1156.023438 26.214844 1157.027344 26.886719 C 1158.03125 27.558594 1159.019531 28.25 1159.988281 28.96875 C 1160.960938 29.6875 1161.910156 30.429688 1162.84375 31.195312 C 1163.777344 31.964844 1164.691406 32.75 1165.585938 33.5625 C 1166.480469 34.371094 1167.355469 35.203125 1168.210938 36.058594 C 1169.0625 36.914062 1169.894531 37.785156 1170.707031 38.679688 C 1171.515625 39.578125 1172.304688 40.492188 1173.070312 41.425781 C 1173.835938 42.355469 1174.578125 43.308594 1175.296875 44.277344 C 1176.015625 45.25 1176.710938 46.238281 1177.382812 47.242188 C 1178.050781 48.246094 1178.699219 49.265625 1179.316406 50.300781 C 1179.9375 51.335938 1180.53125 52.386719 1181.101562 53.453125 C 1181.667969 54.519531 1182.210938 55.597656 1182.726562 56.6875 C 1183.242188 57.78125 1183.730469 58.882812 1184.191406 60 C 1184.652344 61.117188 1185.085938 62.242188 1185.492188 63.378906 C 1185.894531 64.519531 1186.273438 65.664062 1186.621094 66.820312 C 1186.972656 67.976562 1187.292969 69.140625 1187.585938 70.3125 C 1187.875 71.484375 1188.140625 72.660156 1188.371094 73.84375 C 1188.605469 75.03125 1188.8125 76.21875 1188.988281 77.414062 C 1189.160156 78.609375 1189.308594 79.808594 1189.425781 81.007812 C 1189.539062 82.210938 1189.628906 83.414062 1189.683594 84.621094 C 1189.742188 85.828125 1189.769531 87.035156 1189.765625 88.242188 Z M 1189.765625 88.242188 " fill-opacity="1" fill-rule="nonzero"/></g></g></g></svg>