<svg xmlns="http://www.w3.org/2000/svg" xmlns:xlink="http://www.w3.org/1999/xlink" width="2000" zoomAndPan="magnify" viewBox="0 0 1500 1499.999933" height="2000" preserveAspectRatio="xMidYMid meet" version="1.0"><defs><filter x="0%" y="0%" width="100%" height="100%" id="af9d8859a0"><feColorMatrix values="0 0 0 0 1 0 0 0 0 1 0 0 0 0 1 0 0 0 1 0" color-interpolation-filters="sRGB"/></filter><mask id="c3e4ef9de8"><g filter="url(#af9d8859a0)"><rect x="-150" width="1800" fill="#000000" y="-149.999993" height="1799.99992" fill-opacity="0.44"/></g></mask><clipPath id="073fc27e61"><rect x="0" width="1251" y="0" height="1500"/></clipPath></defs><g mask="url(#c3e4ef9de8)"><g transform="matrix(1, 0, 0, 1, 125, 0.000000000000112861)"><g clip-path="url(#073fc27e61)"><path fill="#ededed" d="M 677.898438 357.863281 C 674.539062 357.863281 672.457031 358.238281 670.585938 357.8125 C 639.253906 350.550781 614.539062 332.882812 591.582031 310.730469 C 567.136719 287.082031 546.742188 260.605469 528.488281 232.3125 C 513.21875 208.71875 499.074219 184.429688 484.449219 160.460938 C 472.171875 140.285156 460.480469 119.730469 447.402344 100.089844 C 434.058594 80.070312 419.644531 60.746094 398.878906 47.402344 C 377.207031 33.46875 353.824219 28.023438 328.203125 32.292969 C 305.835938 35.976562 286.085938 45.585938 267.082031 57.382812 C 225.605469 83.167969 187.117188 112.847656 153.058594 147.863281 C 124.609375 177.171875 99.359375 208.984375 79.019531 244.644531 C 59.21875 279.394531 44.589844 316.066406 36.15625 355.140625 C 27.5625 394.804688 24.304688 435 29.589844 475.300781 C 32.847656 500.175781 37.0625 525.105469 43.417969 549.394531 C 53.71875 588.789062 70.746094 625.515625 91.566406 660.585938 C 103.628906 680.871094 114.519531 701.851562 125.300781 722.882812 C 138.433594 748.453125 144.304688 776.53125 151.085938 804.179688 C 155.460938 821.902344 159.304688 839.894531 161.175781 857.988281 C 163.46875 879.660156 163.523438 901.546875 164.378906 923.378906 C 164.429688 925.300781 162.9375 927.171875 162.347656 929.144531 C 161.335938 932.507812 158.984375 936.40625 159.894531 939.234375 C 162.667969 948.042969 158.613281 954.554688 154.394531 961.28125 C 152.101562 965.015625 148.257812 967.953125 149.75 973.238281 C 150.019531 974.09375 148.84375 975.480469 148.097656 976.496094 C 137.101562 991.175781 124.449219 1004.894531 115.480469 1020.746094 C 100.105469 1047.863281 93.914062 1077.542969 96.742188 1109.144531 C 100.800781 1154.199219 116.816406 1195.089844 136.941406 1235.015625 C 153.488281 1267.898438 174.785156 1297.417969 199.019531 1324.75 C 245.25 1376.902344 300.125 1417.367188 364.554688 1444.589844 C 419.804688 1467.917969 477.347656 1479.449219 537.242188 1478.378906 C 583.738281 1477.578125 628.84375 1468.71875 672.136719 1451.691406 C 703.148438 1439.464844 732.722656 1424.199219 759.625 1404.339844 C 778.578125 1390.300781 797.207031 1375.730469 815.410156 1360.730469 C 827.3125 1350.90625 838.097656 1339.695312 849.519531 1329.289062 C 863.558594 1316.476562 876.421875 1301.582031 892.382812 1291.867188 C 906.796875 1283.058594 920.464844 1270.675781 938.878906 1269.609375 C 943.523438 1269.339844 948.59375 1268.539062 952.8125 1269.980469 C 964.554688 1274.039062 976.566406 1276.492188 987.828125 1283.113281 C 1011.53125 1297.152344 1032.136719 1315.515625 1055.835938 1329.289062 C 1072.863281 1339.164062 1089.785156 1349.894531 1108.097656 1356.671875 C 1133.878906 1366.175781 1161.15625 1369.589844 1188.433594 1362.277344 C 1201.941406 1358.648438 1215.019531 1353.46875 1228.097656 1348.558594 C 1232.257812 1347.011719 1234.609375 1347.0625 1236.742188 1351.335938 C 1239.894531 1357.578125 1243.578125 1363.558594 1247.097656 1369.589844 C 1249.019531 1372.847656 1249.128906 1375.355469 1245.390625 1377.4375 C 1221.101562 1390.890625 1195.695312 1400.710938 1167.667969 1403.113281 C 1140.605469 1405.410156 1114.609375 1400.976562 1089.574219 1391.261719 C 1078.789062 1387.097656 1068.753906 1380.855469 1058.71875 1374.929688 C 1047.988281 1368.628906 1037.6875 1361.636719 1027.117188 1354.964844 C 1018.257812 1349.359375 1009.339844 1343.808594 1000.480469 1338.203125 C 993.058594 1333.558594 986.175781 1327.417969 978.167969 1324.484375 C 957.347656 1316.851562 936.421875 1310.925781 914.804688 1324.164062 C 904.394531 1330.570312 893.238281 1335.960938 882.9375 1342.6875 C 877.332031 1346.371094 872.367188 1351.121094 867.027344 1355.285156 C 842.847656 1373.859375 818.824219 1392.597656 794.429688 1410.960938 C 761.015625 1436.101562 724.179688 1455.375 685.375 1470.375 C 650.089844 1483.984375 613.257812 1492.367188 575.460938 1496.476562 C 544.339844 1499.894531 513.167969 1499.519531 482.207031 1496.101562 C 438.113281 1491.246094 395.515625 1479.929688 354.625 1462.367188 C 319.128906 1447.152344 285.980469 1427.933594 255.285156 1404.609375 C 225.820312 1382.242188 199.179688 1356.886719 175.054688 1328.648438 C 150.550781 1299.980469 129.304688 1269.019531 110.675781 1236.457031 C 81.742188 1185.960938 61.992188 1132.257812 57.882812 1073.539062 C 55.695312 1042.257812 60.550781 1012.152344 74.21875 984.179688 C 80.835938 970.675781 89.324219 957.8125 99.464844 946.066406 C 103.789062 940.996094 111.796875 936.511719 111.210938 927.597656 C 111.15625 926.742188 112.222656 925.78125 112.917969 924.980469 C 127.117188 908.59375 127.863281 888.84375 128.398438 868.398438 C 128.71875 855.691406 127.542969 843.253906 126.851562 830.710938 C 126.421875 822.703125 124.660156 814.695312 122.953125 806.851562 C 119.964844 793.183594 117.457031 779.359375 113.023438 766.121094 C 107.367188 749.25 101.015625 732.4375 93.0625 716.582031 C 76.460938 683.539062 56.867188 651.886719 41.65625 618.203125 C 25.585938 582.652344 14.75 544.964844 8.664062 506.15625 C 1.511719 460.78125 1.03125 415.410156 8.023438 369.820312 C 18.433594 302.027344 45.710938 241.546875 86.496094 187.046875 C 115.480469 148.292969 149.75 114.449219 188.078125 84.714844 C 224.75 56.261719 263.183594 30.480469 305.941406 12.0625 C 326.761719 3.09375 349.074219 -0.214844 371.707031 3.894531 C 390.550781 7.3125 406.726562 16.652344 421.246094 29.039062 C 436.300781 41.957031 447.9375 57.652344 457.757812 74.625 C 469.660156 95.230469 481.085938 116.15625 492.667969 136.921875 C 500.570312 151.015625 508.148438 165.320312 516.316406 179.253906 C 532.863281 207.382812 549.625 235.570312 571.03125 260.125 C 585.710938 276.886719 600.765625 294.289062 621.316406 305.070312 C 625.214844 307.097656 628.203125 311.316406 632.207031 312.597656 C 636.851562 314.039062 642.1875 313.183594 647.207031 313.613281 C 649.289062 313.773438 652.492188 313.824219 653.292969 315.105469 C 661.511719 328.824219 669.359375 342.863281 677.898438 357.863281 Z M 677.898438 357.863281 " fill-opacity="1" fill-rule="nonzero"/><path fill="#ededed" d="M 709.875 418.078125 C 705.339844 417.382812 700.746094 416.902344 696.210938 415.996094 C 677.792969 412.3125 660.390625 405.585938 644.75 395.496094 C 628.46875 384.980469 612.347656 373.984375 597.667969 361.441406 C 566.121094 334.429688 538.417969 303.683594 514.394531 269.730469 C 494.058594 241.011719 474.144531 212.027344 454.128906 183.09375 C 437.953125 159.769531 421.300781 136.867188 399.894531 117.808594 C 381.851562 101.742188 361.78125 91.121094 337.0625 89.625 C 314.964844 88.289062 295.425781 95.605469 276.742188 105.800781 C 252.402344 119.089844 232.011719 137.722656 211.671875 156.296875 C 182.6875 182.722656 157.382812 212.402344 136.03125 245.285156 C 116.441406 275.445312 101.226562 307.847656 90.871094 342.4375 C 81.421875 373.929688 76.140625 406.171875 76.351562 438.894531 C 76.78125 508.398438 95.570312 572.773438 134.109375 631.011719 C 154.128906 661.28125 170.035156 693.628906 181.300781 728.007812 C 192.988281 763.609375 203.292969 799.695312 213.539062 835.730469 C 219.039062 855.160156 223.789062 874.804688 227.527344 894.609375 C 231.851562 917.5625 234.839844 940.835938 238.203125 964.003906 C 238.578125 966.617188 237.5625 969.449219 237.296875 972.167969 C 236.976562 975.960938 235.585938 980.175781 236.761719 983.488281 C 239.859375 992.5625 237.828125 1001.261719 236.386719 1010.015625 C 233.933594 1024.804688 230.410156 1039.324219 225.65625 1053.628906 C 221.226562 1066.972656 214.449219 1078.878906 208.097656 1091.15625 C 204.039062 1099.003906 200.730469 1107.277344 197.097656 1115.335938 C 194.910156 1120.140625 192.507812 1124.839844 190.480469 1129.75 C 184.554688 1144.109375 184.339844 1159.214844 185.035156 1174.375 C 186.796875 1214.089844 203.078125 1249.109375 224.21875 1281.246094 C 257.953125 1332.542969 304.128906 1370.496094 359.269531 1397.667969 C 401.65625 1418.539062 446.226562 1431.992188 493.308594 1435.675781 C 550.265625 1440.105469 605.035156 1431.296875 657.242188 1406.902344 C 698.503906 1387.578125 735.179688 1362.117188 766.566406 1329.128906 C 785.035156 1309.695312 802.757812 1289.519531 820.90625 1269.769531 C 833.984375 1255.570312 846.902344 1241.210938 860.570312 1227.597656 C 869.695312 1218.46875 879.679688 1210.195312 889.714844 1202.132812 C 906.957031 1188.308594 926.335938 1182.703125 948.808594 1184.890625 C 968.824219 1186.8125 985.960938 1194.609375 1002.082031 1205.390625 C 1022.738281 1219.214844 1042.757812 1234.164062 1063.84375 1247.292969 C 1085.300781 1260.585938 1106.707031 1274.144531 1131.902344 1280.335938 C 1151.867188 1285.25 1171.566406 1285.140625 1191.476562 1281.671875 C 1195.640625 1280.925781 1197.722656 1281.671875 1199.589844 1285.25 C 1202.953125 1291.652344 1206.476562 1297.953125 1210.214844 1304.089844 C 1212.667969 1308.203125 1212.242188 1310.390625 1207.277344 1311.9375 C 1185.660156 1318.558594 1163.453125 1320.800781 1141.511719 1316.371094 C 1116.316406 1311.296875 1092.882812 1300.78125 1071.636719 1286.101562 C 1055.730469 1275.105469 1040.089844 1263.683594 1024.179688 1252.632812 C 1011.53125 1243.824219 999.304688 1234.003906 985.746094 1226.796875 C 957.457031 1211.742188 928.738281 1210.675781 901.511719 1230 C 889.289062 1238.699219 877.277344 1247.882812 866.015625 1257.8125 C 857.152344 1265.605469 849.519531 1274.890625 841.351562 1283.488281 C 825.550781 1300.195312 809.910156 1317.0625 793.898438 1333.609375 C 763.308594 1365.265625 728.984375 1392.332031 689.964844 1412.722656 C 646.085938 1435.675781 599.644531 1450.140625 549.625 1453.289062 C 496.566406 1456.652344 445.214844 1449.339844 395.460938 1431.617188 C 342.027344 1412.5625 294.359375 1383.574219 252.617188 1344.820312 C 218.132812 1312.792969 190.320312 1275.90625 169.074219 1234.054688 C 153.753906 1203.949219 145.160156 1171.972656 145.265625 1138.078125 C 145.320312 1122.332031 148.738281 1107.0625 154.769531 1092.117188 C 161.707031 1075.035156 173.933594 1061.582031 183.007812 1045.996094 C 188.933594 1035.800781 196.457031 1026.191406 200.300781 1015.25 C 209.109375 990.371094 213.113281 964.644531 208.789062 938.007812 C 205.265625 916.226562 203.71875 894.019531 199.074219 872.507812 C 191.546875 837.8125 182.898438 803.273438 173.34375 769.054688 C 167.527344 748.183594 160.160156 727.578125 151.566406 707.667969 C 143.824219 689.730469 134.375 672.382812 124.019531 655.835938 C 101.65625 620.015625 81.691406 583.132812 70.214844 542.347656 C 61.351562 510.851562 55.90625 478.824219 55.105469 445.941406 C 53.664062 384.128906 67.917969 326.15625 95.996094 271.546875 C 114.519531 235.515625 138.328125 203.058594 166.296875 173.648438 C 197.3125 141.03125 231.101562 111.832031 269.109375 87.703125 C 286.992188 76.386719 306.261719 68.273438 327.507812 66.511719 C 355.105469 64.164062 379.019531 73.449219 400 91.171875 C 419.804688 107.882812 435.125 128.328125 449.054688 149.839844 C 467.257812 177.917969 484.714844 206.53125 503.34375 234.339844 C 530.25 274.484375 559.929688 312.382812 595.320312 345.53125 C 618.007812 366.777344 643.414062 383.699219 673.042969 393.683594 C 679.074219 395.710938 685.425781 397.257812 691.726562 397.792969 C 698.398438 398.378906 702.9375 400.726562 705.445312 407.082031 C 706.777344 410.390625 708.859375 413.328125 710.570312 416.476562 C 710.460938 416.957031 710.140625 417.542969 709.875 418.078125 Z M 709.875 418.078125 " fill-opacity="1" fill-rule="nonzero"/><path fill="#ededed" d="M 1172.953125 1238.167969 C 1157.898438 1240.621094 1144.5 1237.738281 1131.316406 1234.375 C 1110.765625 1229.089844 1091.976562 1219.484375 1074.039062 1208.273438 C 1056.210938 1197.117188 1038.699219 1185.425781 1020.925781 1174.269531 C 1003.46875 1163.378906 986.441406 1151.050781 966.476562 1145.550781 C 930.339844 1135.621094 896.867188 1141.761719 868.042969 1167.117188 C 859.019531 1175.070312 849.734375 1182.757812 841.03125 1191.085938 C 835.695312 1196.210938 831.210938 1202.242188 826.457031 1207.953125 C 800.730469 1239.074219 775.90625 1270.996094 749.109375 1301.101562 C 719.269531 1334.679688 683.933594 1361.691406 643.148438 1381.171875 C 595.746094 1403.859375 545.890625 1413.46875 493.417969 1409.785156 C 433.097656 1405.570312 379.128906 1384.644531 331.085938 1348.449219 C 308.183594 1331.15625 288.96875 1310.175781 272.738281 1286.15625 C 261.957031 1270.195312 253.523438 1253.433594 248.71875 1234.964844 C 242.472656 1210.78125 243.167969 1186.546875 250.105469 1162.472656 C 255.605469 1143.46875 261.050781 1124.464844 265.585938 1105.25 C 269.964844 1086.726562 274.660156 1068.09375 276.53125 1049.199219 C 280.800781 1006.707031 281.496094 964.164062 271.671875 922.097656 C 268.734375 909.5 267.082031 896.636719 264.09375 884.039062 C 261.261719 872.082031 257.578125 860.285156 253.949219 848.488281 C 247.8125 828.414062 241.992188 808.183594 235.054688 788.378906 C 223.203125 754.644531 210.605469 721.171875 198.273438 687.652344 C 186.476562 655.570312 167.578125 627.382812 149.695312 598.558594 C 131.066406 568.449219 118.628906 535.621094 111.53125 500.710938 C 100.054688 444.5 104.75 389.410156 122.847656 335.390625 C 136.832031 293.699219 158.664062 256.171875 186.261719 222.0625 C 210.925781 191.582031 237.9375 163.449219 270.550781 141.40625 C 289.554688 128.539062 310.695312 121.492188 333.914062 122.722656 C 354.414062 123.789062 372.027344 132.757812 388.253906 144.714844 C 410.675781 161.210938 427.492188 183.042969 444.414062 204.714844 C 475.160156 244.214844 505.054688 284.519531 537.082031 322.953125 C 563.933594 355.195312 595.746094 382.472656 630.445312 406.226562 C 656.921875 424.324219 686.015625 436.226562 717.722656 440.816406 C 725.996094 441.992188 728.503906 446.691406 731.226562 454.375 C 723.167969 452.933594 716.015625 452.027344 709.074219 450.371094 C 670.585938 441.246094 636.902344 422.5625 605.835938 398.59375 C 574.289062 374.304688 545.140625 347.402344 519.625 316.8125 C 495.445312 287.828125 472.117188 258.148438 448.097656 229.054688 C 430.054688 207.222656 412.0625 185.230469 389.429688 167.773438 C 365.035156 148.929688 338.132812 139.164062 307.011719 146.796875 C 285.335938 152.132812 267.027344 163.769531 250.90625 178.769531 C 219.144531 208.289062 191.441406 241.171875 170.140625 279.074219 C 144.464844 324.714844 128.878906 373.398438 126.636719 426.136719 C 125.300781 456.992188 128.773438 487.046875 136.9375 516.617188 C 144.785156 544.964844 156.636719 571.652344 172.917969 596.15625 C 193.203125 626.691406 209.484375 659.25 222.828125 693.308594 C 231.316406 714.929688 239.378906 736.707031 247.4375 758.488281 C 254.964844 778.769531 262.597656 799.054688 269.484375 819.554688 C 276.101562 839.25 282.402344 859.054688 287.6875 879.128906 C 291.371094 893.058594 293.34375 907.472656 295.535156 921.777344 C 296.386719 927.382812 294.785156 933.414062 295.960938 938.914062 C 299.964844 957.222656 299.589844 975.691406 299.109375 994.214844 C 298.46875 1018.664062 299.003906 1043.167969 297.136719 1067.507812 C 294.894531 1097.402344 290.460938 1127.082031 287.472656 1156.921875 C 285.710938 1174.484375 284.058594 1192.152344 283.789062 1209.769531 C 283.46875 1231.441406 289.980469 1251.726562 299.164062 1271.261719 C 322.0625 1320.160156 361.726562 1351.066406 409.820312 1371.566406 C 488.238281 1404.980469 565.535156 1398.894531 640.855469 1360.730469 C 684.199219 1338.734375 719.644531 1307.027344 750.070312 1269.609375 C 765.765625 1250.285156 780.445312 1230.160156 796.085938 1210.78125 C 810.339844 1193.113281 823.789062 1174.484375 840.125 1158.894531 C 860.035156 1139.839844 881.546875 1121.742188 910.960938 1118.378906 C 929.859375 1116.246094 948.378906 1116.03125 967.011719 1121.851562 C 984.359375 1127.242188 999.414062 1136.53125 1014.945312 1145.175781 C 1030.90625 1154.039062 1046.601562 1163.488281 1062.027344 1173.203125 C 1079.269531 1184.039062 1097.417969 1192.847656 1116.691406 1199.089844 C 1126.726562 1202.347656 1137.347656 1204.003906 1147.863281 1205.605469 C 1153.042969 1206.40625 1156.457031 1208.113281 1158.859375 1212.8125 C 1163.183594 1221.136719 1167.9375 1229.199219 1172.953125 1238.167969 Z M 1172.953125 1238.167969 " fill-opacity="1" fill-rule="nonzero"/><path fill="#ededed" d="M 743.773438 477.492188 C 737.367188 476.636719 731.335938 476.101562 725.410156 474.929688 C 682.703125 466.652344 645.019531 447.171875 609.574219 422.773438 C 566.226562 392.988281 528.539062 356.957031 493.097656 318.308594 C 465.550781 288.308594 438.21875 258.042969 409.394531 229.324219 C 397.492188 217.472656 382.757812 207.808594 367.917969 199.804688 C 339.574219 184.535156 310.960938 186.671875 283.203125 203.007812 C 263.664062 214.535156 248.71875 230.710938 235.265625 248.488281 C 212.472656 278.699219 194.109375 311.316406 182.792969 347.5625 C 163.578125 409.054688 163.042969 470.335938 188.664062 530.285156 C 195.871094 547.207031 205.695312 563.167969 215.195312 579.019531 C 236.65625 614.730469 254.539062 652.257812 272.046875 690 C 284.484375 716.851562 298.308594 743.007812 310.960938 769.75 C 316.460938 781.386719 320.730469 793.609375 325.105469 805.675781 C 328.148438 814.054688 330.871094 822.542969 332.847656 831.191406 C 334.609375 839.039062 335.570312 847.097656 336.050781 855.160156 C 337.0625 873.414062 338.183594 891.671875 338.183594 909.929688 C 338.183594 940.410156 337.652344 970.890625 336.902344 1001.371094 C 335.621094 1053.894531 336.636719 1106.316406 342.5625 1158.523438 C 345.660156 1186.066406 349.289062 1213.71875 359.429688 1239.769531 C 365.089844 1254.394531 371.335938 1269.179688 379.714844 1282.367188 C 390.285156 1298.96875 405.019531 1312.257812 421.886719 1322.828125 C 469.660156 1352.773438 520.90625 1358.96875 574.929688 1344.554688 C 623.71875 1331.582031 662.792969 1302.8125 697.011719 1266.886719 C 721.03125 1241.691406 740.835938 1213.023438 761.175781 1184.839844 C 777.1875 1162.632812 793.738281 1140.480469 812.207031 1120.355469 C 829.339844 1101.726562 848.878906 1085.285156 873.859375 1077.011719 C 913.789062 1063.773438 952.8125 1066.121094 990.820312 1083.628906 C 1015 1094.785156 1038.433594 1107.542969 1062.777344 1118.378906 C 1078.46875 1125.371094 1095.179688 1130.070312 1111.351562 1136.101562 C 1114.234375 1137.171875 1117.382812 1139.359375 1118.984375 1141.867188 C 1123.628906 1149.128906 1127.527344 1156.8125 1131.742188 1164.339844 C 1131.316406 1165.035156 1130.941406 1165.78125 1130.515625 1166.476562 C 1117.703125 1162.3125 1104.253906 1159.535156 1092.1875 1153.773438 C 1064.164062 1140.320312 1036.621094 1125.800781 1009.234375 1111.011719 C 986.496094 1098.734375 962.792969 1088.96875 937.011719 1086.992188 C 901.832031 1084.324219 870.125 1094.304688 842.738281 1117.257812 C 826.671875 1130.710938 812.152344 1145.605469 799.5 1162.207031 C 782.527344 1184.570312 766.351562 1207.578125 749.644531 1230.105469 C 718.417969 1272.277344 682.8125 1310.070312 636.902344 1336.492188 C 586.511719 1365.53125 532.492188 1376.582031 474.839844 1366.441406 C 446.546875 1361.476562 420.125 1350.746094 396.582031 1334.410156 C 367.8125 1314.449219 344.589844 1288.769531 333.539062 1255.140625 C 327.347656 1236.136719 324.785156 1215.53125 323.398438 1195.460938 C 321.371094 1166.15625 321.421875 1136.636719 321.421875 1107.222656 C 321.421875 1081.652344 322.972656 1056.03125 322.972656 1030.460938 C 323.023438 986.53125 322.917969 942.597656 321.796875 898.71875 C 321.421875 884.785156 318.007812 870.851562 315.070312 857.132812 C 312.457031 844.964844 309.359375 832.738281 304.980469 821.101562 C 297.242188 800.445312 288.699219 780.050781 280.054688 759.714844 C 266.816406 728.753906 252.9375 698.058594 239.910156 666.992188 C 227.152344 636.566406 210.765625 608.113281 192.988281 580.460938 C 174.945312 552.492188 162.027344 522.4375 155.621094 489.929688 C 148.042969 451.386719 148.628906 412.847656 157.277344 374.359375 C 165.550781 337.472656 180.070312 303.363281 200.355469 271.601562 C 218.238281 243.628906 238.363281 217.3125 264.253906 196.226562 C 281.546875 182.132812 301.085938 172.257812 324.09375 171.40625 C 351.050781 170.390625 373.203125 182.082031 393.59375 198.148438 C 419.378906 218.539062 439.929688 244.003906 461.066406 268.878906 C 493.683594 307.257812 526.300781 345.746094 564.359375 378.894531 C 601.671875 411.40625 640.855469 441.351562 688.523438 457.367188 C 703.578125 462.4375 719.429688 465.265625 735.019531 468.683594 C 739.289062 469.910156 742.917969 470.925781 743.773438 477.492188 Z M 743.773438 477.492188 " fill-opacity="1" fill-rule="nonzero"/><path fill="#ededed" d="M 752.417969 493.609375 C 734.378906 492.0625 716.816406 488.273438 699.625 482.5625 C 658.203125 468.84375 620.890625 447.488281 585.605469 422.082031 C 555.765625 400.570312 528.378906 376.171875 502.011719 350.65625 C 477.828125 327.222656 454.554688 302.773438 430.105469 279.609375 C 409.820312 260.390625 388.578125 242.132812 361.726562 232.257812 C 329.589844 220.460938 301.300781 228.148438 276.371094 250.300781 C 255.019531 269.25 241.140625 293.433594 229.609375 319.109375 C 210.390625 361.8125 202.332031 406.441406 207.5625 453.203125 C 211.992188 492.757812 228.167969 527.507812 249.894531 560.445312 C 264.519531 582.652344 276.742188 606.457031 290.515625 629.253906 C 302.792969 649.644531 315.605469 669.769531 328.363281 689.890625 C 337.757812 704.734375 346.992188 719.785156 357.296875 733.984375 C 364.820312 744.339844 368.453125 756.136719 372.722656 767.722656 C 374.429688 772.3125 374.109375 777.652344 374.699219 782.667969 C 374.910156 784.589844 374.484375 786.726562 375.230469 788.328125 C 379.609375 797.988281 378.058594 808.023438 377.152344 817.898438 C 373.898438 853.503906 369.785156 889.054688 366.851562 924.660156 C 365.035156 946.492188 364.394531 968.488281 363.808594 990.425781 C 363.328125 1008.09375 363.058594 1025.816406 363.96875 1043.433594 C 366.902344 1098.308594 376.832031 1151.851562 398.132812 1202.828125 C 408.113281 1226.691406 420.285156 1249.375 439.234375 1267.738281 C 471.476562 1298.914062 509.910156 1312.097656 554.324219 1306.8125 C 593.503906 1302.117188 625.960938 1283.488281 654.574219 1257.0625 C 679.980469 1233.628906 700.640625 1206.351562 720.230469 1178.113281 C 733.683594 1158.734375 747.242188 1139.359375 761.226562 1120.410156 C 769.179688 1109.625 777.402344 1098.84375 786.902344 1089.5 C 810.765625 1066.015625 836.496094 1045.730469 870.179688 1036.921875 C 893.558594 1030.835938 916.566406 1029.289062 940.214844 1032.382812 C 968.183594 1036.066406 993.96875 1046.582031 1019.910156 1056.886719 C 1038.859375 1064.414062 1058.613281 1069.964844 1078.042969 1076.421875 C 1079.804688 1077.011719 1082.207031 1077.492188 1083.058594 1078.824219 C 1087.757812 1086.511719 1092.082031 1094.464844 1096.566406 1102.3125 C 1096.246094 1102.847656 1095.871094 1103.328125 1095.550781 1103.859375 C 1087.332031 1101.296875 1078.898438 1099.324219 1070.941406 1096.011719 C 1042.011719 1084.054688 1013.34375 1071.457031 984.359375 1059.609375 C 964.554688 1051.492188 943.789062 1046.851562 922.222656 1047.011719 C 911.226562 1047.117188 899.910156 1046.902344 889.234375 1049.144531 C 859.714844 1055.445312 833.824219 1068.734375 811.351562 1089.5 C 789.304688 1109.945312 771.691406 1133.699219 754.449219 1157.933594 C 731.015625 1190.871094 708.914062 1224.875 680.835938 1254.234375 C 648.648438 1287.917969 612.136719 1315.195312 565.375 1325.015625 C 520.320312 1334.464844 477.988281 1327.632812 439.660156 1300.996094 C 424.074219 1290.160156 411.957031 1276.011719 401.175781 1260.425781 C 380.25 1230.160156 371.867188 1195.410156 364.660156 1160.230469 C 352.703125 1102.257812 350.25 1043.488281 352.0625 984.5 C 352.863281 957.492188 355.480469 930.53125 356.707031 903.46875 C 357.9375 876.886719 359.109375 850.25 358.84375 823.664062 C 358.738281 812.828125 355 801.9375 352.542969 791.210938 C 346.992188 766.8125 332.257812 746.902344 320.300781 725.605469 C 304.128906 696.886719 288.488281 667.792969 272.152344 639.179688 C 255.445312 609.929688 238.46875 580.835938 221.066406 552.011719 C 198.59375 514.695312 187.277344 474.449219 187.332031 430.941406 C 187.4375 360.375 213.058594 299.359375 257.792969 246.03125 C 275.089844 225.425781 297.242188 211.386719 325.160156 209.359375 C 343.148438 208.078125 359.589844 213.789062 375.175781 222.277344 C 397.542969 234.449219 415.90625 251.636719 433.578125 269.625 C 462.988281 299.625 491.601562 330.425781 521.441406 360 C 563.34375 401.53125 609.785156 437.242188 663.21875 462.8125 C 689.484375 475.355469 717.136719 483.894531 746.28125 486.9375 C 748.949219 487.207031 751.351562 489.820312 753.859375 491.316406 C 753.378906 492.011719 752.898438 492.8125 752.417969 493.609375 Z M 752.417969 493.609375 " fill-opacity="1" fill-rule="nonzero"/><path fill="#ededed" d="M 761.175781 508.128906 C 744.144531 507.277344 727.542969 504.074219 711.210938 499.269531 C 668.503906 486.726562 629.324219 466.867188 592.171875 442.527344 C 552.1875 416.371094 516.476562 385.035156 480.871094 353.433594 C 458.398438 333.46875 435.820312 313.558594 412.4375 294.714844 C 397.492188 282.648438 380.730469 272.933594 361.777344 268.128906 C 332.6875 260.816406 308.132812 269.785156 288.058594 290.976562 C 265.90625 314.304688 254.75 343.183594 248.503906 374.25 C 239.484375 418.824219 244.179688 461.796875 264.039062 502.738281 C 269.964844 514.964844 277.863281 526.28125 285.550781 537.492188 C 305.089844 566.210938 324.253906 595.25 345.179688 622.953125 C 357.9375 639.875 373.628906 654.554688 387.988281 670.25 C 398.503906 681.726562 407.632812 694.324219 413.558594 708.574219 C 417.082031 716.957031 418.683594 726.566406 419.164062 735.746094 C 420.605469 762.328125 416.546875 788.433594 410.890625 814.324219 C 401.226562 858.46875 391.085938 902.507812 387.347656 947.722656 C 380.835938 1026.777344 391.832031 1102.792969 427.492188 1174.214844 C 442.4375 1204.164062 462.667969 1230.371094 492.777344 1246.972656 C 536.175781 1270.941406 578.023438 1265.605469 618.378906 1239.128906 C 643.949219 1222.367188 663.539062 1199.730469 680.890625 1174.855469 C 699.414062 1148.273438 717.777344 1121.582031 737.3125 1095.746094 C 754.074219 1073.648438 772.703125 1053.09375 794.804688 1036.066406 C 813.808594 1021.441406 835.214844 1011.617188 858.058594 1004.730469 C 897.5625 992.828125 936.851562 996.085938 976.085938 1006.28125 C 1000.425781 1012.578125 1024.875 1018.503906 1049.21875 1024.804688 C 1051.300781 1025.335938 1053.808594 1026.617188 1054.875 1028.273438 C 1058.183594 1033.398438 1060.960938 1038.894531 1064.644531 1045.515625 C 1061.761719 1045.300781 1060 1045.410156 1058.398438 1044.929688 C 1034.910156 1037.882812 1011.421875 1030.941406 988.042969 1023.523438 C 964.769531 1016.101562 941.28125 1010.125 916.671875 1010.015625 C 896.335938 1009.910156 876.050781 1011.886719 856.777344 1018.453125 C 829.449219 1027.792969 805.265625 1042.578125 784.289062 1062.863281 C 763.628906 1082.882812 746.761719 1105.675781 730 1128.84375 C 708.058594 1159.214844 686.335938 1189.855469 662.847656 1219.054688 C 643.148438 1243.609375 618.488281 1263.09375 588.273438 1273.558594 C 537.828125 1291.011719 492.9375 1281.40625 454.875 1243.292969 C 428.023438 1216.386719 411.476562 1183.34375 399.625 1147.792969 C 383.503906 1099.375 376.296875 1049.464844 376.457031 998.539062 C 376.617188 958.613281 380.460938 918.949219 387.457031 879.554688 C 392.792969 849.554688 398.132812 819.5 401.496094 789.234375 C 403.523438 771.03125 404.699219 752.1875 397.917969 734.199219 C 391.9375 718.132812 382.8125 704.09375 372.136719 690.800781 C 354.574219 668.914062 336.421875 647.402344 319.929688 624.660156 C 305.300781 604.484375 292.652344 582.917969 279.144531 561.9375 C 270.285156 548.113281 260.941406 534.609375 252.667969 520.410156 C 234.199219 488.59375 226.511719 453.84375 227.207031 417.332031 C 227.898438 377.132812 238.417969 339.339844 258.378906 304.375 C 270.230469 283.609375 285.871094 266.476562 308.023438 256.066406 C 324.519531 248.328125 341.496094 247.738281 358.578125 252.597656 C 382.703125 259.429688 402.988281 273.46875 421.351562 289.855469 C 447.617188 313.292969 473.078125 337.578125 498.914062 361.496094 C 545.25 404.414062 594.359375 443.539062 651.421875 471.617188 C 684.359375 487.792969 718.738281 499.484375 755.515625 503.167969 C 757.703125 503.378906 759.734375 505.089844 761.867188 506.101562 C 761.707031 506.851562 761.441406 507.492188 761.175781 508.128906 Z M 761.175781 508.128906 " fill-opacity="1" fill-rule="nonzero"/><path fill="#ededed" d="M 766.832031 520.355469 C 751.511719 517.527344 735.925781 515.496094 720.820312 511.707031 C 674.21875 499.964844 631.460938 479.464844 590.835938 454.109375 C 554.003906 431.15625 520.160156 404.199219 486.742188 376.707031 C 459.464844 354.234375 432.828125 330.800781 401.386719 314.039062 C 392.097656 309.074219 381.902344 305.175781 371.707031 302.667969 C 341.496094 295.195312 317.953125 306.566406 300.871094 331.332031 C 282.722656 357.597656 277.011719 387.492188 278.773438 419.039062 C 280.855469 455.871094 295.320312 487.6875 316.9375 517.046875 C 339.253906 547.3125 361.511719 577.527344 389.003906 603.308594 C 406.351562 619.589844 424.660156 634.804688 442.011719 651.03125 C 449.21875 657.757812 456.851562 665.070312 460.960938 673.664062 C 464.429688 680.925781 469.609375 688.929688 466.671875 698.539062 C 462.027344 713.648438 457.972656 728.96875 454.019531 744.289062 C 440.730469 796.226562 421.621094 846.617188 411.957031 899.519531 C 398.34375 974.304688 403.578125 1047.277344 433.628906 1117.6875 C 444.679688 1143.628906 459.734375 1167.222656 480.339844 1186.652344 C 502.222656 1207.257812 527.632812 1220.230469 558.648438 1218.628906 C 583.46875 1217.347656 604.609375 1206.832031 623.664062 1191.511719 C 646.191406 1173.363281 662.6875 1150.089844 679.449219 1126.921875 C 695.25 1105.035156 710.460938 1082.507812 727.703125 1061.796875 C 752.632812 1031.796875 780.871094 1005.585938 817.492188 989.464844 C 840.980469 979.109375 865.105469 973.023438 890.460938 970.25 C 925.160156 966.457031 958.789062 973.558594 992.6875 978.683594 C 1002.988281 980.230469 1013.398438 981.40625 1023.808594 982.152344 C 1027.917969 982.472656 1030.480469 983.753906 1032.242188 987.488281 C 1034.429688 992.027344 1037.046875 996.351562 1040.515625 1002.597656 C 1028.878906 1000.675781 1018.84375 999.394531 1009.019531 997.3125 C 980.460938 991.332031 952.332031 983.167969 922.972656 981.832031 C 897.9375 980.710938 873.378906 983.058594 849.253906 990.480469 C 814.394531 1001.15625 784.980469 1020.050781 759.304688 1045.835938 C 741.316406 1063.878906 725.996094 1083.84375 711.101562 1104.339844 C 688.363281 1135.675781 668.398438 1169.199219 640.746094 1196.6875 C 616.03125 1221.246094 587.417969 1238.699219 551.066406 1238.699219 C 522.242188 1238.699219 498.273438 1226.796875 477.296875 1207.792969 C 458.023438 1190.335938 444.09375 1168.984375 432.507812 1145.976562 C 403.417969 1088.007812 394.289062 1026.03125 397.0625 962.082031 C 399.09375 915.265625 409.609375 869.839844 421.566406 824.625 C 428.773438 797.507812 434.75 770.015625 440.300781 742.527344 C 442.652344 730.941406 442.917969 718.878906 443.34375 707.027344 C 443.71875 696.992188 439.980469 688.183594 434.429688 679.535156 C 419.859375 656.851562 398.078125 641.371094 379.394531 622.847656 C 357.082031 600.691406 337.171875 576.566406 318.859375 551.15625 C 307.917969 535.941406 297.082031 520.621094 286.832031 504.875 C 273.007812 483.574219 265.535156 459.875 262.542969 434.785156 C 258.058594 397.578125 263.398438 361.972656 281.65625 328.929688 C 292.542969 309.234375 307.117188 293.21875 329.75 286.386719 C 348.378906 280.78125 365.996094 284.410156 383.238281 291.777344 C 405.660156 301.332031 424.714844 316.121094 443.238281 331.546875 C 476.65625 359.410156 509.269531 388.238281 543.273438 415.25 C 581.921875 445.941406 623.664062 471.9375 669.519531 490.78125 C 694.554688 501.085938 720.230469 509.199219 747.082031 513.148438 C 752.152344 513.894531 757.222656 514.164062 762.296875 514.910156 C 764.21875 515.175781 766.03125 516.136719 767.898438 516.777344 C 767.472656 518.007812 767.152344 519.179688 766.832031 520.355469 Z M 766.832031 520.355469 " fill-opacity="1" fill-rule="nonzero"/><path fill="#ededed" d="M 1016.28125 959.679688 C 1003.898438 959.089844 992.6875 958.984375 981.53125 958.023438 C 953.933594 955.570312 926.386719 952.046875 898.578125 953.59375 C 865.800781 955.410156 834.464844 963.253906 805.105469 977.722656 C 780.710938 989.785156 758.984375 1005.800781 739.714844 1025.335938 C 712.011719 1053.363281 689.539062 1085.445312 666.691406 1117.3125 C 649.609375 1141.121094 631.351562 1163.859375 605.996094 1179.769531 C 575.25 1199.089844 543.539062 1201.492188 511.300781 1184.199219 C 491.386719 1173.523438 475.855469 1157.507812 463.417969 1138.878906 C 425.835938 1082.613281 412.542969 1020.050781 415.375 953.21875 C 417.457031 904.324219 429.839844 857.722656 445.800781 811.867188 C 449.324219 801.832031 453.058594 791.796875 455.941406 781.546875 C 463.683594 754.269531 478.257812 730.570312 493.308594 706.972656 C 504.359375 689.679688 505.320312 674.570312 489.09375 660.105469 C 470.675781 643.71875 452.257812 627.332031 433.203125 611.742188 C 390.125 576.457031 352.597656 536.101562 322.542969 489.339844 C 300.445312 454.964844 292.8125 416.902344 303.59375 376.601562 C 307.917969 360.53125 315.390625 345.800781 328.789062 335.175781 C 348.378906 319.589844 370.214844 319.964844 392.472656 327.972656 C 415.800781 336.351562 435.980469 350.445312 455.675781 365.125 C 490.746094 391.28125 525.230469 418.183594 560.996094 443.273438 C 610.160156 477.757812 663.328125 504.609375 722.101562 518.914062 C 736.941406 522.492188 752.257812 523.933594 767.367188 526.441406 C 769.660156 526.8125 771.902344 527.613281 774.199219 528.203125 C 774.09375 528.949219 773.984375 529.644531 773.878906 530.390625 C 768.21875 529.964844 762.507812 529.75 756.851562 529.003906 C 722.257812 524.359375 689.324219 513.894531 657.136719 500.550781 C 614.378906 482.773438 574.980469 459.128906 537.242188 432.597656 C 505.855469 410.496094 475.105469 387.492188 443.292969 366.03125 C 424.769531 353.539062 405.285156 342.382812 382.222656 339.5 C 357.027344 336.351562 335.621094 347.988281 325.214844 371.210938 C 312.136719 400.300781 314.964844 429.394531 325.375 458.433594 C 332.953125 479.625 345.871094 497.613281 359.589844 515.125 C 379.769531 540.90625 401.707031 565.089844 426.582031 586.332031 C 446.816406 603.628906 468.273438 619.484375 488.878906 636.40625 C 499.5 645.160156 509.859375 654.449219 519.519531 664.269531 C 529.554688 674.519531 529.339844 688.398438 519.414062 700.410156 C 511.03125 710.550781 502.0625 720.265625 493.148438 730.035156 C 479.21875 745.300781 470.675781 763.449219 463.578125 782.613281 C 450.019531 819.449219 436.085938 856.066406 428.71875 894.820312 C 416.496094 958.984375 420.070312 1021.867188 445.265625 1082.613281 C 458.878906 1115.445312 477.988281 1144.644531 508.84375 1164.128906 C 535.425781 1180.941406 563.34375 1183.503906 592.332031 1170 C 617.472656 1158.253906 635.996094 1138.984375 652.542969 1117.578125 C 667.277344 1098.523438 680.996094 1078.71875 695.996094 1059.820312 C 721.832031 1027.3125 750.070312 997.578125 786.742188 976.386719 C 830.460938 951.085938 877.597656 942.011719 927.242188 942.011719 C 952.171875 942.011719 977.152344 942.171875 1002.082031 942.542969 C 1004.324219 942.597656 1007.3125 944.199219 1008.699219 946.011719 C 1011.261719 949.804688 1013.238281 954.289062 1016.28125 959.679688 Z M 1016.28125 959.679688 " fill-opacity="1" fill-rule="nonzero"/><path fill="#ededed" d="M 778.578125 539.839844 C 766.671875 538.289062 754.660156 537.277344 742.863281 535.089844 C 683.238281 523.984375 628.148438 500.871094 576.261719 469.964844 C 545.835938 451.8125 516.210938 432.277344 486.210938 413.488281 C 463.738281 399.394531 441.421875 384.875 415.375 377.988281 C 408.273438 376.121094 400.695312 375.210938 393.378906 375.425781 C 372.1875 376.171875 357.136719 392.722656 355.105469 416.742188 C 353.453125 436.761719 358.949219 455.285156 368.078125 472.6875 C 387.242188 509.359375 416.441406 537.863281 446.496094 565.355469 C 472.703125 589.324219 501.796875 609.660156 531.210938 629.570312 C 547.863281 640.835938 564.144531 652.6875 580.160156 664.75 C 584.484375 668.007812 588.007812 672.808594 590.730469 677.5625 C 593.453125 682.367188 591.851562 691.121094 584.910156 695.765625 C 574.074219 703.078125 562.8125 709.804688 551.28125 715.996094 C 534.199219 725.175781 517.011719 734.410156 503.878906 748.878906 C 494.964844 758.699219 486.316406 769.535156 480.871094 781.441406 C 463.683594 818.808594 448.789062 857.1875 442.277344 898.128906 C 438.21875 923.859375 437.097656 949.644531 439.019531 975.691406 C 441.101562 1004.039062 447.5625 1031.101562 458.613281 1057.097656 C 469.179688 1081.921875 483.753906 1104.128906 505.160156 1121.101562 C 538.417969 1147.527344 578.34375 1145.925781 612.828125 1117.472656 C 632.847656 1100.976562 648.808594 1080.800781 664.714844 1060.621094 C 694.609375 1022.773438 725.730469 986.527344 767.472656 960.640625 C 791.921875 945.480469 817.703125 934.804688 845.570312 927.917969 C 879.144531 919.644531 913.308594 916.386719 947.527344 912.757812 C 958.949219 911.53125 970.265625 909.5 981.53125 907.3125 C 985.105469 906.617188 987.027344 906.992188 988.628906 910.300781 C 990.445312 914.089844 992.6875 917.667969 995.460938 922.632812 C 989.054688 923.488281 983.503906 924.609375 977.953125 924.875 C 958.628906 925.835938 939.253906 925.941406 919.980469 927.488281 C 900.550781 929.089844 881.066406 931.121094 861.957031 934.695312 C 845.78125 937.6875 829.660156 941.957031 814.289062 947.773438 C 786.691406 958.238281 761.867188 973.878906 739.449219 993.09375 C 712.171875 1016.476562 689.75 1044.289062 668.132812 1072.847656 C 650.460938 1096.226562 632.953125 1119.769531 609.144531 1137.648438 C 579.09375 1160.285156 545.035156 1163.378906 514.074219 1145.070312 C 490.800781 1131.351562 474.679688 1110.640625 462.082031 1087.207031 C 444.839844 1055.125 435.5 1020.640625 432.242188 984.339844 C 427.492188 931.28125 436.511719 880.300781 454.820312 830.710938 C 461.496094 812.613281 468.539062 794.625 475.960938 776.851562 C 484.660156 755.871094 499.339844 739.484375 517.171875 725.816406 C 527.578125 717.8125 538.257812 710.125 548.824219 702.332031 C 567.402344 688.609375 565.855469 673.128906 548.773438 659.945312 C 528.648438 644.410156 508.46875 628.984375 487.917969 614.039062 C 440.890625 579.875 397.863281 541.546875 363.328125 494.410156 C 344.75 469.054688 333.007812 441.03125 335.195312 408.84375 C 336.261719 392.402344 341.707031 377.5625 355 366.671875 C 369.785156 354.554688 386.546875 355.460938 403.523438 359.945312 C 420.550781 364.429688 436.085938 372.4375 450.660156 382.097656 C 487.277344 406.332031 523.203125 431.691406 560.25 455.390625 C 611.28125 488.007812 665.300781 514.535156 724.875 527.882812 C 740.890625 531.457031 757.382812 532.847656 773.664062 535.300781 C 775.585938 535.621094 777.402344 536.53125 779.269531 537.171875 C 779.058594 538.128906 778.789062 538.984375 778.578125 539.839844 Z M 778.578125 539.839844 " fill-opacity="1" fill-rule="nonzero"/><path fill="#ededed" d="M 969.785156 877.097656 C 971.976562 880.941406 974.058594 884.570312 976.992188 889.75 C 965.730469 892.3125 955.375 894.929688 944.859375 896.957031 C 909.734375 903.734375 874.394531 909.5 839.429688 917.027344 C 786.050781 928.558594 741.742188 956.742188 704.699219 996.03125 C 680.300781 1021.867188 657.9375 1049.625 634.289062 1076.210938 C 619.609375 1092.703125 603.21875 1107.277344 582.1875 1115.605469 C 556.246094 1125.851562 532.277344 1121.371094 510.390625 1105.089844 C 487.917969 1088.378906 473.71875 1065.480469 463.523438 1039.964844 C 447.507812 999.929688 443.558594 958.34375 447.5625 915.585938 C 451.992188 867.972656 468.167969 824.039062 489.199219 781.707031 C 501.53125 756.886719 523.148438 741.457031 547.542969 730.089844 C 566.816406 721.066406 586.832031 713.59375 606.210938 704.890625 C 612.082031 702.222656 617.632812 698.273438 622.382812 693.84375 C 628.84375 687.863281 628.789062 680.445312 622.332031 674.304688 C 615.710938 668.058594 608.558594 662.1875 600.980469 657.171875 C 568.417969 635.710938 534.894531 615.691406 503.078125 593.21875 C 465.820312 566.957031 431.921875 536.691406 404.21875 500.125 C 390.285156 481.707031 379.234375 461.636719 377.953125 437.988281 C 377.527344 430.195312 379.019531 421.601562 382.171875 414.5 C 389.589844 397.738281 405.125 394.910156 425.035156 398.808594 C 449.964844 403.71875 471.53125 416.53125 492.882812 429.394531 C 542.207031 458.96875 590.996094 489.554688 644.378906 511.652344 C 679.449219 526.171875 715.640625 536.742188 753.167969 542.722656 C 761.976562 544.109375 770.941406 544.644531 779.804688 545.605469 C 781.246094 545.765625 782.632812 546.191406 784.019531 546.511719 C 783.96875 547.152344 783.863281 547.738281 783.808594 548.378906 C 777.1875 547.953125 770.570312 547.847656 764.003906 547.046875 C 698.132812 538.664062 637.171875 515.65625 578.984375 484.644531 C 546.101562 467.132812 513.648438 448.878906 480.820312 431.316406 C 466.300781 423.574219 451.085938 417.597656 434.539062 415.355469 C 406.886719 411.617188 394.929688 429.980469 399.199219 454.375 C 402.5625 473.59375 412.011719 490.035156 423.59375 505.25 C 448.097656 537.4375 477.882812 564.449219 510.925781 587.402344 C 541.300781 608.539062 573.328125 627.382812 604.664062 647.136719 C 616.511719 654.609375 628.738281 661.65625 640.375 669.449219 C 644.859375 672.4375 649.394531 676.441406 651.742188 681.085938 C 653.292969 684.234375 652.492188 690.695312 650.089844 693.148438 C 645.390625 698.007812 639.304688 702.277344 633.007812 704.679688 C 613.738281 712.046875 594.039062 718.238281 574.664062 725.285156 C 550.90625 733.933594 527.472656 743.699219 510.019531 762.8125 C 501.636719 771.9375 494.269531 782.507812 488.71875 793.558594 C 473.664062 823.503906 462.402344 854.945312 456.742188 888.09375 C 447.617188 941.636719 450.230469 994.003906 474.679688 1043.539062 C 486.476562 1067.453125 502.382812 1088.113281 527.472656 1099.855469 C 553.417969 1111.972656 577.492188 1106.316406 600.230469 1091.582031 C 616.832031 1080.851562 630.285156 1066.492188 643.308594 1051.761719 C 661.511719 1031.210938 679.554688 1010.445312 698.34375 990.480469 C 721.886719 965.496094 748.578125 943.933594 779.75 929.414062 C 799.449219 920.175781 820.695312 913.613281 841.832031 908.113281 C 875.25 899.414062 909.144531 892.6875 942.777344 884.890625 C 951.53125 882.863281 960.230469 879.875 969.785156 877.097656 Z M 969.785156 877.097656 " fill-opacity="1" fill-rule="nonzero"/><path fill="#ededed" d="M 953.558594 848.378906 C 955.425781 851.53125 957.136719 854.464844 959.539062 858.628906 C 949.5 862.152344 940.160156 865.996094 930.445312 868.664062 C 900.285156 876.992188 869.910156 884.625 839.804688 893.058594 C 812.578125 900.640625 785.355469 908.539062 760.214844 921.9375 C 739.929688 932.722656 721.832031 946.652344 705.445312 962.453125 C 686.121094 981.085938 668.238281 1001.15625 649.660156 1020.53125 C 633.21875 1037.722656 617.417969 1055.710938 596.976562 1068.523438 C 559.875 1091.691406 523.148438 1084.484375 496.9375 1049.253906 C 478.097656 1023.894531 468.539062 995.125 464.539062 964.214844 C 456.691406 903.628906 470.730469 847.152344 497.847656 793.453125 C 511.03125 767.292969 533.984375 751.546875 560.515625 741.726562 C 583.738281 733.132812 607.972656 727.097656 631.671875 719.734375 C 648.859375 714.394531 665.996094 708.84375 683.078125 703.078125 C 686.816406 701.796875 690.230469 699.394531 693.433594 696.992188 C 701.496094 690.90625 701.65625 683.21875 693.378906 677.1875 C 686.335938 672.0625 678.808594 667.578125 671.121094 663.414062 C 635.570312 644.253906 599.164062 626.421875 564.359375 605.925781 C 525.5 583.023438 489.734375 555.640625 460 521.210938 C 447.402344 506.582031 436.191406 490.941406 432.722656 471.296875 C 429.625 453.894531 437.902344 443.59375 455.570312 444.554688 C 464.964844 445.035156 474.785156 446.957031 483.433594 450.585938 C 506.761719 460.460938 529.714844 471.136719 552.402344 482.347656 C 597.402344 504.554688 642.722656 525.800781 691.246094 539.253906 C 719.269531 546.992188 747.617188 553.183594 776.816406 554.625 C 781.246094 554.839844 785.621094 556.015625 790 556.707031 C 789.894531 557.507812 789.734375 558.308594 789.625 559.164062 C 770.675781 556.761719 751.566406 555.105469 732.777344 551.796875 C 675.765625 541.761719 622.492188 520.515625 570.070312 496.601562 C 547.8125 486.457031 525.230469 476.957031 502.492188 468.09375 C 494.324219 464.894531 485.195312 463.503906 476.386719 462.652344 C 461.761719 461.261719 453.808594 470.070312 456.101562 484.589844 C 458.183594 498.042969 465.5 509.199219 473.613281 519.714844 C 498.699219 552.011719 530.996094 576.03125 564.894531 598.078125 C 603.433594 623.113281 644.964844 642.332031 686.761719 660.960938 C 696.261719 665.175781 705.390625 670.25 714.304688 675.640625 C 723.21875 681.03125 726.15625 687.222656 722.152344 692.773438 C 719.21875 696.832031 714.414062 700.515625 709.714844 702.117188 C 692.3125 708.203125 674.699219 714.019531 656.867188 718.664062 C 623.664062 727.367188 589.660156 733.183594 557.847656 746.902344 C 527.847656 759.875 505.855469 780.214844 493.257812 811.226562 C 477.347656 850.300781 466.671875 890.175781 467.578125 932.5625 C 468.21875 962.667969 473.984375 991.761719 488.132812 1018.773438 C 496.78125 1035.265625 507.828125 1049.839844 524.003906 1059.554688 C 550.375 1075.410156 575.570312 1069.855469 599.539062 1053.84375 C 619.179688 1040.765625 634.980469 1023.46875 651.210938 1006.492188 C 670.375 986.53125 690.445312 967.417969 710.25 948.09375 C 738.808594 920.230469 774.253906 905.175781 811.617188 893.753906 C 851.121094 881.691406 890.621094 869.785156 930.070312 857.5625 C 937.917969 855.265625 945.230469 851.691406 953.558594 848.378906 Z M 953.558594 848.378906 " fill-opacity="1" fill-rule="nonzero"/><path fill="#ededed" d="M 793.898438 566.421875 C 785.140625 565.941406 776.335938 565.835938 767.632812 564.929688 C 733.097656 561.351562 698.933594 555.265625 665.835938 544.695312 C 631.992188 533.914062 598.578125 521.851562 564.839844 510.90625 C 552.9375 507.0625 540.5 504.714844 528.273438 501.886719 C 525.820312 501.351562 523.148438 501.511719 520.640625 501.726562 C 511.566406 502.527344 506.441406 508.878906 510.070312 517.207031 C 514.179688 526.601562 519.519531 535.941406 526.191406 543.683594 C 548.824219 569.839844 577.597656 588.308594 607.277344 605.390625 C 646.460938 627.917969 688.417969 643.984375 730.695312 659.410156 C 742.0625 663.574219 753.113281 668.59375 764.324219 673.289062 C 765.5 673.769531 766.671875 674.304688 767.738281 675.050781 C 779.429688 682.898438 778.578125 689.679688 768.753906 695.070312 C 756.210938 701.957031 742.917969 708.574219 729.09375 712.046875 C 692.847656 721.171875 656.121094 728.433594 619.660156 736.761719 C 592.011719 743.058594 564.785156 750.585938 540.660156 766.28125 C 524.109375 777.0625 511.726562 791.210938 503.933594 809.464844 C 486.902344 849.128906 476.976562 890.175781 480.339844 933.683594 C 482.578125 962.667969 489.839844 990.050781 507.617188 1013.699219 C 529.714844 1043.007812 560.730469 1049.039062 592.4375 1030.621094 C 611.816406 1019.359375 627.507812 1003.71875 643.46875 988.34375 C 667.011719 965.765625 690.339844 942.96875 714.679688 921.296875 C 733.417969 904.589844 756.851562 895.675781 780.230469 887.507812 C 814.660156 875.496094 849.464844 864.609375 883.84375 852.488281 C 900.5 846.617188 916.511719 838.929688 932.792969 832.046875 C 935.675781 830.816406 938.503906 829.375 941.761719 827.882812 C 943.46875 830.65625 944.910156 832.953125 947.046875 836.421875 C 937.542969 840.585938 928.738281 845.285156 919.449219 848.433594 C 886.886719 859.324219 854.21875 869.730469 821.546875 880.25 C 793.148438 889.375 764.378906 897.808594 738.539062 913.183594 C 710.410156 929.945312 687.828125 953.328125 664.980469 976.332031 C 648.488281 992.933594 631.9375 1009.535156 614.859375 1025.550781 C 601.992188 1037.613281 587.207031 1047.011719 569.644531 1051.011719 C 548.292969 1055.871094 529.929688 1049.570312 514.394531 1034.785156 C 495.285156 1016.582031 485.460938 993.363281 479.964844 968.167969 C 468.59375 916.121094 477.9375 866.476562 496.566406 817.472656 C 511.351562 778.613281 540.335938 756.726562 578.183594 745.570312 C 609.09375 736.441406 640.746094 729.820312 672.082031 722.347656 C 695.890625 716.691406 720.015625 712.046875 742.011719 700.621094 C 744.253906 699.449219 746.386719 697.953125 748.417969 696.511719 C 757.277344 690.160156 757.382812 682.207031 747.828125 676.921875 C 736.511719 670.675781 724.714844 664.964844 712.703125 660.105469 C 666.371094 641.421875 620.410156 622.152344 578.078125 595.300781 C 550.054688 577.527344 523.203125 558.253906 501.691406 532.632812 C 494.003906 523.503906 486.582031 513.894531 484.660156 501.566406 C 483.007812 491.15625 487.597656 485.605469 498.113281 485.175781 C 502.757812 484.964844 507.667969 485.125 512.046875 486.40625 C 526.136719 490.515625 540.230469 494.730469 554.058594 499.75 C 592.222656 513.683594 629.964844 528.84375 668.453125 541.972656 C 701.335938 553.183594 735.390625 559.75 770.140625 562.257812 C 776.707031 562.738281 783.328125 563.058594 789.894531 563.539062 C 791.335938 563.648438 792.722656 564.128906 794.109375 564.449219 C 794.058594 565.089844 793.949219 565.78125 793.898438 566.421875 Z M 793.898438 566.421875 " fill-opacity="1" fill-rule="nonzero"/></g></g></g></svg>