<svg xmlns="http://www.w3.org/2000/svg" xmlns:xlink="http://www.w3.org/1999/xlink" width="2000" zoomAndPan="magnify" viewBox="0 0 1500 1499.999933" height="2000" preserveAspectRatio="xMidYMid meet" version="1.0"><defs><filter x="0%" y="0%" width="100%" height="100%" id="a3669e64bf"><feColorMatrix values="0 0 0 0 1 0 0 0 0 1 0 0 0 0 1 0 0 0 1 0" color-interpolation-filters="sRGB"/></filter><mask id="fa692f9ce7"><g filter="url(#a3669e64bf)"><rect x="-150" width="1800" fill="#000000" y="-149.999993" height="1799.99992" fill-opacity="0.13"/></g></mask><clipPath id="3c1af69691"><path d="M 3 1.089844 L 1497 1.089844 L 1497 802 L 3 802 Z M 3 1.089844 " clip-rule="nonzero"/></clipPath><clipPath id="04766c840b"><rect x="0" width="1500" y="0" height="806"/></clipPath></defs><g mask="url(#fa692f9ce7)"><g transform="matrix(1, 0, 0, 1, 0, 348)"><g clip-path="url(#04766c840b)"><g clip-path="url(#3c1af69691)"><path fill="#a58fe8" d="M 1472.246094 799.898438 C 1473.339844 791.234375 1474.484375 783.378906 1475.292969 775.523438 C 1476.390625 764.761719 1477.675781 754 1478.152344 743.191406 C 1478.625 732.382812 1478.625 721.527344 1478.101562 710.71875 C 1477.339844 695.769531 1476.628906 680.722656 1474.628906 665.914062 C 1469.246094 626.015625 1456.4375 588.351562 1435.011719 554.308594 C 1424.679688 537.882812 1411.492188 523.171875 1398.875 508.316406 C 1392.066406 500.269531 1383.78125 493.414062 1375.972656 486.222656 C 1362.925781 474.222656 1348.453125 464.226562 1332.597656 456.226562 C 1322.789062 451.273438 1313.121094 445.894531 1302.980469 441.753906 C 1292.316406 437.417969 1281.269531 433.46875 1270.082031 430.945312 C 1251.941406 426.898438 1233.65625 422.753906 1215.230469 421.183594 C 1177.140625 417.898438 1139.335938 421.46875 1101.671875 428.183594 C 1077.578125 432.46875 1053.105469 435.085938 1028.726562 437.324219 C 1013.398438 438.703125 997.78125 437.515625 983.304688 431.515625 C 959.832031 421.800781 947.070312 403.519531 943.59375 378.570312 C 938.976562 345.527344 941.359375 312.480469 942.976562 279.390625 C 944.691406 244.824219 948.214844 210.257812 943.59375 175.59375 C 938.214844 135.265625 920.503906 102.839844 884.984375 81.175781 C 862.890625 67.703125 838.847656 58.894531 814.46875 50.75 C 800.230469 45.988281 785.949219 41.324219 771.472656 37.417969 C 757.714844 33.707031 743.808594 30.515625 729.765625 28.136719 C 712.574219 25.183594 695.246094 22.46875 677.867188 21.136719 C 660.628906 19.800781 643.296875 20.660156 626.015625 19.945312 C 601.683594 18.945312 578.019531 23.992188 554.070312 26.898438 C 523.121094 30.660156 494.171875 41.132812 465.652344 52.417969 C 447.085938 59.796875 429.371094 70.035156 412.46875 80.84375 C 388.425781 96.125 366.378906 114.171875 346.761719 135.121094 C 324.671875 158.691406 305.386719 184.355469 290.101562 212.683594 C 266.820312 255.632812 252.632812 301.722656 247.535156 350.382812 C 244.300781 381.519531 244.011719 412.753906 247.535156 443.894531 C 250.296875 467.890625 253.488281 491.839844 256.394531 515.789062 C 258.441406 532.550781 261.152344 549.3125 258.964844 566.355469 C 256.773438 583.304688 247.820312 595.398438 231.585938 599.875 C 215.777344 604.257812 199.304688 606.496094 183.066406 609.398438 C 163.453125 612.875 143.550781 615.160156 124.171875 619.589844 C 105.933594 623.777344 89.839844 632.871094 75.222656 645.0625 C 63.605469 654.726562 54.796875 666.390625 48.273438 679.390625 C 42.988281 689.960938 40.277344 701.910156 36.753906 713.339844 C 28.324219 740.527344 31.085938 768.1875 29.707031 795.710938 C 29.515625 799.898438 28.277344 801.472656 23.992188 801.234375 C 18.851562 800.898438 13.707031 800.996094 8.566406 801.234375 C 4.898438 801.375 3.375 800.136719 3.421875 796.375 C 3.613281 772.570312 2.945312 748.714844 4.042969 724.957031 C 4.613281 713.054688 8.328125 701.292969 10.660156 689.484375 C 11.992188 682.867188 13.039062 676.152344 14.898438 669.675781 C 16.324219 664.679688 18.515625 659.917969 20.707031 655.203125 C 23.753906 648.773438 26.753906 642.25 30.46875 636.203125 C 40.941406 619.207031 54.75 605.683594 71.984375 595.210938 C 91.746094 583.164062 113.742188 578.546875 135.644531 573.308594 C 150.40625 569.785156 165.546875 567.878906 180.355469 564.453125 C 203.921875 559.070312 216.921875 543.265625 219.207031 519.789062 C 221.0625 500.554688 221.015625 481.082031 221.253906 461.65625 C 221.585938 430.707031 219.585938 399.757812 222.921875 368.761719 C 227.96875 321.957031 239.394531 276.960938 258.34375 233.96875 C 268.390625 211.160156 280.4375 189.257812 295.722656 169.453125 C 309.054688 152.167969 322.382812 134.742188 337.429688 119.027344 C 350.332031 105.507812 365.1875 93.652344 380.042969 82.273438 C 393.28125 72.128906 407.230469 62.75 421.753906 54.609375 C 436.277344 46.464844 451.75 39.992188 467.082031 33.277344 C 514.742188 12.46875 565.5 5.898438 616.683594 2.328125 C 635.15625 1.042969 653.867188 2.804688 672.4375 3.757812 C 685.914062 4.421875 699.386719 5.472656 712.71875 7.421875 C 727.90625 9.613281 743.046875 12.46875 758 15.992188 C 775.378906 20.089844 792.660156 24.660156 809.660156 30.039062 C 842.132812 40.277344 874.222656 51.847656 903.792969 68.941406 C 935.550781 87.320312 954.976562 115.269531 963.59375 150.882812 C 970.496094 179.355469 969.640625 208.257812 969.070312 237.207031 C 968.449219 266.296875 968.546875 295.339844 968.355469 324.433594 C 968.257812 338.195312 969.734375 351.714844 974.304688 364.855469 C 978.542969 377.09375 986.972656 385.570312 997.683594 391.757812 C 1017.445312 403.183594 1039.394531 403.757812 1061.25 402.566406 C 1089.910156 401.042969 1118.527344 397.851562 1147.191406 396.664062 C 1180.425781 395.28125 1213.5625 396.519531 1246.464844 403.136719 C 1268.03125 407.472656 1289.03125 413.230469 1309.074219 421.898438 C 1324.3125 428.515625 1339.023438 436.65625 1353.164062 445.417969 C 1366.164062 453.464844 1378.875 462.367188 1390.398438 472.367188 C 1401.253906 481.746094 1410.253906 493.269531 1420.347656 503.601562 C 1433.917969 517.503906 1442.679688 534.742188 1453.296875 550.691406 C 1467.582031 572.164062 1476.390625 595.78125 1483.054688 620.160156 C 1488.195312 638.96875 1491.863281 658.441406 1493.910156 677.867188 C 1496.769531 704.722656 1497.242188 731.765625 1494.816406 758.761719 C 1493.671875 771.425781 1491.71875 784.042969 1489.910156 796.613281 C 1489.722656 797.851562 1488.007812 799.710938 1486.910156 799.757812 C 1482.199219 800.089844 1477.484375 799.898438 1472.246094 799.898438 Z M 1472.246094 799.898438 " fill-opacity="1" fill-rule="nonzero"/></g><path fill="#a58fe8" d="M 1433.824219 799.898438 C 1435.011719 791.566406 1436.058594 784.042969 1437.109375 776.570312 C 1441.25 746.8125 1441.535156 716.957031 1437.773438 687.199219 C 1436.0625 673.675781 1432.871094 660.25 1429.539062 647.011719 C 1422.824219 620.398438 1411.777344 595.542969 1396.304688 572.878906 C 1379.875 548.835938 1359.972656 528.359375 1335.785156 511.742188 C 1309.835938 493.890625 1281.554688 481.746094 1250.941406 475.652344 C 1223.277344 470.128906 1195.089844 467.703125 1166.996094 472.699219 C 1142.285156 477.082031 1117.71875 482.082031 1093.148438 487.128906 C 1067.105469 492.507812 1041.347656 499.507812 1015.0625 503.460938 C 989.636719 507.316406 964.734375 503.695312 943.546875 487.222656 C 927.597656 474.84375 917.359375 458.417969 911.265625 439.132812 C 905.503906 420.898438 903.792969 402.089844 903.792969 383.28125 C 903.839844 348.476562 904.839844 313.625 905.742188 278.820312 C 906.457031 252.347656 908.125 225.921875 904.601562 199.542969 C 899.648438 162.738281 885.648438 130.648438 853.75 109.507812 C 840.5625 100.792969 825.707031 94.175781 810.851562 88.507812 C 783.28125 78.035156 755.046875 69.128906 725.8125 64.703125 C 703.863281 61.371094 681.675781 58.511719 659.535156 57.511719 C 637.964844 56.511719 616.253906 57.609375 594.636719 58.609375 C 565.925781 59.988281 538.074219 67.179688 510.980469 75.75 C 484.222656 84.175781 458.226562 95.507812 434.847656 111.648438 C 423.894531 119.171875 412.515625 126.3125 402.613281 135.074219 C 388.851562 147.214844 375.757812 160.261719 363.238281 173.785156 C 346.859375 191.449219 333.574219 211.445312 322.8125 232.96875 C 305.910156 266.726562 294.199219 302.054688 290.007812 339.859375 C 284.339844 390.949219 290.722656 440.609375 307.003906 488.984375 C 316.625 517.648438 327.90625 545.691406 337.953125 574.210938 C 343.667969 590.351562 348.90625 606.683594 348.144531 624.253906 C 347.523438 639.15625 335.097656 655.394531 321.335938 660.964844 C 303.054688 668.34375 283.722656 670.199219 264.628906 673.4375 C 242.726562 677.152344 220.539062 679.53125 198.734375 683.675781 C 174.78125 688.246094 151.308594 694.960938 132.3125 711.433594 C 122.882812 719.574219 114.601562 728.574219 108.171875 739.8125 C 98.507812 756.714844 96.507812 775.332031 92.460938 793.566406 C 91.175781 799.28125 89.363281 801.851562 83.269531 801.136719 C 78.9375 800.613281 74.507812 800.851562 70.128906 801.089844 C 66.414062 801.28125 64.699219 799.804688 65.226562 796.136719 C 67.890625 777.09375 68.605469 757.523438 73.746094 739.191406 C 81.890625 710.195312 99.695312 686.769531 126.695312 672.867188 C 141.121094 665.4375 157.738281 661.726562 173.734375 657.867188 C 188.828125 654.25 204.398438 652.488281 219.777344 650.203125 C 230.679688 648.585938 241.632812 647.632812 252.535156 646.011719 C 269.152344 643.585938 285.675781 640.539062 298.863281 628.96875 C 305.054688 623.539062 308.054688 616.300781 309.386719 608.160156 C 311.863281 593.636719 308.957031 579.832031 305.148438 565.976562 C 296.433594 534.457031 287.339844 503.03125 279.484375 471.273438 C 269.011719 428.898438 267.152344 385.855469 272.296875 342.527344 C 277.820312 295.722656 292.578125 251.824219 316.8125 211.542969 C 327.242188 194.210938 339.667969 177.785156 353.046875 162.59375 C 366.949219 146.835938 382.28125 132.121094 398.421875 118.648438 C 410.898438 108.269531 425.324219 100.125 439.324219 91.699219 C 482.269531 65.75 529.882812 52.941406 578.878906 45.800781 C 611.207031 41.085938 643.917969 40.5625 676.722656 43.515625 C 709.625 46.464844 742.144531 51.609375 773.664062 60.988281 C 799.851562 68.796875 826.085938 77.511719 850.796875 89.082031 C 893.507812 109.03125 914.742188 145.027344 920.40625 191.304688 C 923.597656 217.589844 921.933594 243.777344 920.789062 270.011719 C 918.882812 314.101562 914.789062 358.285156 920.40625 402.328125 C 923.40625 425.660156 932.074219 447.085938 952.355469 461.417969 C 965.878906 470.988281 981.164062 475.558594 997.78125 476.082031 C 1023.871094 476.890625 1049.25 472.367188 1074.578125 466.75 C 1111.003906 458.65625 1147.523438 451.511719 1185.042969 450.417969 C 1212.847656 449.609375 1240.179688 451.941406 1266.890625 459.417969 C 1290.746094 466.082031 1313.3125 475.84375 1334.453125 489.128906 C 1360.734375 505.695312 1382.066406 526.886719 1400.828125 551.546875 C 1414.96875 570.117188 1426.726562 589.828125 1434.347656 611.589844 C 1441.679688 632.492188 1448.34375 653.726562 1451.582031 676.007812 C 1455.773438 704.863281 1455.628906 733.621094 1453.203125 762.523438 C 1452.34375 772.570312 1450.582031 782.519531 1449.679688 792.566406 C 1449.105469 798.566406 1446.441406 800.945312 1440.535156 799.996094 C 1438.726562 799.660156 1436.820312 799.898438 1433.824219 799.898438 Z M 1433.824219 799.898438 " fill-opacity="1" fill-rule="nonzero"/><path fill="#a58fe8" d="M 1398.730469 799.328125 C 1400.113281 788.617188 1401.828125 778.332031 1402.683594 767.949219 C 1404.492188 746.523438 1404.730469 725.148438 1401.398438 703.671875 C 1398.351562 684.246094 1393.113281 665.628906 1386.734375 647.011719 C 1379.210938 624.875 1367.496094 605.445312 1352.691406 588.164062 C 1341.691406 575.308594 1328.597656 563.738281 1314.742188 554.023438 C 1291.886719 538.074219 1266.128906 528.835938 1238.179688 524.359375 C 1204.089844 518.933594 1171.042969 522.648438 1138.191406 530.597656 C 1113.050781 536.691406 1088.339844 544.40625 1063.296875 550.785156 C 1041.109375 556.453125 1018.683594 560.40625 995.589844 558.355469 C 946.308594 553.976562 912.695312 528.171875 892.933594 483.460938 C 882.746094 460.464844 878.414062 435.992188 877.554688 411.230469 C 875.9375 363.667969 875.792969 316.054688 874.890625 268.488281 C 874.414062 244.0625 872.414062 219.828125 865.175781 196.304688 C 854.652344 161.976562 832.847656 137.789062 800.183594 123.265625 C 775.1875 112.125 748.90625 105.125 721.957031 100.886719 C 700.578125 97.507812 679.105469 94.554688 657.535156 93.175781 C 634.585938 91.699219 611.589844 93.175781 588.734375 96.460938 C 557.308594 100.9375 527.167969 109.363281 497.792969 121.503906 C 473.03125 131.695312 450.894531 145.929688 430.039062 162.023438 C 411.5625 176.261719 395.183594 193.304688 381.566406 212.398438 C 367.285156 232.394531 355.523438 253.679688 347.191406 277.058594 C 337.527344 304.195312 331.765625 331.910156 331.429688 360.667969 C 331.097656 392.328125 336.097656 423.183594 346.667969 453.132812 C 358.285156 486.128906 374.046875 517.027344 391.996094 547.023438 C 403.28125 565.925781 413.945312 585.304688 423.515625 605.160156 C 432.132812 623.015625 435.226562 642.203125 429.085938 661.773438 C 424.894531 675.105469 416.183594 685.292969 405.230469 693.722656 C 390.089844 705.386719 372.1875 710.863281 354.144531 715.527344 C 321.433594 724.050781 288.390625 731.429688 255.726562 740.191406 C 241.585938 744 227.632812 749.238281 214.398438 755.476562 C 206.113281 759.378906 199.78125 767.140625 191.78125 771.855469 C 181.304688 778.042969 177.78125 788.902344 171.546875 797.996094 C 170.59375 799.375 168.738281 800.898438 167.210938 800.945312 C 157.355469 801.183594 147.5 801.089844 136.742188 801.089844 C 137.359375 798.757812 137.597656 796.949219 138.265625 795.328125 C 141.835938 786.710938 145.023438 777.855469 149.40625 769.664062 C 152.167969 764.476562 156.355469 759.808594 160.691406 755.761719 C 166.640625 750.144531 173.023438 744.8125 179.832031 740.238281 C 192.6875 731.667969 207.019531 726.003906 221.96875 722.621094 C 255.679688 715.050781 289.675781 708.480469 323.433594 701.007812 C 339.90625 697.386719 356.570312 693.769531 371.378906 684.960938 C 387.949219 675.152344 398.613281 661.058594 399.945312 641.585938 C 400.851562 628.394531 398.613281 615.207031 393.089844 603.113281 C 383.664062 582.542969 373.855469 562.164062 363.617188 541.976562 C 347.046875 509.363281 331.050781 476.605469 322.71875 440.609375 C 313.242188 399.851562 311.195312 358.855469 319.289062 317.671875 C 324.957031 288.769531 334.527344 261.203125 349.191406 235.539062 C 363.617188 210.304688 381.09375 187.734375 402.136719 167.5 C 438.324219 132.789062 481.316406 110.601562 528.40625 95.507812 C 557.355469 86.222656 587.210938 82.128906 617.492188 80.128906 C 648.203125 78.082031 678.722656 79.652344 709.003906 84.460938 C 744.953125 90.175781 780.328125 98.792969 813.660156 113.648438 C 852.890625 131.171875 874.699219 162.59375 882.414062 204.351562 C 888.125 235.300781 887.269531 266.535156 886.601562 297.722656 C 885.652344 344.714844 883.316406 391.851562 891.792969 438.464844 C 897.886719 472.035156 912.503906 501.03125 941.835938 520.457031 C 960.59375 532.882812 981.640625 537.929688 1004.113281 537.597656 C 1025.0625 537.3125 1045.25 532.835938 1065.296875 527.550781 C 1084.4375 522.503906 1103.433594 516.933594 1122.621094 512.125 C 1156 503.746094 1189.804688 498.792969 1224.324219 501.933594 C 1244.179688 503.746094 1263.605469 507.933594 1282.363281 515.316406 C 1302.316406 523.171875 1320.882812 533.167969 1336.546875 547.835938 C 1346.070312 556.738281 1354.546875 566.738281 1364.070312 575.640625 C 1376.066406 586.78125 1384.496094 600.542969 1390.78125 615.066406 C 1398.78125 633.441406 1404.921875 652.679688 1410.636719 671.914062 C 1414.109375 683.675781 1416.160156 696.054688 1417.15625 708.292969 C 1418.347656 723.003906 1418.253906 737.90625 1417.777344 752.714844 C 1417.445312 764.285156 1415.96875 775.855469 1414.492188 787.328125 C 1412.585938 801.804688 1413.394531 800.566406 1398.730469 799.328125 Z M 1398.730469 799.328125 " fill-opacity="1" fill-rule="nonzero"/><path fill="#a58fe8" d="M 221.0625 799.234375 C 224.96875 795.898438 228.730469 792.328125 232.824219 789.28125 C 237.488281 785.804688 242.25 782.425781 247.394531 779.710938 C 257.058594 774.617188 266.675781 769.285156 276.867188 765.476562 C 291.4375 760 306.480469 755.808594 321.335938 751.046875 C 346.335938 743.097656 371.425781 735.382812 396.375 727.148438 C 419.515625 719.480469 439.371094 706.816406 453.703125 686.675781 C 466.460938 668.726562 469.558594 648.726562 464.890625 627.398438 C 460.414062 606.78125 450.464844 588.6875 439.039062 571.261719 C 424.609375 549.3125 409.945312 527.550781 395.898438 505.363281 C 374.664062 471.796875 360.285156 435.324219 354.90625 395.996094 C 348.621094 350.144531 354.238281 305.769531 374.28125 263.441406 C 385.328125 240.15625 399.136719 219.015625 416.660156 200.304688 C 447.371094 167.59375 484.839844 144.929688 526.550781 129.503906 C 553.691406 119.457031 581.972656 113.507812 611.0625 111.363281 C 640.824219 109.125 670.4375 109.507812 699.863281 113.886719 C 731.144531 118.503906 762.1875 124.550781 791.042969 138.3125 C 819.515625 151.882812 838.511719 174.023438 849.226562 203.398438 C 856.511719 223.445312 859.890625 244.347656 860.558594 265.535156 C 861.75 301.292969 862.128906 337.097656 863.367188 372.902344 C 864.414062 403.375 866.511719 433.800781 873.507812 463.605469 C 882.175781 500.410156 899.078125 532.40625 930.503906 555.167969 C 951.546875 570.402344 975.257812 578.164062 1001.160156 580.070312 C 1033.394531 582.449219 1064.246094 575.261719 1095.246094 567.976562 C 1122.429688 561.59375 1149.761719 555.546875 1177.328125 551.023438 C 1202.851562 546.835938 1228.464844 548.40625 1253.605469 555.644531 C 1270.507812 560.5 1286.460938 567.308594 1301.171875 576.878906 C 1306.742188 580.496094 1312.265625 584.355469 1316.980469 588.925781 C 1332.835938 604.351562 1348.355469 620.300781 1358.023438 640.441406 C 1368.308594 661.867188 1377.019531 683.914062 1380.449219 707.863281 C 1384.496094 736.144531 1384.351562 764.332031 1380.019531 792.519531 C 1378.734375 800.898438 1378.589844 800.851562 1367.070312 799.234375 C 1367.496094 794.328125 1368.210938 789.328125 1368.355469 784.332031 C 1368.734375 765.140625 1370.210938 745.90625 1368.832031 726.8125 C 1367.542969 709.101562 1362.972656 691.722656 1356.738281 674.773438 C 1350.023438 656.679688 1341.261719 639.871094 1328.789062 625.398438 C 1320.359375 615.589844 1310.21875 607.113281 1300.21875 598.78125 C 1280.601562 582.355469 1257.175781 573.976562 1232.417969 570.023438 C 1212.136719 566.785156 1191.421875 566.308594 1171.042969 570.214844 C 1136.144531 576.925781 1101.386719 584.6875 1066.4375 591.210938 C 1033.964844 597.304688 1001.351562 598.636719 969.257812 588.59375 C 924.644531 574.640625 895.125 544.40625 877.03125 502.078125 C 866.222656 476.75 861.175781 449.894531 859.226562 422.707031 C 856.414062 382.855469 855.511719 342.859375 852.796875 302.960938 C 851.128906 278.726562 849.417969 254.203125 844.558594 230.445312 C 834.085938 179.546875 801.28125 148.929688 751.617188 135.835938 C 712.386719 125.503906 672.582031 119.601562 631.917969 121.410156 C 600.875 122.839844 570.449219 127.550781 540.597656 137.027344 C 520.027344 143.550781 500.792969 152.691406 482.554688 163.40625 C 463.175781 174.832031 445.511719 189.070312 429.703125 205.636719 C 411.46875 224.777344 397.328125 246.394531 386.566406 270.25 C 377.332031 290.769531 371.472656 312.292969 369.332031 335.003906 C 367.570312 353.953125 367.570312 372.523438 370.617188 391.28125 C 375.1875 419.183594 384.1875 445.515625 397.328125 470.464844 C 412.851562 499.839844 431.992188 526.742188 451.367188 553.644531 C 461.890625 568.261719 471.605469 583.734375 479.605469 599.828125 C 491.648438 624.160156 495.886719 650.011719 484.316406 675.960938 C 474.320312 698.386719 458.035156 715.816406 435.847656 726.386719 C 415.945312 735.859375 395.472656 744.144531 374.902344 752.050781 C 355.761719 759.429688 336.050781 765.332031 316.8125 772.476562 C 304.625 777 292.671875 782.378906 280.867188 787.902344 C 273.535156 791.328125 266.722656 795.804688 259.675781 799.757812 C 258.867188 800.234375 257.964844 800.757812 257.058594 800.757812 C 245.347656 800.804688 233.632812 800.804688 221.921875 800.804688 C 221.683594 800.375 221.398438 799.804688 221.0625 799.234375 Z M 221.0625 799.234375 " fill-opacity="1" fill-rule="nonzero"/><path fill="#a58fe8" d="M 315.433594 799.183594 C 332.003906 792.042969 348.621094 784.902344 365.1875 777.710938 C 393.042969 765.570312 421.371094 754.382812 448.609375 740.953125 C 469.9375 730.480469 488.03125 715.242188 501.171875 694.769531 C 516.933594 670.296875 519.695312 644.203125 511.839844 616.539062 C 505.03125 592.496094 492.171875 571.738281 477.554688 551.882812 C 459.175781 526.933594 439.703125 502.648438 422.992188 476.605469 C 394.519531 432.230469 381.472656 383.332031 387.757812 330.289062 C 390.042969 310.957031 395.472656 292.4375 403.46875 274.582031 C 412.753906 253.917969 425.230469 235.683594 440.226562 218.777344 C 464.511719 191.449219 494.269531 171.785156 527.3125 157.597656 C 559.59375 143.691406 593.78125 136.550781 629.15625 135.074219 C 671.769531 133.265625 713.480469 137.789062 754.191406 150.359375 C 792.234375 162.117188 817.753906 187.257812 830.847656 224.96875 C 837.894531 245.300781 840.988281 266.390625 842.417969 287.675781 C 844.75 322.433594 845.894531 357.238281 848.417969 391.949219 C 851.082031 428.753906 854.890625 465.511719 867.796875 500.507812 C 885.9375 549.785156 918.503906 584.972656 969.164062 601.496094 C 996.921875 610.542969 1025.679688 612.015625 1054.441406 607.96875 C 1085.101562 603.636719 1115.671875 598.210938 1146.238281 593.164062 C 1172.996094 588.734375 1199.898438 586.496094 1226.847656 590.6875 C 1245.605469 593.589844 1263.511719 599.160156 1279.792969 609.828125 C 1291.316406 617.398438 1301.316406 626.207031 1310.980469 635.96875 C 1320.265625 645.347656 1328.121094 655.582031 1333.5 667.25 C 1341.882812 685.484375 1349.167969 704.101562 1352.308594 724.335938 C 1355.832031 746.90625 1355.59375 769.238281 1353.355469 791.757812 C 1352.546875 800.089844 1351.976562 800.519531 1339.691406 799.566406 C 1339.691406 797.660156 1339.5 795.613281 1339.738281 793.664062 C 1342.070312 773.949219 1342.261719 754.332031 1339.023438 734.621094 C 1334.261719 705.816406 1324.929688 678.867188 1306.074219 656.296875 C 1296.695312 645.0625 1285.601562 635.300781 1272.792969 627.539062 C 1239.847656 607.589844 1203.851562 604.398438 1166.808594 607.875 C 1144.285156 610.019531 1121.957031 613.777344 1099.53125 616.828125 C 1064.773438 621.585938 1030.0625 625.777344 995.019531 619.730469 C 942.308594 610.683594 902.886719 582.832031 876.222656 536.644531 C 861.460938 511.078125 854.035156 483.082031 849.035156 454.226562 C 841.988281 413.851562 839.988281 373 837.371094 332.195312 C 835.371094 301.054688 833.371094 269.964844 824.230469 239.730469 C 811.421875 197.210938 783.851562 169.976562 741.382812 157.644531 C 718.097656 150.882812 694.195312 147.789062 670.058594 146.027344 C 643.917969 144.121094 617.921875 145.40625 592.304688 150.214844 C 577.640625 152.976562 563.308594 157.832031 548.929688 161.976562 C 527.835938 168.023438 508.886719 179.023438 491.125 191.164062 C 474.984375 202.160156 459.464844 214.78125 447.796875 231.160156 C 443.179688 237.632812 437.847656 243.585938 433.371094 250.203125 C 418.324219 272.34375 409.277344 296.722656 404.804688 323.242188 C 399.183594 356.285156 403.328125 388.042969 414.515625 419.183594 C 422.277344 440.800781 433.179688 460.894531 446.65625 479.460938 C 461.699219 500.222656 477.652344 520.3125 492.984375 540.882812 C 511.980469 566.402344 528.21875 593.304688 534.214844 625.253906 C 540.261719 657.488281 532.976562 686.007812 511.265625 710.71875 C 493.648438 730.765625 472.128906 745.621094 448.320312 757.238281 C 426.992188 767.617188 405.328125 777.28125 383.851562 787.378906 C 375.472656 791.328125 367.234375 795.660156 358.953125 799.757812 C 357.953125 800.234375 356.855469 800.898438 355.808594 800.898438 C 342.574219 800.996094 329.289062 800.945312 316.050781 800.945312 C 315.71875 800.375 315.574219 799.804688 315.433594 799.183594 Z M 315.433594 799.183594 " fill-opacity="1" fill-rule="nonzero"/><path fill="#a58fe8" d="M 404.898438 801.042969 C 430.132812 786.949219 454.988281 773.761719 479.082031 759.332031 C 502.648438 745.191406 524.550781 728.71875 540.835938 705.910156 C 554.546875 686.816406 559.832031 665.25 557.878906 642.203125 C 554.308594 599.828125 535.5 563.546875 510.457031 530.121094 C 491.746094 505.171875 471.273438 481.367188 454.417969 455.226562 C 424.707031 409.183594 413.375 358.855469 428.609375 304.722656 C 434.941406 282.199219 445.847656 262.011719 460.605469 243.585938 C 479.507812 219.921875 502.839844 201.828125 529.21875 187.878906 C 560.6875 171.214844 594.683594 162.59375 630.300781 160.214844 C 661.675781 158.121094 692.625 160.453125 723.289062 167.214844 C 771.28125 177.832031 802.421875 206.828125 815.039062 254.15625 C 820.753906 275.535156 823.894531 297.816406 826.230469 319.863281 C 831.515625 370 833.277344 420.46875 843.609375 470.035156 C 851.511719 507.980469 864.84375 543.5 890.316406 573.5 C 922.550781 611.492188 964.355469 630.730469 1013.300781 636.15625 C 1046.488281 639.824219 1079.4375 636.0625 1112.386719 633.0625 C 1139.476562 630.585938 1166.519531 627.777344 1193.851562 629.96875 C 1215.800781 631.683594 1236.703125 637.394531 1255.796875 647.871094 C 1265.746094 653.296875 1274.554688 661.441406 1282.554688 669.628906 C 1290.316406 677.582031 1297.601562 686.484375 1302.839844 696.199219 C 1313.503906 715.863281 1320.597656 736.953125 1321.167969 759.667969 C 1321.453125 770.664062 1320.789062 781.710938 1321.167969 792.664062 C 1321.359375 798.851562 1319.027344 800.945312 1313.21875 799.996094 C 1311.933594 799.804688 1310.597656 799.851562 1308.980469 799.804688 C 1308.980469 793.757812 1308.933594 787.902344 1308.980469 782.09375 C 1309.121094 762.953125 1306.171875 744.429688 1299.980469 726.195312 C 1295.601562 713.289062 1289.363281 701.625 1281.03125 691.339844 C 1272.984375 681.390625 1263.320312 672.867188 1252.175781 665.914062 C 1236.796875 656.296875 1220.179688 650.011719 1202.5625 646.824219 C 1177.757812 642.300781 1152.617188 642.777344 1127.476562 644.347656 C 1093.863281 646.441406 1060.34375 649.585938 1026.585938 647.441406 C 941.882812 642.011719 877.9375 593.972656 849.941406 513.789062 C 839.894531 485.082031 834.226562 455.371094 830.609375 425.324219 C 825.609375 383.949219 821.800781 342.476562 816.609375 301.101562 C 814.800781 286.628906 811.375 272.199219 807.089844 258.25 C 792.566406 210.730469 759.949219 183.164062 711.433594 174.117188 C 676.152344 167.546875 640.726562 166.546875 605.351562 173.210938 C 585.734375 176.878906 566.210938 181.546875 548.40625 191.019531 C 533.835938 198.78125 518.644531 205.972656 505.742188 216.015625 C 492.554688 226.300781 481.128906 239.15625 470.222656 251.964844 C 453.941406 271.152344 444.558594 294.152344 439.703125 318.625 C 431.847656 357.953125 439.703125 395.140625 458.226562 430.132812 C 472.699219 457.511719 491.746094 481.792969 511.125 505.839844 C 533.074219 533.167969 551.167969 562.878906 562.734375 596.160156 C 571.210938 620.539062 575.925781 645.347656 571.925781 671.34375 C 569.070312 689.914062 560.546875 705.53125 548.308594 719.289062 C 530.167969 739.714844 507.886719 755.046875 484.839844 769.285156 C 468.03125 779.664062 450.890625 789.519531 433.894531 799.566406 C 432.609375 800.328125 431.085938 800.996094 429.703125 801.042969 C 421.609375 801.089844 413.46875 801.042969 404.898438 801.042969 Z M 404.898438 801.042969 " fill-opacity="1" fill-rule="nonzero"/><path fill="#a58fe8" d="M 464.796875 799.804688 C 470.558594 795.949219 476.320312 792.042969 482.078125 788.1875 C 507.789062 770.949219 534.265625 754.859375 557.164062 733.8125 C 586.449219 706.910156 595.445312 673.582031 588.875 635.253906 C 581.066406 589.542969 562.214844 548.453125 535.691406 510.792969 C 521.027344 489.9375 504.839844 470.175781 490.125 449.417969 C 475.84375 429.230469 464.988281 407.136719 459.273438 382.996094 C 452.605469 354.90625 453.179688 326.910156 463.175781 299.4375 C 468.796875 284.007812 476.890625 270.105469 486.839844 256.964844 C 503.21875 235.394531 523.980469 219.160156 547.359375 206.734375 C 577.210938 190.878906 609.492188 182.640625 643.441406 180.925781 C 668.296875 179.640625 692.816406 181.019531 717.003906 186.925781 C 756.285156 196.542969 782.378906 220.921875 796.898438 258.34375 C 805.566406 280.675781 809.660156 304.054688 812.660156 327.671875 C 818.945312 377.1875 822.371094 427.085938 833.226562 475.9375 C 842.273438 516.695312 856.652344 554.976562 884.125 587.257812 C 912.363281 620.351562 947.882812 641.15625 990.160156 651.296875 C 1026.15625 659.917969 1062.582031 659.535156 1099.101562 658.441406 C 1132.382812 657.394531 1165.710938 655.917969 1198.519531 663.582031 C 1218.65625 668.296875 1237.179688 676.296875 1252.796875 690.53125 C 1263.984375 700.722656 1274.269531 711.671875 1280.414062 725.480469 C 1288.269531 743.191406 1294.078125 761.617188 1294.03125 781.378906 C 1294.03125 786.089844 1294.363281 790.804688 1294.648438 795.519531 C 1294.839844 798.613281 1293.695312 799.898438 1290.457031 800.042969 C 1281.03125 800.472656 1281.414062 800.136719 1280.746094 790.472656 C 1280.03125 779.949219 1278.175781 769.425781 1275.890625 759.140625 C 1274.269531 751.808594 1271.84375 744.476562 1268.507812 737.765625 C 1252.796875 705.910156 1226.847656 686.914062 1192.851562 677.628906 C 1165.710938 670.25 1138.097656 669.726562 1110.335938 669.390625 C 1086.199219 669.058594 1061.960938 669.152344 1037.917969 667.4375 C 976.972656 663.105469 923.503906 642.0625 882.652344 594.636719 C 861.605469 570.210938 847.132812 542.121094 837.65625 511.457031 C 826.5625 475.460938 820.421875 438.417969 815.5625 401.136719 C 810.707031 364.046875 807.945312 326.621094 798.46875 290.246094 C 792.660156 268.011719 784.328125 246.871094 768.949219 229.160156 C 750.191406 207.496094 725.765625 196.542969 698.054688 192.449219 C 667.296875 187.878906 636.777344 189.164062 606.398438 196.496094 C 581.019531 202.636719 557.691406 212.730469 535.929688 227.347656 C 523.074219 235.96875 512.125 246.441406 502.554688 258.011719 C 485.078125 279.058594 473.984375 303.246094 471.082031 331.050781 C 467.082031 369.425781 479.128906 403.234375 499.554688 434.515625 C 513.980469 456.65625 530.074219 477.699219 544.738281 499.699219 C 572.78125 541.789062 593.304688 587.164062 601.921875 637.394531 C 605.253906 656.867188 605.636719 676.34375 599.589844 695.625 C 594.160156 712.910156 583.734375 726.859375 570.402344 738.476562 C 558.691406 748.667969 546.121094 757.90625 533.503906 767 C 518.265625 777.949219 502.601562 788.378906 486.984375 798.804688 C 484.792969 800.28125 481.792969 800.898438 479.128906 801.089844 C 474.605469 801.46875 470.035156 801.183594 465.460938 801.183594 C 465.226562 800.660156 464.988281 800.234375 464.796875 799.804688 Z M 464.796875 799.804688 " fill-opacity="1" fill-rule="nonzero"/><path fill="#a58fe8" d="M 511.550781 799.613281 C 518.550781 794.566406 525.644531 789.566406 532.597656 784.519531 C 550.070312 771.761719 568.070312 759.617188 584.925781 746.097656 C 615.730469 721.335938 624.300781 688.199219 618.585938 650.347656 C 610.398438 596.066406 590.304688 546.074219 562.355469 499.269531 C 548.023438 475.273438 531.359375 452.703125 516.410156 429.085938 C 497.886719 399.804688 486.363281 368.238281 490.03125 332.90625 C 492.410156 310.007812 500.507812 289.246094 514.695312 270.675781 C 528.742188 252.296875 546.023438 237.871094 565.878906 226.824219 C 593.542969 211.398438 623.777344 204.304688 655.390625 202.542969 C 676.292969 201.351562 696.910156 202.683594 716.859375 209.257812 C 751.761719 220.730469 772.617188 246.203125 785.136719 279.582031 C 793.613281 302.148438 797.566406 325.8125 801.421875 349.476562 C 808.566406 393.328125 814.847656 437.371094 823.417969 480.984375 C 830.847656 518.695312 844.511719 554.40625 867.222656 586.019531 C 901.839844 634.203125 949.308594 661.964844 1006.777344 673.773438 C 1039.917969 680.582031 1073.628906 681.34375 1107.289062 683.007812 C 1130.097656 684.152344 1152.902344 685.816406 1175.042969 691.863281 C 1196.992188 697.816406 1217.324219 707.386719 1232.75 724.480469 C 1243.132812 736.003906 1252.464844 748.667969 1255.652344 764.664062 C 1257.226562 772.472656 1259.558594 780.09375 1261.128906 787.902344 C 1261.84375 791.519531 1261.605469 795.375 1261.84375 799.519531 C 1259.511719 799.710938 1257.84375 799.710938 1256.226562 799.945312 C 1250.320312 800.945312 1249.082031 797.804688 1248.464844 792.566406 C 1246.367188 774.617188 1240.941406 758.046875 1229.800781 743.144531 C 1210.898438 717.8125 1184.949219 704.71875 1155.046875 699.386719 C 1130.574219 695.054688 1105.71875 692.722656 1080.914062 690.484375 C 1044.679688 687.199219 1008.539062 683.960938 973.878906 671.675781 C 907.550781 648.15625 862.558594 602.636719 836.417969 537.882812 C 823.417969 505.648438 815.992188 471.890625 810.039062 437.800781 C 803.042969 397.757812 796.707031 357.570312 789.28125 317.578125 C 785.710938 298.4375 778.996094 280.152344 769.046875 263.25 C 752 234.300781 726.8125 217.683594 693.625 212.589844 C 665.628906 208.304688 638.394531 211.828125 611.253906 218.96875 C 589.351562 224.730469 569.496094 234.777344 551.976562 248.535156 C 536.789062 260.488281 524.121094 275.011719 515.503906 293.054688 C 504.742188 315.527344 500.980469 338.714844 504.980469 362.953125 C 508.550781 384.617188 517.742188 404.234375 529.074219 422.992188 C 549.214844 456.179688 571.164062 488.316406 587.398438 523.742188 C 605.730469 563.691406 621.015625 604.589844 628.300781 648.15625 C 630.871094 663.441406 632.015625 678.769531 629.632812 694.199219 C 626.15625 716.433594 615.683594 735.003906 598.160156 748.808594 C 580.925781 762.425781 562.640625 774.757812 544.785156 787.664062 C 540.3125 790.902344 535.550781 793.757812 531.359375 797.28125 C 525.40625 802.375 518.695312 800.707031 512.171875 800.945312 C 511.980469 800.566406 511.742188 800.089844 511.550781 799.613281 Z M 511.550781 799.613281 " fill-opacity="1" fill-rule="nonzero"/><path fill="#a58fe8" d="M 549.308594 800.375 C 560.5 792.949219 571.117188 786.042969 581.589844 778.949219 C 600.398438 766.191406 619.253906 753.429688 631.917969 733.8125 C 642.296875 717.71875 645.109375 699.816406 644.632812 681.007812 C 644.011719 655.871094 637.964844 631.777344 631.015625 607.875 C 618.300781 563.976562 601.636719 521.601562 580.257812 481.175781 C 570.496094 462.703125 559.5 444.894531 549.308594 426.609375 C 538.453125 407.183594 528.027344 387.519531 523.980469 365.238281 C 519.121094 338.335938 522.980469 313.054688 537.214844 289.292969 C 549.453125 268.867188 567.070312 254.25 587.351562 243.15625 C 617.445312 226.636719 650.25 219.828125 684.390625 222.824219 C 725.144531 226.398438 753.523438 248.15625 770.28125 285.390625 C 779.804688 306.625 785.375 329.003906 789.660156 351.667969 C 794.613281 377.855469 799.042969 404.089844 803.328125 430.371094 C 808.753906 463.84375 816.46875 496.746094 827.5625 528.742188 C 840.703125 566.640625 860.84375 600.304688 890.03125 628.109375 C 921.835938 658.441406 959.832031 677.246094 1002.304688 687.578125 C 1033.539062 695.199219 1065.484375 697.816406 1097.292969 701.433594 C 1120.242188 704.007812 1143.191406 707.054688 1164.996094 715.050781 C 1181.949219 721.289062 1197.46875 729.859375 1209.753906 743.714844 C 1218.417969 753.476562 1225.800781 763.902344 1229.800781 776.332031 C 1232.179688 783.617188 1233.464844 791.28125 1235.464844 799.851562 C 1231.132812 799.851562 1227.417969 800.089844 1223.753906 799.710938 C 1222.703125 799.566406 1221.230469 797.613281 1221.039062 796.328125 C 1218.417969 779.28125 1210.46875 765 1198.992188 752.429688 C 1176.28125 727.433594 1145.90625 718.957031 1114.382812 713.195312 C 1076.390625 706.246094 1037.679688 703.625 1000.207031 693.722656 C 950.261719 680.484375 907.125 656.058594 873.082031 616.777344 C 846.65625 586.355469 829.800781 550.738281 818.230469 512.410156 C 807.421875 476.558594 800.375 439.847656 793.851562 402.996094 C 788.234375 371.140625 783.28125 339.097656 772.1875 308.53125 C 763.808594 285.292969 752.238281 264.15625 731.527344 249.394531 C 716.195312 238.441406 698.863281 233.0625 680.101562 231.96875 C 654.535156 230.492188 630.0625 234.871094 606.96875 246.011719 C 597.445312 250.585938 587.398438 254.871094 579.304688 261.441406 C 547.785156 287.105469 528.503906 322.003906 540.074219 369.570312 C 545.121094 390.328125 554.929688 408.992188 564.6875 427.609375 C 590.449219 476.84375 613.636719 527.171875 630.824219 580.117188 C 640.25 609.207031 649.058594 638.441406 653.390625 668.773438 C 656.488281 690.578125 656.441406 712.433594 646.011719 732.8125 C 638.15625 748.191406 626.015625 759.808594 612.160156 769.617188 C 600.589844 777.808594 588.113281 784.757812 576.925781 793.472656 C 568.832031 799.949219 560.453125 802.660156 549.308594 800.375 Z M 549.308594 800.375 " fill-opacity="1" fill-rule="nonzero"/><path fill="#a58fe8" d="M 588.496094 800.804688 C 598.683594 794.042969 607.730469 788.234375 616.585938 782.09375 C 631.15625 772 645.394531 761.617188 654.964844 746.144531 C 666.390625 727.621094 668.675781 707.292969 666.582031 686.246094 C 663.011719 650.394531 652.25 616.253906 641.347656 582.210938 C 625.492188 532.695312 606.207031 484.507812 584.164062 437.371094 C 575.6875 419.328125 567.6875 400.949219 560.832031 382.234375 C 550.976562 355.191406 551.214844 328.097656 565.164062 302.148438 C 571.734375 289.914062 581.164062 280.199219 592.113281 271.726562 C 617.96875 251.632812 647.34375 242.441406 679.914062 244.15625 C 715.386719 246.015625 740.429688 264.25 757 295.054688 C 769.09375 317.578125 775.519531 342.003906 780.710938 366.808594 C 788.1875 402.234375 794.660156 437.847656 802.660156 473.128906 C 810.851562 509.457031 821.753906 545.027344 839.894531 577.878906 C 875.984375 643.203125 931.359375 683.769531 1002.875 702.246094 C 1032.777344 709.957031 1063.484375 714.765625 1093.816406 720.8125 C 1117.527344 725.527344 1141 731.003906 1162.09375 743.621094 C 1175.328125 751.523438 1186.328125 761.429688 1194.234375 775.046875 C 1198.660156 782.710938 1202.230469 790.378906 1204.421875 798.851562 C 1195.136719 801.613281 1193.519531 800.851562 1190.421875 792.851562 C 1181.710938 770.285156 1164.664062 755.761719 1143.808594 745.191406 C 1124.097656 735.191406 1102.816406 730.289062 1081.390625 725.859375 C 1045.535156 718.386719 1009.351562 712.101562 974.925781 698.960938 C 896.316406 668.914062 844.988281 612.730469 817.039062 534.121094 C 803.089844 494.890625 794.375 454.324219 786.089844 413.660156 C 779.902344 383.378906 774.425781 352.859375 763.238281 323.863281 C 755.332031 303.386719 745.144531 284.296875 727.242188 270.628906 C 709.050781 256.773438 688.4375 251.964844 665.628906 253.488281 C 643.441406 254.964844 623.300781 262.058594 605.730469 274.675781 C 577.542969 294.914062 561.925781 326.195312 569.546875 365.570312 C 574.925781 393.28125 586.828125 418.753906 597.496094 444.5625 C 627.441406 517.078125 654.25 590.6875 671.4375 667.441406 C 676.4375 689.816406 678.769531 712.578125 671.535156 735.144531 C 666.4375 751.097656 656.582031 763.714844 643.488281 773.710938 C 633.253906 781.519531 622.0625 788.140625 612.015625 796.234375 C 605.066406 801.519531 597.828125 801.28125 588.496094 800.804688 Z M 588.496094 800.804688 " fill-opacity="1" fill-rule="nonzero"/><path fill="#a58fe8" d="M 635.25 800.613281 C 645.347656 792.566406 655.867188 784.757812 665.675781 776.140625 C 686.007812 758.285156 692.433594 734.90625 690.578125 708.816406 C 688.148438 674.199219 678.105469 641.25 667.582031 608.542969 C 649.25 551.597656 629.917969 494.9375 611.300781 438.085938 C 604.683594 417.898438 597.828125 397.660156 592.875 376.996094 C 587.925781 356.570312 588.351562 335.90625 598.066406 316.386719 C 608.113281 296.246094 624.871094 284.058594 645.25 275.867188 C 662.488281 268.914062 680.152344 268.152344 697.769531 273.058594 C 719.859375 279.199219 735.238281 294.101562 746.382812 313.625 C 758.761719 335.242188 765.808594 358.90625 771.617188 382.949219 C 780.472656 419.707031 788.519531 456.703125 798.089844 493.269531 C 808.46875 532.789062 822.5625 570.925781 845.464844 605.257812 C 880.316406 657.488281 928.3125 692.769531 987.496094 712.339844 C 1017.492188 722.289062 1048.441406 729.433594 1078.960938 737.8125 C 1103.578125 744.574219 1128.003906 751.808594 1148.046875 768.570312 C 1153.761719 773.378906 1158.664062 779.332031 1163.285156 785.234375 C 1166.472656 789.328125 1168.664062 794.234375 1171.332031 798.898438 C 1162.617188 801.042969 1160.808594 800.898438 1156.425781 793.566406 C 1144 772.808594 1124.859375 760.714844 1103.003906 753.191406 C 1075.578125 743.761719 1047.535156 736.144531 1019.632812 727.957031 C 982.828125 717.148438 947.546875 703.148438 915.742188 681.199219 C 864.699219 645.964844 831.179688 597.636719 809.992188 539.929688 C 795.28125 499.886719 785.664062 458.464844 775.855469 417.089844 C 768.808594 387.378906 762 357.570312 748.238281 330.050781 C 738.285156 310.148438 724.90625 293.339844 703.578125 284.914062 C 688.722656 279.058594 673.292969 278.058594 657.914062 282.867188 C 650.394531 285.246094 642.347656 287.390625 635.964844 291.722656 C 622.15625 301.101562 611.445312 313.480469 606.207031 329.90625 C 598.921875 352.808594 601.683594 375.664062 608.351562 397.851562 C 623.777344 449.511719 640.441406 500.839844 656.011719 552.453125 C 668.914062 595.304688 681.578125 638.300781 693.195312 681.53125 C 698.578125 701.53125 701.148438 722.289062 696.339844 743 C 691.960938 761.953125 681.152344 776.617188 665.582031 787.949219 C 663.296875 789.613281 660.960938 791.328125 658.867188 793.28125 C 652.011719 799.519531 644.441406 803.089844 635.25 800.613281 Z M 635.25 800.613281 " fill-opacity="1" fill-rule="nonzero"/><path fill="#a58fe8" d="M 669.4375 800.183594 C 673.390625 796.757812 677.34375 793.328125 681.339844 789.902344 C 697.339844 776.140625 706.910156 759.09375 708.195312 737.714844 C 709.625 714.527344 704.910156 692.199219 698.53125 670.25 C 684.960938 623.539062 670.390625 577.117188 656.726562 530.40625 C 644.488281 488.605469 632.539062 446.703125 621.253906 404.660156 C 616.824219 388.140625 615.0625 371 616.96875 353.714844 C 619.96875 326.671875 633.679688 307.195312 659.152344 297.722656 C 682.007812 289.199219 703.292969 293.863281 721.8125 310.054688 C 736.761719 323.101562 746.191406 340.003906 752.191406 358.332031 C 761.476562 386.804688 769.570312 415.707031 777.1875 444.65625 C 788.234375 486.652344 799.183594 528.644531 817.183594 568.355469 C 849.703125 640.109375 902.933594 690.4375 975.878906 719.242188 C 1005.875 731.097656 1037.011719 739.953125 1067.582031 750.191406 C 1088.578125 757.238281 1109.148438 765.140625 1126.480469 779.425781 C 1133.050781 784.804688 1139.046875 790.804688 1142.808594 799.234375 C 1137.238281 800.566406 1133.859375 799.613281 1130.238281 795.089844 C 1118.335938 780.1875 1102.578125 770.046875 1085.054688 763.332031 C 1059.722656 753.621094 1033.917969 745 1008.300781 736.050781 C 970.210938 722.765625 933.929688 706.054688 901.886719 681.105469 C 857.273438 646.394531 826.941406 601.496094 806.515625 549.214844 C 790.660156 508.648438 780.089844 466.558594 768.949219 424.609375 C 761.808594 397.804688 754.476562 371 741.335938 346.289062 C 735.382812 335.097656 728.191406 324.71875 718.050781 317.003906 C 701.480469 304.386719 683.4375 299.675781 663.105469 307.816406 C 640.679688 316.816406 630.539062 334.621094 627.253906 357.144531 C 624.0625 378.996094 628.203125 400.421875 632.964844 421.613281 C 649.296875 494.03125 671.867188 564.691406 693.386719 635.585938 C 701.71875 663.058594 710.71875 690.390625 714.050781 719.050781 C 716.386719 739.238281 716.242188 759.285156 703.527344 776.519531 C 697.480469 784.710938 690.199219 792.136719 682.53125 798.851562 C 679.722656 801.328125 674.246094 800.804688 669.960938 801.660156 C 669.769531 801.234375 669.628906 800.710938 669.4375 800.183594 Z M 669.4375 800.183594 " fill-opacity="1" fill-rule="nonzero"/></g></g></g></svg>