<svg xmlns="http://www.w3.org/2000/svg" xmlns:xlink="http://www.w3.org/1999/xlink" width="2000" zoomAndPan="magnify" viewBox="0 0 1500 1499.999933" height="2000" preserveAspectRatio="xMidYMid meet" version="1.0"><path fill="#000000" d="M 750 0 C 335.785156 0 0 335.785156 0 750 C 0 1164.214844 335.785156 1500 750 1500 C 1164.214844 1500 1500 1164.214844 1500 750 C 1500 335.785156 1164.214844 0 750 0 Z M 292.882812 391.261719 L 1206.152344 391.261719 C 1206.65625 391.257812 1207.152344 391.328125 1207.636719 391.476562 C 1208.121094 391.621094 1208.574219 391.835938 1208.992188 392.117188 C 1209.414062 392.398438 1209.78125 392.738281 1210.101562 393.128906 C 1210.417969 393.523438 1210.671875 393.953125 1210.863281 394.425781 C 1211.050781 394.894531 1211.167969 395.378906 1211.207031 395.882812 C 1211.25 396.390625 1211.21875 396.886719 1211.109375 397.382812 C 1211.003906 397.875 1210.824219 398.34375 1210.578125 398.785156 C 1210.328125 399.226562 1210.019531 399.621094 1209.652344 399.96875 L 902.640625 691.335938 L 902.140625 691.835938 L 810.464844 778.835938 C 809.375 779.875 808.257812 780.890625 807.117188 781.878906 C 805.976562 782.863281 804.816406 783.824219 803.628906 784.753906 C 802.441406 785.6875 801.234375 786.589844 800.003906 787.464844 C 798.777344 788.335938 797.527344 789.179688 796.257812 789.996094 C 794.988281 790.808594 793.699219 791.59375 792.390625 792.34375 C 791.082031 793.097656 789.757812 793.816406 788.417969 794.503906 C 787.074219 795.195312 785.71875 795.851562 784.34375 796.472656 C 782.972656 797.097656 781.582031 797.6875 780.179688 798.242188 C 778.78125 798.800781 777.367188 799.324219 775.9375 799.8125 C 774.511719 800.300781 773.074219 800.757812 771.625 801.175781 C 770.175781 801.597656 768.71875 801.980469 767.253906 802.332031 C 765.785156 802.683594 764.3125 802.996094 762.828125 803.277344 C 761.347656 803.558594 759.859375 803.800781 758.367188 804.007812 C 756.871094 804.21875 755.375 804.390625 753.871094 804.527344 C 752.371094 804.664062 750.863281 804.761719 749.359375 804.828125 C 747.851562 804.890625 746.34375 804.917969 744.835938 804.910156 C 743.328125 804.902344 741.820312 804.859375 740.3125 804.777344 C 738.808594 804.699219 737.304688 804.582031 735.804688 804.429688 C 734.304688 804.277344 732.808594 804.089844 731.316406 803.867188 C 729.824219 803.640625 728.339844 803.382812 726.859375 803.085938 C 725.382812 802.789062 723.910156 802.460938 722.445312 802.09375 C 720.984375 801.730469 719.53125 801.328125 718.085938 800.890625 C 716.640625 800.457031 715.210938 799.988281 713.789062 799.484375 C 712.367188 798.980469 710.957031 798.441406 709.5625 797.867188 C 708.167969 797.296875 706.785156 796.691406 705.417969 796.054688 C 704.050781 795.417969 702.703125 794.746094 701.367188 794.042969 C 700.03125 793.339844 698.714844 792.605469 697.417969 791.839844 C 696.117188 791.074219 694.835938 790.277344 693.574219 789.449219 C 692.316406 788.621094 691.074219 787.765625 689.855469 786.878906 C 688.632812 785.992188 687.4375 785.078125 686.257812 784.132812 C 685.082031 783.1875 683.929688 782.214844 682.800781 781.21875 C 681.671875 780.21875 680.566406 779.191406 679.488281 778.140625 L 594.609375 695.847656 C 594.46875 695.710938 594.328125 695.570312 594.179688 695.4375 L 289.347656 399.929688 C 288.984375 399.578125 288.683594 399.183594 288.441406 398.742188 C 288.199219 398.300781 288.023438 397.835938 287.921875 397.339844 C 287.820312 396.847656 287.789062 396.351562 287.835938 395.851562 C 287.882812 395.351562 288 394.867188 288.1875 394.402344 C 288.378906 393.933594 288.632812 393.507812 288.949219 393.117188 C 289.269531 392.726562 289.636719 392.390625 290.054688 392.113281 C 290.472656 391.832031 290.921875 391.621094 291.40625 391.476562 C 291.886719 391.328125 292.378906 391.257812 292.882812 391.261719 Z M 249.832031 1058.347656 L 249.832031 431.574219 C 249.832031 431.078125 249.90625 430.59375 250.046875 430.117188 C 250.191406 429.644531 250.398438 429.199219 250.671875 428.785156 C 250.945312 428.371094 251.273438 428.007812 251.65625 427.691406 C 252.035156 427.375 252.453125 427.121094 252.910156 426.925781 C 253.367188 426.734375 253.84375 426.609375 254.335938 426.554688 C 254.828125 426.5 255.316406 426.519531 255.804688 426.613281 C 256.292969 426.703125 256.757812 426.863281 257.195312 427.089844 C 257.636719 427.316406 258.035156 427.601562 258.390625 427.949219 L 548.066406 708.8125 C 548.292969 709.03125 548.5 709.269531 548.679688 709.527344 C 548.863281 709.789062 549.015625 710.058594 549.148438 710.347656 C 549.277344 710.636719 549.378906 710.933594 549.457031 711.238281 C 549.53125 711.546875 549.574219 711.855469 549.589844 712.171875 C 549.609375 712.488281 549.59375 712.800781 549.550781 713.113281 C 549.507812 713.429688 549.4375 713.734375 549.339844 714.035156 C 549.238281 714.332031 549.113281 714.621094 548.957031 714.898438 C 548.804688 715.171875 548.625 715.429688 548.421875 715.671875 L 258.75 1061.605469 C 258.417969 1062 258.03125 1062.339844 257.59375 1062.621094 C 257.160156 1062.898438 256.6875 1063.105469 256.1875 1063.242188 C 255.6875 1063.375 255.175781 1063.429688 254.65625 1063.40625 C 254.140625 1063.386719 253.636719 1063.285156 253.148438 1063.105469 C 252.660156 1062.929688 252.210938 1062.679688 251.800781 1062.363281 C 251.390625 1062.046875 251.035156 1061.675781 250.738281 1061.25 C 250.441406 1060.824219 250.21875 1060.363281 250.0625 1059.871094 C 249.90625 1059.375 249.832031 1058.867188 249.832031 1058.347656 Z M 1215.558594 1108.738281 L 284.441406 1108.738281 C 283.960938 1108.738281 283.488281 1108.671875 283.027344 1108.539062 C 282.566406 1108.402344 282.132812 1108.207031 281.730469 1107.949219 C 281.324219 1107.691406 280.964844 1107.382812 280.648438 1107.019531 C 280.332031 1106.660156 280.070312 1106.261719 279.867188 1105.828125 C 279.664062 1105.390625 279.527344 1104.9375 279.453125 1104.460938 C 279.382812 1103.988281 279.375 1103.511719 279.4375 1103.035156 C 279.5 1102.558594 279.628906 1102.101562 279.820312 1101.664062 C 280.015625 1101.222656 280.265625 1100.820312 280.574219 1100.453125 L 577.953125 745.332031 C 578.175781 745.066406 578.421875 744.828125 578.695312 744.613281 C 578.96875 744.398438 579.257812 744.210938 579.570312 744.058594 C 579.878906 743.902344 580.203125 743.78125 580.539062 743.695312 C 580.875 743.605469 581.214844 743.554688 581.5625 743.535156 C 581.90625 743.515625 582.253906 743.535156 582.59375 743.589844 C 582.9375 743.640625 583.269531 743.730469 583.597656 743.851562 C 583.921875 743.972656 584.230469 744.125 584.523438 744.3125 C 584.816406 744.496094 585.085938 744.710938 585.335938 744.953125 L 650.417969 808.054688 C 653.53125 811.085938 656.785156 813.960938 660.175781 816.679688 C 663.566406 819.398438 667.078125 821.945312 670.714844 824.328125 C 674.351562 826.707031 678.09375 828.910156 681.941406 830.929688 C 685.789062 832.949219 689.722656 834.78125 693.746094 836.425781 C 697.769531 838.070312 701.863281 839.515625 706.027344 840.765625 C 710.191406 842.015625 714.402344 843.0625 718.664062 843.90625 C 722.929688 844.75 727.222656 845.390625 731.546875 845.820312 C 735.871094 846.253906 740.207031 846.476562 744.554688 846.492188 L 745.296875 846.492188 C 749.613281 846.5 753.921875 846.300781 758.214844 845.898438 C 762.511719 845.492188 766.78125 844.886719 771.019531 844.074219 C 775.257812 843.265625 779.449219 842.253906 783.589844 841.042969 C 787.734375 839.832031 791.808594 838.425781 795.816406 836.828125 C 799.824219 835.226562 803.75 833.441406 807.585938 831.464844 C 811.421875 829.492188 815.160156 827.339844 818.792969 825.011719 C 822.421875 822.679688 825.9375 820.183594 829.332031 817.515625 C 832.726562 814.851562 835.984375 812.03125 839.109375 809.054688 L 911.132812 740.675781 C 911.382812 740.441406 911.65625 740.230469 911.949219 740.046875 C 912.242188 739.867188 912.546875 739.71875 912.871094 739.597656 C 913.195312 739.480469 913.527344 739.394531 913.867188 739.34375 C 914.210938 739.296875 914.550781 739.28125 914.894531 739.300781 C 915.238281 739.320312 915.578125 739.375 915.910156 739.460938 C 916.242188 739.550781 916.5625 739.671875 916.871094 739.828125 C 917.179688 739.980469 917.46875 740.167969 917.738281 740.378906 C 918.007812 740.59375 918.253906 740.832031 918.476562 741.097656 L 1219.40625 1100.453125 C 1219.714844 1100.820312 1219.964844 1101.222656 1220.15625 1101.660156 C 1220.351562 1102.097656 1220.476562 1102.554688 1220.542969 1103.03125 C 1220.605469 1103.507812 1220.597656 1103.980469 1220.527344 1104.453125 C 1220.453125 1104.929688 1220.316406 1105.382812 1220.117188 1105.816406 C 1219.914062 1106.253906 1219.65625 1106.648438 1219.339844 1107.011719 C 1219.027344 1107.371094 1218.667969 1107.683594 1218.261719 1107.941406 C 1217.859375 1108.199219 1217.429688 1108.398438 1216.96875 1108.53125 C 1216.507812 1108.667969 1216.039062 1108.738281 1215.558594 1108.738281 Z M 1250.167969 1058.347656 C 1250.167969 1058.867188 1250.089844 1059.371094 1249.933594 1059.867188 C 1249.777344 1060.359375 1249.550781 1060.820312 1249.253906 1061.242188 C 1248.953125 1061.667969 1248.601562 1062.039062 1248.1875 1062.351562 C 1247.777344 1062.667969 1247.328125 1062.914062 1246.839844 1063.089844 C 1246.355469 1063.265625 1245.851562 1063.367188 1245.335938 1063.386719 C 1244.816406 1063.410156 1244.308594 1063.355469 1243.808594 1063.21875 C 1243.308594 1063.085938 1242.839844 1062.878906 1242.402344 1062.597656 C 1241.964844 1062.320312 1241.582031 1061.980469 1241.25 1061.582031 L 948.390625 711.863281 C 948.1875 711.617188 948.007812 711.355469 947.851562 711.078125 C 947.695312 710.800781 947.570312 710.511719 947.46875 710.210938 C 947.367188 709.90625 947.296875 709.597656 947.257812 709.28125 C 947.214844 708.96875 947.203125 708.652344 947.222656 708.332031 C 947.238281 708.015625 947.285156 707.703125 947.363281 707.394531 C 947.441406 707.085938 947.546875 706.785156 947.683594 706.496094 C 947.816406 706.207031 947.976562 705.933594 948.160156 705.675781 C 948.347656 705.417969 948.554688 705.179688 948.785156 704.960938 L 1241.664062 427.015625 C 1242.023438 426.679688 1242.421875 426.402344 1242.859375 426.183594 C 1243.300781 425.960938 1243.761719 425.808594 1244.246094 425.722656 C 1244.730469 425.640625 1245.21875 425.625 1245.707031 425.683594 C 1246.195312 425.738281 1246.664062 425.863281 1247.117188 426.058594 C 1247.566406 426.253906 1247.980469 426.507812 1248.359375 426.824219 C 1248.734375 427.140625 1249.058594 427.503906 1249.332031 427.914062 C 1249.601562 428.324219 1249.808594 428.765625 1249.949219 429.234375 C 1250.09375 429.707031 1250.164062 430.1875 1250.167969 430.679688 Z M 1250.167969 1058.347656 " fill-opacity="1" fill-rule="nonzero"/></svg>