<svg xmlns="http://www.w3.org/2000/svg" xmlns:xlink="http://www.w3.org/1999/xlink" width="2000" zoomAndPan="magnify" viewBox="0 0 1500 1499.999933" height="2000" preserveAspectRatio="xMidYMid meet" version="1.0"><path fill="#3c3c3b" d="M 782.535156 1388.175781 C 721.101562 1388.175781 661.019531 1377.464844 603.929688 1356.347656 C 593.90625 1352.636719 588.78125 1341.507812 592.488281 1331.480469 C 596.195312 1321.457031 607.328125 1316.355469 617.351562 1320.042969 C 670.128906 1339.5625 725.710938 1349.472656 782.535156 1349.472656 C 1045.105469 1349.472656 1258.726562 1135.871094 1258.726562 873.320312 C 1258.726562 610.757812 1045.105469 397.144531 782.535156 397.144531 C 706.242188 397.144531 633.359375 414.648438 565.929688 449.164062 C 556.429688 454.035156 544.765625 450.273438 539.886719 440.757812 C 535.019531 431.246094 538.78125 419.585938 548.304688 414.710938 C 621.246094 377.375 700.054688 358.441406 782.542969 358.441406 C 1066.457031 358.441406 1297.4375 589.414062 1297.4375 873.320312 C 1297.421875 1157.210938 1066.441406 1388.175781 782.535156 1388.175781 Z M 782.535156 1388.175781 " fill-opacity="1" fill-rule="nonzero"/><path fill="#3c3c3b" d="M 777.921875 537.21875 C 767.230469 537.21875 758.570312 528.554688 758.570312 517.867188 L 758.570312 379.628906 C 758.570312 368.9375 767.230469 360.277344 777.921875 360.277344 C 788.613281 360.277344 797.273438 368.9375 797.273438 379.628906 L 797.273438 517.867188 C 797.273438 528.546875 788.613281 537.21875 777.921875 537.21875 Z M 777.921875 537.21875 " fill-opacity="1" fill-rule="nonzero"/><path fill="#3c3c3b" d="M 777.921875 1388.175781 C 767.230469 1388.175781 758.570312 1379.515625 758.570312 1368.824219 L 758.570312 1230.585938 C 758.570312 1219.898438 767.230469 1211.234375 777.921875 1211.234375 C 788.613281 1211.234375 797.273438 1219.898438 797.273438 1230.585938 L 797.273438 1368.824219 C 797.273438 1379.515625 788.613281 1388.175781 777.921875 1388.175781 Z M 777.921875 1388.175781 " fill-opacity="1" fill-rule="nonzero"/><path fill="#3c3c3b" d="M 1120.820312 1242.679688 C 1115.773438 1242.679688 1110.71875 1240.710938 1106.925781 1236.796875 L 1010.691406 1137.570312 C 1003.25 1129.902344 1003.4375 1117.65625 1011.117188 1110.207031 C 1018.789062 1102.777344 1031.050781 1102.945312 1038.480469 1110.632812 L 1134.714844 1209.855469 C 1142.15625 1217.527344 1141.96875 1229.773438 1134.289062 1237.21875 C 1130.535156 1240.867188 1125.675781 1242.679688 1120.820312 1242.679688 Z M 1120.820312 1242.679688 " fill-opacity="1" fill-rule="nonzero"/><path fill="#3c3c3b" d="M 1043.242188 652.371094 C 1038.195312 652.371094 1033.140625 650.40625 1029.347656 646.488281 C 1021.90625 638.816406 1022.09375 626.5625 1029.773438 619.125 L 1128.996094 522.898438 C 1136.660156 515.457031 1148.921875 515.636719 1156.359375 523.316406 C 1163.796875 530.984375 1163.613281 543.238281 1155.933594 550.679688 L 1056.710938 646.90625 C 1052.957031 650.558594 1048.09375 652.371094 1043.242188 652.371094 Z M 1043.242188 652.371094 " fill-opacity="1" fill-rule="nonzero"/><path fill="#3c3c3b" d="M 1270.746094 894.492188 L 1121.152344 894.492188 C 1110.464844 894.492188 1101.800781 885.828125 1101.800781 875.140625 C 1101.800781 864.449219 1110.464844 855.789062 1121.152344 855.789062 L 1270.746094 855.789062 C 1281.4375 855.789062 1290.097656 864.449219 1290.097656 875.140625 C 1290.097656 885.828125 1281.4375 894.492188 1270.746094 894.492188 Z M 1270.746094 894.492188 " fill-opacity="1" fill-rule="nonzero"/><path fill="#3c3c3b" d="M 748.636719 85.023438 L 816.480469 85.023438 L 816.480469 268.476562 L 748.636719 268.476562 Z M 748.636719 85.023438 " fill-opacity="1" fill-rule="nonzero"/><path fill="#3c3c3b" d="M 816.480469 287.828125 L 748.628906 287.828125 C 737.941406 287.828125 729.277344 279.167969 729.277344 268.476562 L 729.277344 85.023438 C 729.277344 74.335938 737.941406 65.671875 748.628906 65.671875 L 816.480469 65.671875 C 827.167969 65.671875 835.832031 74.335938 835.832031 85.023438 L 835.832031 268.476562 C 835.832031 279.167969 827.167969 287.828125 816.480469 287.828125 Z M 767.988281 249.125 L 797.132812 249.125 L 797.132812 104.375 L 767.988281 104.375 Z M 767.988281 249.125 " fill-opacity="1" fill-rule="nonzero"/><path fill="#3c3c3b" d="M 917.910156 52.132812 C 917.910156 70.300781 891.851562 85.015625 859.679688 85.015625 L 705.414062 85.015625 C 673.242188 85.015625 647.207031 70.292969 647.207031 52.132812 C 647.207031 33.972656 673.242188 19.257812 705.414062 19.257812 L 859.679688 19.257812 C 891.851562 19.257812 917.910156 33.972656 917.910156 52.132812 Z M 917.910156 52.132812 " fill-opacity="1" fill-rule="nonzero"/><path fill="#3c3c3b" d="M 859.679688 104.375 L 705.414062 104.375 C 661.195312 104.375 627.847656 81.921875 627.847656 52.132812 C 627.847656 22.355469 661.195312 -0.09375 705.414062 -0.09375 L 859.679688 -0.09375 C 903.90625 -0.09375 937.253906 22.355469 937.253906 52.132812 C 937.261719 81.914062 903.90625 104.375 859.679688 104.375 Z M 705.421875 38.609375 C 680.496094 38.609375 667.179688 49.027344 666.554688 52.195312 C 667.164062 55.246094 680.472656 65.671875 705.421875 65.671875 L 859.6875 65.671875 C 884.628906 65.671875 897.945312 55.246094 898.5625 52.078125 C 897.9375 49.035156 884.597656 38.617188 859.6875 38.617188 L 705.421875 38.617188 Z M 705.421875 38.609375 " fill-opacity="1" fill-rule="nonzero"/><path fill="#3c3c3b" d="M 1306.582031 277.960938 L 1355.261719 325.246094 L 1227.445312 456.828125 L 1178.765625 409.542969 Z M 1306.582031 277.960938 " fill-opacity="1" fill-rule="nonzero"/><path fill="#3c3c3b" d="M 1227.492188 476.101562 C 1222.628906 476.101562 1217.769531 474.285156 1214.007812 470.628906 L 1165.324219 423.339844 C 1161.640625 419.765625 1159.535156 414.871094 1159.457031 409.738281 C 1159.378906 404.609375 1161.351562 399.652344 1164.929688 395.976562 L 1292.761719 264.398438 C 1300.21875 256.734375 1312.464844 256.5625 1320.125 264.003906 L 1368.800781 311.277344 C 1372.484375 314.851562 1374.589844 319.746094 1374.667969 324.875 C 1374.746094 330.007812 1372.773438 334.957031 1369.195312 338.640625 L 1241.371094 470.226562 C 1237.578125 474.136719 1232.53125 476.101562 1227.492188 476.101562 Z M 1206.171875 409.058594 L 1227.089844 429.378906 L 1327.945312 325.550781 L 1307.035156 305.238281 Z M 1206.171875 409.058594 " fill-opacity="1" fill-rule="nonzero"/><path fill="#3c3c3b" d="M 1450.996094 372.25 C 1438.335938 385.277344 1409.386719 377.683594 1386.304688 355.265625 L 1275.664062 247.777344 C 1252.578125 225.351562 1244.148438 196.648438 1256.8125 183.628906 C 1269.46875 170.601562 1298.40625 178.195312 1321.488281 200.613281 L 1432.128906 308.09375 C 1455.207031 330.511719 1463.636719 359.222656 1450.996094 372.25 Z M 1450.996094 372.25 " fill-opacity="1" fill-rule="nonzero"/><path fill="#3c3c3b" d="M 1433.847656 397.964844 C 1414.21875 397.964844 1391.40625 387.191406 1372.820312 369.148438 L 1262.164062 261.648438 C 1248.648438 248.519531 1238.738281 232.882812 1234.257812 217.617188 C 1228.730469 198.792969 1231.886719 181.484375 1242.925781 170.128906 C 1250.699219 162.132812 1261.425781 157.898438 1273.9375 157.898438 C 1293.558594 157.898438 1316.363281 168.671875 1334.957031 186.714844 L 1445.605469 294.207031 C 1477.328125 325.015625 1485.613281 364.363281 1464.882812 385.726562 C 1457.09375 393.738281 1446.363281 397.964844 1433.847656 397.964844 Z M 1273.9375 196.601562 C 1271.878906 196.601562 1270.847656 197.003906 1270.640625 197.144531 C 1268.957031 199.761719 1271.257812 216.511719 1289.140625 233.890625 L 1399.789062 341.386719 C 1412.507812 353.734375 1426.070312 359.269531 1433.847656 359.269531 C 1435.921875 359.269531 1436.960938 358.867188 1437.160156 358.726562 C 1438.824219 356.117188 1436.511719 339.34375 1418.628906 321.972656 L 1307.988281 214.484375 C 1295.269531 202.136719 1281.722656 196.601562 1273.9375 196.601562 Z M 1273.9375 196.601562 " fill-opacity="1" fill-rule="nonzero"/><path fill="#cf1b2b" d="M 782.542969 1499.320312 C 735.417969 1499.320312 688.4375 1494.050781 642.898438 1483.660156 C 632.476562 1481.277344 625.960938 1470.910156 628.335938 1460.484375 C 630.710938 1450.074219 641.046875 1443.5 651.511719 1445.921875 C 694.226562 1455.675781 738.3125 1460.617188 782.542969 1460.617188 C 1105.890625 1460.617188 1368.957031 1197.5625 1368.957031 874.21875 C 1368.957031 550.878906 1105.898438 287.828125 782.542969 287.828125 C 738.320312 287.828125 694.226562 292.773438 651.496094 302.519531 C 641.085938 304.90625 630.703125 298.378906 628.328125 287.960938 C 625.953125 277.542969 632.46875 267.160156 642.898438 264.785156 C 688.445312 254.394531 735.425781 249.125 782.542969 249.125 C 1127.230469 249.125 1407.660156 529.546875 1407.660156 874.21875 C 1407.660156 1218.90625 1127.238281 1499.320312 782.542969 1499.320312 Z M 782.542969 1499.320312 " fill-opacity="1" fill-rule="nonzero"/><path fill="#cf1b2b" d="M 782.542969 893.570312 C 779.003906 893.570312 775.476562 892.601562 772.371094 890.683594 C 766.667969 887.152344 763.191406 880.921875 763.191406 874.21875 L 763.191406 601.035156 C 763.191406 590.34375 771.851562 581.679688 782.542969 581.679688 C 793.234375 581.679688 801.894531 590.34375 801.894531 601.035156 L 801.894531 842.90625 L 944.941406 771.394531 C 954.507812 766.613281 966.117188 770.488281 970.902344 780.050781 C 975.679688 789.609375 971.800781 801.238281 962.25 806.011719 L 791.191406 891.527344 C 788.464844 892.890625 785.5 893.570312 782.542969 893.570312 Z M 782.542969 893.570312 " fill-opacity="1" fill-rule="nonzero"/><path fill="#3c3c3b" d="M 480.390625 498.691406 L 307.445312 498.691406 C 296.753906 498.691406 288.09375 490.027344 288.09375 479.339844 C 288.09375 468.648438 296.753906 459.988281 307.445312 459.988281 L 480.390625 459.988281 C 491.082031 459.988281 499.742188 468.648438 499.742188 479.339844 C 499.742188 490.027344 491.082031 498.691406 480.390625 498.691406 Z M 480.390625 498.691406 " fill-opacity="1" fill-rule="nonzero"/><path fill="#3c3c3b" d="M 524.375 1390.003906 L 351.429688 1390.003906 C 340.738281 1390.003906 332.074219 1381.339844 332.074219 1370.652344 C 332.074219 1359.960938 340.738281 1351.296875 351.429688 1351.296875 L 524.375 1351.296875 C 535.066406 1351.296875 543.726562 1359.960938 543.726562 1370.652344 C 543.726562 1381.339844 535.066406 1390.003906 524.375 1390.003906 Z M 524.375 1390.003906 " fill-opacity="1" fill-rule="nonzero"/><path fill="#3c3c3b" d="M 336.449219 948.445312 L 44.011719 948.445312 C 33.324219 948.445312 24.660156 939.785156 24.660156 929.09375 C 24.660156 918.402344 33.324219 909.742188 44.011719 909.742188 L 336.449219 909.742188 C 347.140625 909.742188 355.800781 918.402344 355.800781 929.09375 C 355.800781 939.785156 347.132812 948.445312 336.449219 948.445312 Z M 336.449219 948.445312 " fill-opacity="1" fill-rule="nonzero"/><path fill="#3c3c3b" d="M 358.054688 1105.925781 L 65.617188 1105.925781 C 54.929688 1105.925781 46.265625 1097.265625 46.265625 1086.574219 C 46.265625 1075.886719 54.929688 1067.222656 65.617188 1067.222656 L 358.054688 1067.222656 C 368.746094 1067.222656 377.40625 1075.886719 377.40625 1086.574219 C 377.40625 1097.265625 368.738281 1105.925781 358.054688 1105.925781 Z M 358.054688 1105.925781 " fill-opacity="1" fill-rule="nonzero"/><path fill="#3c3c3b" d="M 444.527344 1261.699219 L 152.089844 1261.699219 C 141.402344 1261.699219 132.738281 1253.035156 132.738281 1242.34375 C 132.738281 1231.65625 141.402344 1222.992188 152.089844 1222.992188 L 444.519531 1222.992188 C 455.210938 1222.992188 463.871094 1231.65625 463.871094 1242.34375 C 463.871094 1253.035156 455.210938 1261.699219 444.527344 1261.699219 Z M 444.527344 1261.699219 " fill-opacity="1" fill-rule="nonzero"/><path fill="#3c3c3b" d="M 393.917969 633.714844 L 118.660156 633.714844 C 107.96875 633.714844 99.304688 625.054688 99.304688 614.363281 C 99.304688 603.671875 107.96875 595.011719 118.660156 595.011719 L 393.917969 595.011719 C 404.609375 595.011719 413.269531 603.671875 413.269531 614.363281 C 413.269531 625.054688 404.609375 633.714844 393.917969 633.714844 Z M 393.917969 633.714844 " fill-opacity="1" fill-rule="nonzero"/><path fill="#3c3c3b" d="M 345.832031 786.691406 L 34.617188 786.691406 C 23.925781 786.691406 15.261719 778.03125 15.261719 767.339844 C 15.261719 756.648438 23.925781 747.988281 34.617188 747.988281 L 345.832031 747.988281 C 356.523438 747.988281 365.183594 756.648438 365.183594 767.339844 C 365.183594 778.03125 356.523438 786.691406 345.832031 786.691406 Z M 345.832031 786.691406 " fill-opacity="1" fill-rule="nonzero"/></svg>